SplineFontDB: 3.2
FontName: Octicons-Regular
FullName: Octicons
FamilyName: Octicons
Weight: Regular
Copyright: 
UComments: "2020-6-11: Created with FontForge (http://fontforge.org)"
Version: 10
ItalicAngle: 0
UnderlinePosition: -100
UnderlineWidth: 50
Ascent: 800
Descent: 200
InvalidEm: 0
LayerCount: 2
Layer: 0 0 "Back" 1
Layer: 1 0 "Fore" 0
XUID: [1021 214 -1571244977 13963]
StyleMap: 0x0000
FSType: 0
OS2Version: 0
OS2_WeightWidthSlopeOnly: 0
OS2_UseTypoMetrics: 1
CreationTime: 1591890911
ModificationTime: 1592054117
OS2TypoAscent: 0
OS2TypoAOffset: 1
OS2TypoDescent: 0
OS2TypoDOffset: 1
OS2TypoLinegap: 90
OS2WinAscent: 0
OS2WinAOffset: 1
OS2WinDescent: 0
OS2WinDOffset: 1
HheadAscent: 0
HheadAOffset: 1
HheadDescent: 0
HheadDOffset: 1
MarkAttachClasses: 1
DEI: 91125
Encoding: UnicodeBmp
UnicodeInterp: none
NameList: AGL For New Fonts
DisplaySize: -48
AntiAlias: 1
FitToEm: 0
WidthSeparation: 150
WinInfo: 61427 19 13
BeginPrivate: 0
EndPrivate
BeginChars: 65536 237

StartChar: heart
Encoding: 9829 9829 0
Width: 1000
Flags: W
LayerCount: 2
Fore
SplineSet
265.625 737.5 m 0
 362.3125 737.5 447.0625 687.404296875 500 611.279296875 c 1
 552.9375 687.404296875 637.6875 737.5 734.375 737.5 c 0
 869.625 737.5 1000 622.75 1000 456.25 c 0
 1000 278.125 872.205078125 129.290039062 757.080078125 30.1025390625 c 0
 690.52734375 -26.89453125 619.213867188 -77.125 542.602539062 -120.776367188 c 0
 536.234375 -124.455078125 529.743164062 -128.0078125 523.193359375 -131.396484375 c 2
 522.094726562 -132.006835938 l 1
 521.728515625 -132.12890625 l 1
 521.606445312 -132.250976562 l 2
 515.147460938 -135.594726562 507.721679688 -137.483398438 499.952148438 -137.483398438 c 0
 492.18359375 -137.483398438 484.852539062 -135.594726562 478.393554688 -132.250976562 c 2
 478.393554688 -132.12890625 l 1
 478.271484375 -132.12890625 l 1
 477.905273438 -132.006835938 l 1
 476.806640625 -131.396484375 l 2
 392.90625 -85.46875 314.98046875 -31.6025390625 242.797851562 30.1025390625 c 0
 127.797851562 129.290039062 0 278.125 0 456.25 c 0
 0 622.75 130.375 737.5 265.625 737.5 c 0
EndSplineSet
Validated: 524289
EndChar

StartChar: uniF000
Encoding: 61440 61440 1
Width: 1000
VWidth: 13300
Flags: W
LayerCount: 2
Fore
SplineSet
500 706.25 m 0xfa
 352.294921875 706.25 250 600.59765625 250 471.875 c 0
 250 410.3515625 276.489257812 370.3125 311.5234375 327.892578125 c 2
 324.890625 312.084960938 l 2
 338.806640625 295.544921875 354.248046875 277.294921875 366.943359375 259.044921875 c 0
 384.705078125 233.349609375 400.512695312 203.076171875 405.76171875 165.966796875 c 0
 405.9453125 164.318359375 406.005859375 162.732421875 406.005859375 161.0234375 c 0
 406.005859375 135.205078125 385.009765625 114.1484375 359.130859375 114.1484375 c 0
 336.12109375 114.1484375 316.955078125 130.87109375 312.98828125 152.72265625 c 0
 310.486328125 170.361328125 302.794921875 186.962890625 289.85546875 205.701171875 c 0
 279.236328125 220.532226562 268.06640625 234.509765625 255.981445312 248.181640625 c 0
 250.732421875 254.467773438 245.177734375 260.998046875 239.2578125 268.201171875 c 0
 200.073242188 315.625 156.25 377.1484375 156.25 471.875 c 0
 156.25 655.65234375 303.955078125 800 500 800 c 0
 696.044921875 800 843.75 655.65234375 843.75 471.875 c 0
 843.75 377.1484375 799.926757812 315.625 760.7421875 268.201171875 c 0
 754.822265625 260.998046875 749.267578125 254.467773438 744.018554688 248.2421875 c 0
 731.079101562 232.921875 720.092773438 219.921875 710.205078125 205.701171875 c 0
 697.205078125 186.962890625 689.575195312 170.361328125 687.072265625 152.72265625 c 0
 683.837890625 130.017578125 664.24609375 112.560546875 640.685546875 112.560546875 c 0
 614.806640625 112.560546875 593.810546875 133.556640625 593.810546875 159.435546875 c 0
 593.810546875 161.694335938 593.93359375 163.830078125 594.23828125 166.02734375 c 0
 599.487304688 203.076171875 615.294921875 233.349609375 633.056640625 259.044921875 c 0
 645.751953125 277.294921875 661.193359375 295.544921875 675.109375 312.084960938 c 0
 679.809570312 317.578125 684.326171875 322.888671875 688.416015625 327.892578125 c 0
 723.510742188 370.3125 750 410.3515625 750 471.875 c 0
 750 600.59765625 647.705078125 706.25 500 706.25 c 0xfa
375 -153.125 m 0xf6
 375 -127.24609375 395.99609375 -106.25 421.875 -106.25 c 2
 578.125 -106.25 l 2
 604.00390625 -106.25 625 -127.24609375 625 -153.125 c 0
 625 -179.00390625 604.00390625 -200 578.125 -200 c 2
 421.875 -200 l 2
 395.99609375 -200 375 -179.00390625 375 -153.125 c 0xf6
359.375 50 m 2
 333.49609375 50 312.5 29.00390625 312.5 3.125 c 0
 312.5 -22.75390625 333.49609375 -43.75 359.375 -43.75 c 2
 640.625 -43.75 l 2
 666.50390625 -43.75 687.5 -22.75390625 687.5 3.125 c 0
 687.5 29.00390625 666.50390625 50 640.625 50 c 2
 359.375 50 l 2
EndSplineSet
Validated: 524297
EndChar

StartChar: uniF001
Encoding: 61441 61441 2
Width: 1000
VWidth: 13292
Flags: W
LayerCount: 2
Fore
SplineSet
125 636.0625 m 2x7a
 125 722.3046875 195.0078125 792.3125 281.25 792.3125 c 2
 828.125 792.3125 l 2
 854.00390625 792.3125 875 771.31640625 875 745.4375 c 2x7a
 875 -35.8125 l 2
 875 -61.69140625 854.00390625 -82.6875 828.125 -82.6875 c 2
 671.875 -82.6875 l 2
 645.99609375 -82.6875 625 -61.69140625 625 -35.8125 c 0x7c
 625 -9.93359375 645.99609375 11.0625 671.875 11.0625 c 2
 781.25 11.0625 l 1
 781.25 136.0625 l 1
 281.25 136.0625 l 2
 246.765625 136.0625 218.75 108.046875 218.75 73.5625 c 0
 218.75 56.533203125 225.5859375 41.091796875 236.6328125 29.80078125 c 0
 244.93359375 21.376953125 250 9.78125 250 -2.9755859375 c 0
 250 -28.8544921875 229.00390625 -49.912109375 203.125 -49.912109375 c 0
 190.001953125 -49.912109375 178.162109375 -44.4794921875 169.6171875 -35.8125 c 0
 142.029296875 -7.67578125 125 30.8984375 125 73.37890625 c 0
 125 73.4404296875 125 73.501953125 125 73.5625 c 2
 125 636.0625 l 2x7a
781.25 698.5625 m 1
 281.25 698.5625 l 2
 246.765625 698.5625 218.75 670.546875 218.75 636.0625 c 2
 218.75 216.8125 l 1
 237.853515625 225.173828125 258.97265625 229.8125 281.25 229.8125 c 2
 781.25 229.8125 l 1
 781.25 698.5625 l 1
312.5 26.6875 m 2
 312.5 -176.4375 l 2
 312.5 -185.04296875 319.51953125 -192.0625 328.125 -192.0625 c 0
 331.665039062 -192.0625 334.900390625 -190.90234375 337.524414062 -188.94921875 c 2
 428.100585938 -121.017578125 l 2
 430.724609375 -119.064453125 433.959960938 -117.904296875 437.5 -117.904296875 c 0
 440.978515625 -117.904296875 444.275390625 -119.064453125 446.899414062 -121.017578125 c 2
 537.475585938 -188.94921875 l 2
 540.099609375 -190.90234375 543.334960938 -192.0625 546.875 -192.0625 c 0
 555.48046875 -192.0625 562.5 -185.04296875 562.5 -176.4375 c 2
 562.5 26.6875 l 2
 562.5 35.29296875 555.48046875 42.3125 546.875 42.3125 c 2
 328.125 42.3125 l 2xb8
 319.51953125 42.3125 312.5 35.29296875 312.5 26.6875 c 2
EndSplineSet
Validated: 524297
EndChar

StartChar: uniF002
Encoding: 61442 61442 3
Width: 1000
VWidth: 13238
Flags: W
LayerCount: 2
Fore
SplineSet
215.818359375 728.125 m 0xe8
 270.818359375 747.5 322.068359375 736.25 363.318359375 694.375 c 0
 403.318359375 654.375 415.193359375 609.375 399.568359375 554.375 c 0
 392.068359375 527.5 357.068359375 485 330.193359375 471.25 c 0
 313.943359375 463.125 312.693359375 459.375 312.693359375 427.5 c 0
 312.693359375 399.375 315.193359375 390.625 328.318359375 378.125 c 2
 343.318359375 362.5 l 1
 500.193359375 362.5 l 1
 657.068359375 362.5 l 1
 672.068359375 378.125 l 2
 685.193359375 390.625 687.693359375 399.375 687.693359375 427.5 c 0
 687.693359375 459.375 686.443359375 462.5 666.443359375 475 c 0
 582.693359375 526.25 569.568359375 626.875 637.068359375 694.375 c 0
 694.568359375 752.5 774.568359375 752.5 832.068359375 694.375 c 0
 872.068359375 654.375 883.943359375 609.375 868.318359375 554.375 c 0
 860.818359375 527.5 825.818359375 485 798.943359375 471.25 c 0
 782.693359375 463.125 781.443359375 459.375 781.443359375 426.875 c 0
 781.443359375 374.375 770.193359375 344.375 737.068359375 311.25 c 0
 702.068359375 276.25 678.943359375 268.75 605.193359375 268.75 c 2
 550.193359375 268.75 l 1
 550.193359375 201.875 l 1
 550.193359375 134.375 l 1xe8
 573.318359375 121.875 l 2
 586.443359375 115 605.193359375 96.875 615.818359375 82.5 c 0
 633.318359375 57.5 634.568359375 51.25 634.568359375 3.125 c 0xd8
 634.568359375 -44.375 633.318359375 -51.25 615.818359375 -75.625 c 0
 590.818359375 -110.625 540.818359375 -137.5 500.193359375 -137.5 c 0
 460.193359375 -137.5 409.568359375 -110.625 386.443359375 -78.125 c 0
 341.443359375 -13.75 360.193359375 83.125 425.193359375 120 c 2
 450.193359375 134.375 l 1
 450.193359375 201.875 l 1
 450.193359375 268.75 l 1
 395.818359375 268.75 l 2
 321.443359375 268.75 297.068359375 276.875 262.068359375 311.875 c 0
 229.568359375 344.375 218.943359375 371.875 218.943359375 426.25 c 0
 218.943359375 459.375 217.693359375 461.875 197.693359375 475 c 0
 115.818359375 525 100.818359375 624.375 164.568359375 691.875 c 0
 178.943359375 706.875 202.068359375 723.125 215.818359375 728.125 c 0xe8
297.068359375 628.125 m 0
 288.943359375 636.875 274.568359375 643.75 265.818359375 643.75 c 0
 257.068359375 643.75 242.693359375 636.875 234.568359375 628.125 c 0
 225.818359375 620 218.943359375 605.625 218.943359375 596.875 c 0
 218.943359375 576.25 245.193359375 550 265.818359375 550 c 0
 286.443359375 550 312.693359375 576.25 312.693359375 596.875 c 0
 312.693359375 605.625 305.818359375 620 297.068359375 628.125 c 0
765.818359375 628.125 m 0
 757.693359375 636.875 743.318359375 643.75 734.568359375 643.75 c 0
 725.818359375 643.75 711.443359375 636.875 703.318359375 628.125 c 0
 694.568359375 620 687.693359375 605.625 687.693359375 596.875 c 0
 687.693359375 576.25 713.943359375 550 734.568359375 550 c 0
 743.318359375 550 757.693359375 556.875 765.818359375 565.625 c 0
 774.568359375 573.75 781.443359375 588.125 781.443359375 596.875 c 0
 781.443359375 605.625 774.568359375 620 765.818359375 628.125 c 0
530.193359375 37.5 m 0
 522.693359375 44.375 508.943359375 50 500.193359375 50 c 0
 460.818359375 50 440.818359375 -3.75 470.193359375 -31.25 c 0
 499.568359375 -58.125 543.943359375 -37.5 543.943359375 3.125 c 0xd8
 543.943359375 16.875 538.943359375 28.75 530.193359375 37.5 c 0
EndSplineSet
Validated: 524321
EndChar

StartChar: uniF005
Encoding: 61445 61445 4
Width: 1000
VWidth: 13300
Flags: W
LayerCount: 2
Fore
SplineSet
47.150390625 643.75 m 2
 47.150390625 729.9921875 117.15625 800 203.400390625 800 c 2
 750.275390625 800 l 2
 776.154296875 800 797.150390625 779.00390625 797.150390625 753.125 c 2
 797.150390625 534.375 l 2
 797.150390625 508.49609375 776.154296875 487.5 750.275390625 487.5 c 0
 724.396484375 487.5 703.400390625 508.49609375 703.400390625 534.375 c 2
 703.400390625 706.25 l 1
 203.400390625 706.25 l 2
 168.9140625 706.25 140.900390625 678.234375 140.900390625 643.75 c 2
 140.900390625 224.5 l 1
 159.943359375 232.80078125 181 237.439453125 203.09375 237.439453125 c 0
 203.15625 237.439453125 203.337890625 237.5 203.400390625 237.5 c 2
 406.525390625 237.5 l 2
 432.404296875 237.5 453.400390625 216.50390625 453.400390625 190.625 c 0
 453.400390625 164.74609375 432.404296875 143.75 406.525390625 143.75 c 2
 203.400390625 143.75 l 2
 168.9140625 143.75 140.900390625 115.734375 140.900390625 81.25 c 0
 140.900390625 46.765625 168.9140625 18.75 203.400390625 18.75 c 2
 562.775390625 18.75 l 2
 588.654296875 18.75 609.650390625 -2.24609375 609.650390625 -28.125 c 0
 609.650390625 -54.00390625 588.654296875 -75 562.775390625 -75 c 2
 203.400390625 -75 l 2
 117.15625 -75 47.150390625 -4.9921875 47.150390625 81.25 c 2
 47.150390625 643.75 l 2
874.0546875 156.873046875 m 2
 873.931640625 156.873046875 l 1
 797.455078125 233.349609375 l 1
 797.455078125 -153.125 l 2
 797.455078125 -179.00390625 776.458984375 -200 750.580078125 -200 c 0
 724.701171875 -200 703.705078125 -179.00390625 703.705078125 -153.125 c 2
 703.705078125 233.349609375 l 1
 627.166015625 156.873046875 l 2
 618.744140625 148.754882812 607.208984375 143.75 594.57421875 143.75 c 0
 568.755859375 143.75 547.69921875 164.74609375 547.69921875 190.625 c 0
 547.69921875 203.259765625 552.765625 214.734375 560.8828125 223.217773438 c 2
 717.4375 379.711914062 l 2
 725.921875 388.134765625 737.640625 393.383789062 750.580078125 393.383789062 c 0
 763.51953125 393.383789062 775.23828125 388.134765625 783.72265625 379.711914062 c 2
 940.27734375 223.095703125 l 2
 948.08984375 214.734375 952.849609375 203.50390625 952.849609375 191.173828125 c 0
 952.849609375 165.294921875 931.853515625 144.298828125 905.974609375 144.298828125 c 0
 893.646484375 144.298828125 882.416015625 149.060546875 874.0546875 156.873046875 c 2
EndSplineSet
Validated: 524289
EndChar

StartChar: uniF006
Encoding: 61446 61446 5
Width: 1000
VWidth: 13300
Flags: W
LayerCount: 2
Fore
SplineSet
812.5 300 m 1xf980
 812.5 425 l 1
 437.5 425 l 1
 437.5 550 l 1
 812.5 550 l 1
 812.5 675 l 1
 1000 487.5 l 1
 812.5 300 l 1xf980
250 675 m 1
 250 612.5 l 1
 187.5 612.5 l 1
 187.5 675 l 1
 250 675 l 1
687.5 362.5 m 1
 750 362.5 l 1
 750 -12.5 l 2
 750 -46.86328125 721.86328125 -75 687.5 -75 c 2
 375 -75 l 1
 375 -200 l 1
 281.25 -106.25 l 1
 187.5 -200 l 1
 187.5 -75 l 1
 62.5 -75 l 2
 28.13671875 -75 0 -46.86328125 0 -12.5 c 2xfb80
 0 737.5 l 2xfd80
 0 771.86328125 28.13671875 800 62.5 800 c 2xfb80
 687.5 800 l 2
 721.86328125 800 750 771.86328125 750 737.5 c 2
 750 612.5 l 1
 687.5 612.5 l 1
 687.5 737.5 l 1
 125 737.5 l 1
 125 175 l 1xfd80
 687.5 175 l 1
 687.5 362.5 l 1
687.5 112.5 m 1
 62.5 112.5 l 1
 62.5 -12.5 l 1
 187.5 -12.5 l 1
 187.5 50 l 1
 375 50 l 1
 375 -12.5 l 1
 687.5 -12.5 l 1
 687.5 112.5 l 1
250 425 m 1
 187.5 425 l 1
 187.5 362.5 l 1
 250 362.5 l 1
 250 425 l 1
250 550 m 1
 187.5 550 l 1
 187.5 487.5 l 1
 250 487.5 l 1
 250 550 l 1
187.5 237.5 m 1
 250 237.5 l 1
 250 300 l 1
 187.5 300 l 1
 187.5 237.5 l 1
EndSplineSet
Validated: 524297
EndChar

StartChar: uniF007
Encoding: 61447 61447 6
Width: 1000
VWidth: 13223
Flags: W
LayerCount: 2
Fore
SplineSet
-0.03125 676.129882812 m 2
 -0.03125 702.008789062 20.96484375 723.004882812 46.84375 723.004882812 c 2
 312.65234375 723.004882812 l 2
 389.373046875 723.004882812 457.48828125 686.139648438 500.15234375 629.193359375 c 1
 542.876953125 686.26171875 610.931640625 723.1875 687.65234375 723.1875 c 0
 687.712890625 723.1875 687.712890625 723.004882812 687.8359375 723.004882812 c 2
 953.15625 723.004882812 l 2
 979.03515625 723.004882812 1000.03125 702.008789062 1000.03125 676.129882812 c 2
 1000.03125 19.8798828125 l 2
 1000.03125 -5.9990234375 979.03515625 -26.9951171875 953.15625 -26.9951171875 c 2
 671.478515625 -26.9951171875 l 2
 632.66015625 -26.9951171875 597.50390625 -42.7421875 572.052734375 -68.193359375 c 2
 533.171875 -107.01171875 l 2
 524.689453125 -115.49609375 512.970703125 -120.68359375 500.03125 -120.68359375 c 0
 487.091796875 -120.68359375 475.373046875 -115.49609375 466.888671875 -107.01171875 c 2
 428.009765625 -68.193359375 l 2
 402.556640625 -42.7421875 367.400390625 -26.9951171875 328.58203125 -26.9951171875 c 2
 46.84375 -26.9951171875 l 2
 20.96484375 -26.9951171875 -0.03125 -5.9990234375 -0.03125 19.8798828125 c 2
 -0.03125 676.129882812 l 2
547.150390625 488.629882812 m 2
 546.90625 30.98828125 l 1
 583.892578125 54.181640625 627.044921875 66.7548828125 671.41796875 66.7548828125 c 2
 906.21875 66.7548828125 l 1
 906.21875 629.254882812 l 1
 687.775390625 629.254882812 l 2
 610.19921875 629.254882812 547.150390625 566.266601562 547.150390625 488.629882812 c 2
453.15625 30.8662109375 m 1
 453.400390625 347.943359375 l 1
 453.27734375 488.751953125 l 2
 453.216796875 566.328125 390.228515625 629.254882812 312.65234375 629.254882812 c 2
 93.71875 629.254882812 l 1
 93.71875 66.7548828125 l 1
 328.521484375 66.7548828125 l 2
 374.17578125 66.7548828125 417.083984375 53.509765625 453.15625 30.8662109375 c 1
EndSplineSet
Validated: 524289
EndChar

StartChar: uniF008
Encoding: 61448 61448 7
Width: 1000
VWidth: 13207
Flags: W
LayerCount: 2
Fore
SplineSet
918.76171875 499.043945312 m 0
 969.360351562 444.662109375 1000 374.654296875 1000 289.6328125 c 0
 1000 -32.2060546875 789.3671875 -104.715820312 498.779296875 -104.715820312 c 0
 208.129882812 -104.715820312 0 -32.2060546875 0 289.6328125 c 0
 0 374.654296875 30.6396484375 444.662109375 81.23828125 499.043945312 c 0
 73.1201171875 519.002929688 46.875 598.409179688 89.35546875 705.892578125 c 2
 89.35546875 705.892578125 155.029296875 727.1328125 304.3828125 624.654296875 c 0
 366.8828125 642.171875 433.77734375 644.673828125 500 644.673828125 c 0
 566.22265625 644.673828125 633.1171875 642.171875 695.6171875 624.654296875 c 0
 844.970703125 726.522460938 910.64453125 705.892578125 910.64453125 705.892578125 c 2
 953.125 598.409179688 926.879882812 519.002929688 918.76171875 499.043945312 c 0
500 -43.4970703125 m 0
 706.23828125 -43.4970703125 873.779296875 -33.4873046875 873.779296875 165.9140625 c 0
 873.779296875 214.009765625 850.646484375 258.3828125 809.998046875 295.248046875 c 0
 742.4921875 356.52734375 629.39453125 323.995117188 500 323.995117188 c 0
 371.27734375 323.995117188 256.896484375 356.52734375 190.001953125 295.248046875 c 0
 150.024414062 258.3828125 126.220703125 213.399414062 126.220703125 165.9140625 c 0
 126.220703125 -34.09765625 293.76171875 -43.4970703125 500 -43.4970703125 c 0
343.139648438 269.673828125 m 0
 384.399414062 269.673828125 418.15234375 220.296875 418.15234375 158.407226562 c 0
 418.15234375 96.517578125 384.399414062 46.529296875 343.139648438 46.529296875 c 0
 301.879882812 46.529296875 268.126953125 97.1279296875 268.126953125 158.407226562 c 0
 268.126953125 219.625 301.879882812 269.673828125 343.139648438 269.673828125 c 0
656.860351562 269.673828125 m 0
 698.73046875 269.673828125 731.873046875 220.296875 731.873046875 158.407226562 c 0
 731.873046875 96.517578125 698.120117188 46.529296875 656.860351562 46.529296875 c 0
 615.600585938 46.529296875 581.84765625 96.517578125 581.84765625 158.407226562 c 0
 581.84765625 220.296875 615.600585938 269.673828125 656.860351562 269.673828125 c 0
EndSplineSet
Validated: 524321
EndChar

StartChar: uniF009
Encoding: 61449 61449 8
Width: 1000
VWidth: 13250
Flags: W
LayerCount: 2
Fore
SplineSet
508.125 683.125 m 0xc2
 551.875 726.875 591.875 761.875 596.875 761.25 c 0
 604.375 759.375 606.875 746.875 608.125 701.25 c 2
 610 643.75 l 1
 652.5 643.75 l 2
 708.75 643.75 749.375 629.375 781.25 596.875 c 0
 825.625 553.125 828.125 537.5 828.125 323.75 c 2
 828.125 138.125 l 1xc2
 845.625 128.75 l 2
 888.125 106.875 921.875 51.25 921.875 3.125 c 0
 921.875 -71.25 855.625 -137.5 781.25 -137.5 c 0
 706.875 -137.5 640.625 -71.25 640.625 3.125 c 0xc5
 640.625 51.25 674.375 106.875 716.875 128.75 c 2
 734.375 138.125 l 1
 734.375 318.75 l 2
 734.375 445.625 731.875 504.375 726.875 515.625 c 0
 716.25 539.375 690.625 550 646.875 550 c 2
 609.375 550 l 1
 609.375 493.75 l 2
 609.375 447.5 607.5 436.25 599.375 433.125 c 0
 592.5 430.625 565.625 453.125 508.75 510 c 0
 464.375 554.375 428.125 593.125 428.125 596.875 c 0
 428.125 600 463.75 638.75 508.125 683.125 c 0xc2
812.5 34.375 m 0
 804.375 43.125 790 50 781.25 50 c 0
 760.625 50 734.375 23.75 734.375 3.125 c 0
 734.375 -17.5 760.625 -43.75 781.25 -43.75 c 0
 801.875 -43.75 828.125 -17.5 828.125 3.125 c 0xc5
 828.125 11.875 821.25 26.25 812.5 34.375 c 0
173.125 729.375 m 0
 263.75 758.75 359.375 690 359.375 595.625 c 0xc8
 359.375 549.375 324.375 493.125 283.125 471.25 c 2
 265.625 461.875 l 1
 265.625 300 l 1
 265.625 138.125 l 1xd0
 283.125 128.75 l 2
 325.625 106.875 359.375 51.25 359.375 3.125 c 0
 359.375 -71.25 293.125 -137.5 218.75 -137.5 c 0
 144.375 -137.5 78.125 -71.25 78.125 3.125 c 0xe8
 78.125 51.25 111.875 106.875 154.375 128.75 c 2
 171.875 138.125 l 1
 171.875 303.125 l 2xd0
 171.875 448.75 170.625 468.75 162.5 468.75 c 0
 156.875 468.75 139.375 481.875 123.125 498.75 c 0
 79.375 542.5 68.75 588.125 88.125 645.625 c 0
 99.375 678.75 140 718.75 173.125 729.375 c 0
250 628.125 m 0
 241.875 636.875 227.5 643.75 218.75 643.75 c 0
 210 643.75 195.625 636.875 187.5 628.125 c 0
 178.75 620 171.875 605.625 171.875 596.875 c 0xd0
 171.875 576.25 198.125 550 218.75 550 c 0
 239.375 550 265.625 576.25 265.625 596.875 c 0
 265.625 605.625 258.75 620 250 628.125 c 0
250 34.375 m 0
 241.875 43.125 227.5 50 218.75 50 c 0
 210 50 195.625 43.125 187.5 34.375 c 0
 178.75 26.25 171.875 11.875 171.875 3.125 c 0
 171.875 -17.5 198.125 -43.75 218.75 -43.75 c 0
 227.5 -43.75 241.875 -36.875 250 -28.125 c 0
 258.75 -20 265.625 -5.625 265.625 3.125 c 0xe8
 265.625 11.875 258.75 26.25 250 34.375 c 0
EndSplineSet
Validated: 524321
EndChar

StartChar: uniF00A
Encoding: 61450 61450 9
Width: 1000
VWidth: 13287
Flags: W
LayerCount: 2
Fore
SplineSet
500 787.858398438 m 0
 776.245117188 787.858398438 1000 564.103515625 1000 287.858398438 c 0
 999.939453125 67.4609375 857.361328125 -119.672851562 659.36328125 -186.506835938 c 0
 634.399414062 -191.51171875 625 -175.88671875 625 -162.763671875 c 0
 625 -145.91796875 625.610351562 -92.146484375 625.610351562 -25.251953125 c 0
 625.610351562 21.623046875 609.985351562 51.591796875 591.857421875 67.216796875 c 1
 703.125 79.728515625 820.0078125 122.208984375 820.0078125 314.103515625 c 0
 820.0078125 369.096679688 800.59765625 413.46875 768.73828125 448.502929688 c 0
 773.7421875 460.954101562 791.259765625 512.223632812 763.732421875 581.010742188 c 2
 763.732421875 581.010742188 721.86328125 594.743164062 626.220703125 529.741210938 c 0
 586.2421875 540.971679688 543.76171875 546.586914062 501.220703125 546.586914062 c 0
 458.740234375 546.586914062 416.259765625 540.971679688 376.220703125 529.741210938 c 0
 280.639648438 594.1328125 238.76953125 581.010742188 238.76953125 581.010742188 c 2
 211.2421875 512.223632812 228.759765625 460.954101562 233.764648438 448.502929688 c 0
 201.904296875 413.46875 182.495117188 368.486328125 182.495117188 314.103515625 c 0
 182.495117188 122.880859375 298.767578125 79.728515625 409.97265625 67.216796875 c 1
 395.629882812 54.7041015625 382.5078125 32.853515625 378.11328125 0.3828125 c 0
 349.365234375 -12.7392578125 277.52734375 -34.041015625 232.482421875 41.58203125 c 0
 223.14453125 56.5966796875 195.0078125 93.4619140625 155.639648438 92.8515625 c 0
 113.76953125 92.2412109375 138.732421875 69.1083984375 156.25 59.708984375 c 0
 177.490234375 47.8681640625 201.904296875 3.49609375 207.51953125 -10.908203125 c 0
 217.529296875 -39.0458984375 250 -92.7568359375 375.610351562 -69.6240234375 c 1
 375.610351562 -111.494140625 376.220703125 -150.862304688 376.220703125 -162.763671875 c 0
 376.220703125 -175.88671875 366.8828125 -190.901367188 341.857421875 -186.506835938 c 0
 143.126953125 -120.283203125 0 66.6064453125 0 287.858398438 c 0
 0 564.103515625 223.754882812 787.858398438 500 787.858398438 c 0
EndSplineSet
Validated: 524321
EndChar

StartChar: uniF00B
Encoding: 61451 61451 10
Width: 1000
VWidth: 13223
Flags: W
LayerCount: 2
Fore
SplineSet
473.4375 728.75 m 0
 499.6875 748.75 534.0625 734.375 544.0625 699.375 c 0
 547.8125 687.5 550.3125 588.125 550.3125 478.75 c 2
 550.3125 278.75 l 1
 630.9375 358.75 l 2
 708.4375 435 712.8125 438.125 735.3125 436.25 c 0
 765.3125 433.75 785.3125 409.375 779.0625 383.125 c 0
 775.9375 371.875 731.5625 322.5 647.8125 239.375 c 0
 533.4375 125 519.0625 112.5 500.3125 112.5 c 0
 481.5625 112.5 467.1875 125 352.8125 239.375 c 0
 269.0625 322.5 224.6875 371.875 221.5625 383.125 c 0
 215.3125 409.375 235.3125 433.75 265.3125 436.25 c 0
 287.8125 438.125 292.1875 435 369.6875 358.75 c 2
 450.3125 278.75 l 1
 450.3125 478.75 l 2
 450.3125 588.125 452.8125 687.5 456.5625 699.375 c 0
 459.6875 710.625 467.1875 723.75 473.4375 728.75 c 0
203.4375 -28.125 m 2
 218.4375 -12.5 l 1
 500.3125 -12.5 l 1
 782.1875 -12.5 l 1
 797.1875 -28.125 l 2
 817.1875 -47.5 817.1875 -71.25 797.1875 -90.625 c 2
 782.1875 -106.25 l 1
 500.3125 -106.25 l 1
 218.4375 -106.25 l 1
 203.4375 -90.625 l 2
 194.6875 -82.5 187.8125 -68.125 187.8125 -59.375 c 0
 187.8125 -50.625 194.6875 -36.25 203.4375 -28.125 c 2
EndSplineSet
Validated: 524321
EndChar

StartChar: uni26A1
Encoding: 9889 9889 11
Width: 1000
Flags: W
LayerCount: 2
Fore
SplineSet
660.088867188 706.3125 m 1
 659.844726562 706.3125 659.600585938 706.189453125 659.416992188 706.068359375 c 2
 205.375976562 264.356445312 l 2
 202.446289062 261.548828125 200.676757812 257.58203125 200.676757812 253.1875 c 0
 200.676757812 244.581054688 207.634765625 237.5625 216.301757812 237.5625 c 0
 216.301757812 237.5625 216.362304688 237.5625 216.362304688 237.5625 c 2
 421.868164062 237.5625 l 2
 447.747070312 237.5625 468.743164062 216.56640625 468.743164062 190.6875 c 0
 468.743164062 184.400390625 467.522460938 178.418945312 465.264648438 172.92578125 c 2
 358.208007812 -88.853515625 l 1
 794.548828125 335.767578125 l 2
 797.478515625 338.575195312 799.309570312 342.54296875 799.309570312 346.9375 c 0
 799.309570312 355.54296875 792.290039062 362.5625 783.684570312 362.5625 c 2
 783.624023438 362.5625 l 1
 578.118164062 362.5625 l 2
 552.239257812 362.5625 531.243164062 383.55859375 531.243164062 409.4375 c 0
 531.243164062 416.333984375 532.768554688 422.92578125 535.454101562 428.78515625 c 2
 660.942382812 704.908203125 l 1
 661.125976562 705.274414062 l 2
 661.065429688 705.518554688 661.00390625 705.701171875 660.881835938 705.884765625 c 0
 660.759765625 706.006835938 660.637695312 706.12890625 660.515625 706.250976562 c 2
 660.02734375 706.3125 l 1
 660.088867188 706.3125 l 1
593.987304688 773.20703125 m 2
 611.077148438 789.747070312 634.331054688 799.939453125 659.965820312 799.939453125 c 0
 712.2734375 799.939453125 754.75390625 757.458984375 754.75390625 705.212890625 c 0
 754.75390625 691.296875 751.702148438 677.9921875 746.331054688 666.08984375 c 2
 650.932617188 456.3125 l 1
 783.624023438 456.3125 l 2
 881.768554688 456.3125 930.229492188 336.98828125 859.856445312 268.568359375 c 2
 401.116210938 -177.84375 l 2
 387.078125 -191.515625 367.852539062 -199.9375 346.672851562 -199.9375 c 2
 327.813476562 -199.9375 l 2
 284.721679688 -199.9375 249.688476562 -164.96484375 249.688476562 -121.8125 c 0
 249.688476562 -111.375976562 251.762695312 -101.366210938 255.486328125 -92.271484375 c 2
 352.043945312 143.8125 l 1
 216.362304688 143.8125 l 2
 118.279296875 143.8125 69.7568359375 263.135742188 140.129882812 331.556640625 c 2
 593.926757812 773.267578125 l 1
 593.987304688 773.20703125 l 2
EndSplineSet
Validated: 524325
EndChar

StartChar: uniF00C
Encoding: 61452 61452 12
Width: 1000
LayerCount: 2
Fore
SplineSet
352.8125 611.25 m 0
 467.1875 725.625 481.5625 737.5 500.3125 737.5 c 0
 519.6875 737.5 533.4375 725.625 651.5625 607.5 c 0
 762.8125 496.25 781.5625 475 781.5625 458.75 c 0
 781.5625 421.875 747.1875 397.5 717.1875 413.125 c 0
 709.6875 416.875 669.0625 454.375 627.1875 495.625 c 2
 550.3125 571.875 l 1
 550.3125 371.875 l 2
 550.3125 261.875 547.8125 162.5 544.0625 150.625 c 0
 529.6875 99.375 470.9375 99.375 456.5625 150.625 c 0
 452.8125 162.5 450.3125 261.875 450.3125 371.25 c 2
 450.3125 571.25 l 1
 369.6875 491.25 l 2
 292.1875 415 287.8125 411.875 265.3125 413.75 c 0
 235.3125 416.25 215.3125 440.625 221.5625 466.875 c 0
 224.6875 478.125 269.0625 527.5 352.8125 611.25 c 0
203.4375 -28.125 m 2
 218.4375 -12.5 l 1
 500.3125 -12.5 l 1
 782.1875 -12.5 l 1
 797.1875 -28.125 l 2
 817.1875 -47.5 817.1875 -71.25 797.1875 -90.625 c 2
 782.1875 -106.25 l 1
 500.3125 -106.25 l 1
 218.4375 -106.25 l 1
 203.4375 -90.625 l 2
 194.6875 -82.5 187.8125 -68.125 187.8125 -59.375 c 0
 187.8125 -50.625 194.6875 -36.25 203.4375 -28.125 c 2
EndSplineSet
Validated: 524321
EndChar

StartChar: uniF00E
Encoding: 61454 61454 13
Width: 1000
LayerCount: 2
Fore
SplineSet
66.7548828125 790 m 0
 83.0048828125 798.75 137.379882812 800 501.129882812 800 c 0
 968.004882812 800 939.254882812 802.5 979.254882812 753.75 c 2
 998.004882812 730 l 1
 998.004882812 300 l 1
 998.004882812 -130 l 1
 979.254882812 -153.75 l 2
 939.254882812 -202.5 968.004882812 -200 501.129882812 -200 c 0
 34.2548828125 -200 63.0048828125 -202.5 23.0048828125 -153.75 c 2
 4.2548828125 -130 l 1
 2.3798828125 286.25 l 2
 1.1298828125 559.375 3.0048828125 710.625 6.7548828125 725 c 0
 14.2548828125 749.375 37.3798828125 775 66.7548828125 790 c 0
904.254882812 300 m 1
 904.254882812 703.125 l 1
 502.379882812 705 l 2
 184.254882812 706.25 99.8798828125 705 98.0048828125 698.75 c 0
 96.1298828125 694.375 95.5048828125 511.875 96.1298828125 293.75 c 2
 98.0048828125 -103.125 l 1
 501.129882812 -103.125 l 1
 904.254882812 -103.125 l 1
 904.254882812 300 l 1
293.629882812 395 m 0
 365.504882812 466.875 368.629882812 469.375 391.754882812 467.5 c 0
 422.379882812 465 442.379882812 441.25 436.129882812 415 c 0
 433.629882812 405.625 410.504882812 375.625 384.254882812 348.75 c 2
 336.754882812 300 l 1
 387.379882812 246.875 l 2
 426.754882812 206.25 438.629882812 190 438.629882812 176.25 c 0
 438.629882812 138.75 403.629882812 116.875 371.129882812 133.75 c 0
 361.754882812 138.75 324.254882812 173.75 287.379882812 211.25 c 0
 197.379882812 303.75 197.379882812 297.5 293.629882812 395 c 0
576.129882812 455 m 0
 584.879882812 464.375 596.754882812 468.75 612.379882812 468.75 c 0
 633.629882812 468.75 641.129882812 462.5 708.629882812 394.375 c 0
 804.879882812 297.5 804.879882812 303.125 715.504882812 211.25 c 0
 678.004882812 173.75 640.504882812 138.75 631.129882812 133.75 c 0
 598.004882812 116.875 563.629882812 138.75 563.629882812 176.875 c 0
 563.629882812 191.25 574.254882812 206.25 614.879882812 247.5 c 2
 665.504882812 300 l 1
 614.879882812 353.125 l 2
 559.254882812 410.625 552.379882812 429.375 576.129882812 455 c 0
EndSplineSet
Validated: 524321
EndChar

StartChar: uniF010
Encoding: 61456 61456 14
Width: 1000
Flags: W
LayerCount: 2
Fore
SplineSet
316.024414062 790 m 0
 331.649414062 798.125 365.399414062 800 531.649414062 800 c 0
 710.399414062 800 731.024414062 798.75 753.524414062 788.125 c 0
 769.149414062 781.25 818.524414062 735.625 882.899414062 671.25 c 0
 964.774414062 588.125 988.524414062 560 994.149414062 540.625 c 0
 999.149414062 523.125 1000.39941406 430.625 999.149414062 223.75 c 2
 997.274414062 -67.5 l 1
 978.524414062 -91.25 l 2
 939.149414062 -139.375 952.899414062 -137.5 614.149414062 -137.5 c 2
 312.274414062 -137.5 l 1
 297.274414062 -121.875 l 2
 278.524414062 -103.75 277.274414062 -81.875 293.524414062 -61.875 c 2
 305.399414062 -46.875 l 1
 604.774414062 -43.75 l 1
 903.524414062 -40.625 l 1
 905.399414062 192.5 l 1
 906.649414062 425 l 1
 807.899414062 425 l 2
 696.649414062 425 681.649414062 429.375 647.274414062 471.25 c 2
 628.524414062 495 l 1
 626.649414062 600.625 l 1
 624.774414062 706.25 l 1
 486.024414062 705 l 1
 347.274414062 703.125 l 1
 344.149414062 607.5 l 2
 341.024414062 515.625 340.399414062 510.625 326.024414062 499.375 c 0
 306.024414062 483.125 284.149414062 484.375 266.024414062 503.125 c 0
 251.024414062 518.125 250.399414062 520.625 250.399414062 615.625 c 0
 250.399414062 738.125 258.524414062 760.625 316.024414062 790 c 0
817.899414062 520 m 2
 900.399414062 521.875 l 1
 809.774414062 612.5 l 1
 719.149414062 703.125 l 1
 719.149414062 613.75 l 2
 719.149414062 546.25 721.024414062 523.75 727.274414062 521.25 c 0
 731.649414062 520 772.274414062 519.375 817.899414062 520 c 2
77.8994140625 317.5 m 0
 152.899414062 392.5 156.649414062 395.625 176.649414062 391.25 c 0
 202.274414062 386.25 211.649414062 376.875 216.649414062 351.25 c 0
 220.399414062 332.5 217.274414062 327.5 166.649414062 276.25 c 2
 112.899414062 221.25 l 1
 162.899414062 171.875 l 2
 190.399414062 144.375 214.774414062 116.875 216.649414062 110.625 c 0
 226.024414062 81.25 187.899414062 43.125 158.524414062 52.5 c 0
 151.649414062 54.375 113.524414062 89.375 73.5244140625 130 c 0
 14.1494140625 190 0.3994140625 207.5 0.3994140625 221.875 c 0
 0.3994140625 236.875 14.7744140625 254.375 77.8994140625 317.5 c 0
359.774414062 378.125 m 0
 388.524414062 407.5 401.649414062 401.25 486.024414062 316.875 c 0
 549.149414062 253.75 562.899414062 236.875 562.899414062 221.875 c 0
 562.899414062 206.875 549.149414062 190 486.024414062 126.875 c 0
 402.274414062 43.125 387.899414062 36.25 358.524414062 63.75 c 0
 331.024414062 89.375 338.524414062 108.125 396.649414062 168.125 c 2
 449.774414062 221.875 l 1
 396.649414062 275.625 l 2
 338.524414062 335.625 332.274414062 351.25 359.774414062 378.125 c 0
EndSplineSet
Validated: 524321
EndChar

StartChar: uniF011
Encoding: 61457 61457 15
Width: 1000
Flags: W
LayerCount: 2
Fore
SplineSet
190.633789062 790 m 0
 206.258789062 798.125 238.758789062 800 390.633789062 800 c 0
 554.383789062 800 574.383789062 798.75 596.883789062 788.125 c 0
 630.633789062 771.875 852.508789062 548.75 865.633789062 517.5 c 0
 873.758789062 497.5 875.008789062 452.5 875.008789062 220.625 c 0
 875.008789062 -86.875 876.258789062 -76.875 828.758789062 -115.625 c 2
 805.008789062 -134.375 l 1
 500.008789062 -134.375 l 1
 195.008789062 -134.375 l 1
 171.258789062 -115.625 l 2
 122.508789062 -75.625 125.008789062 -100 125.008789062 330 c 0
 125.008789062 741.25 125.008789062 736.875 156.883789062 766.875 c 0
 165.008789062 774.375 180.633789062 785 190.633789062 790 c 0
500.008789062 607.5 m 2
 500.008789062 706.25 l 1
 362.508789062 706.25 l 2
 258.133789062 706.25 223.758789062 704.375 221.883789062 698.75 c 0
 220.008789062 694.375 219.383789062 526.25 220.008789062 325 c 2
 221.883789062 -40.625 l 1
 500.008789062 -40.625 l 1
 778.133789062 -40.625 l 1
 780.008789062 191.875 l 1
 781.258789062 424.375 l 1
 675.633789062 426.25 l 1
 570.008789062 428.125 l 1
 546.258789062 446.875 l 2
 504.383789062 481.25 500.008789062 496.25 500.008789062 607.5 c 2
676.883789062 520 m 2
 743.758789062 521.875 l 1
 668.758789062 596.875 l 1
 593.758789062 671.875 l 1
 593.758789062 598.125 l 2
 593.758789062 543.125 595.633789062 523.75 601.883789062 521.25 c 0
 606.258789062 520 640.008789062 519.375 676.883789062 520 c 2
EndSplineSet
Validated: 524321
EndChar

StartChar: uniF00D
Encoding: 61453 61453 16
Width: 1000
LayerCount: 2
Fore
SplineSet
625 487.5 m 1xfe0210
 562.5 487.5 l 1
 562.5 550 l 1
 625 550 l 1
 625 487.5 l 1xfe0210
187.5 425 m 1xfe8010
 187.5 362.5 l 1
 125 362.5 l 1
 125 425 l 1
 187.5 425 l 1xfe8010
500 550 m 1xfe0810
 500 487.5 l 1
 437.5 487.5 l 1
 437.5 550 l 1
 500 550 l 1xfe0810
250 550 m 1xff0010
 250 487.5 l 1
 125 487.5 l 1
 125 550 l 1
 250 550 l 1xff0010
750 112.5 m 1xfe0050
 750 175 l 1
 875 175 l 1
 875 112.5 l 1
 750 112.5 l 1xfe0050
500 362.5 m 1xfe0410
 500 425 l 1
 562.5 425 l 1
 562.5 362.5 l 1
 500 362.5 l 1xfe0410
250 175 m 1xff0010
 250 112.5 l 1
 125 112.5 l 1
 125 175 l 1
 250 175 l 1xff0010
750 550 m 1xfe0090
 750 487.5 l 1
 687.5 487.5 l 1
 687.5 550 l 1
 750 550 l 1xfe0090
875 550 m 1xfe0030
 875 487.5 l 1
 812.5 487.5 l 1
 812.5 550 l 1
 875 550 l 1xfe0030
750 237.5 m 1xfe0050
 750 425 l 1
 875 425 l 1
 875 237.5 l 1
 750 237.5 l 1xfe0050
1000 612.5 m 2
 1000 50 l 2
 1000 15.625 971.875 -12.5 937.5 -12.5 c 2
 62.5 -12.5 l 2
 28.125 -12.5 0 15.625 0 50 c 2
 0 612.5 l 2
 0 646.875 28.125 675 62.5 675 c 2
 937.5 675 l 2
 971.875 675 1000 646.875 1000 612.5 c 2
937.5 612.5 m 1
 62.5 612.5 l 1
 62.5 50 l 1
 937.5 50 l 1
 937.5 612.5 l 1
375 362.5 m 1xfe1010
 375 425 l 1
 437.5 425 l 1
 437.5 362.5 l 1
 375 362.5 l 1xfe1010
375 550 m 1xfe2010
 375 487.5 l 1
 312.5 487.5 l 1
 312.5 550 l 1
 375 550 l 1xfe2010
250 362.5 m 1xfe4010
 250 425 l 1
 312.5 425 l 1
 312.5 362.5 l 1
 250 362.5 l 1xfe4010
312.5 112.5 m 1xfe2090
 312.5 175 l 1
 687.5 175 l 1
 687.5 112.5 l 1
 312.5 112.5 l 1xfe2090
625 362.5 m 1xfe0110
 625 425 l 1
 687.5 425 l 1
 687.5 362.5 l 1
 625 362.5 l 1xfe0110
187.5 300 m 1xfe8010
 187.5 237.5 l 1
 125 237.5 l 1
 125 300 l 1
 187.5 300 l 1xfe8010
500 300 m 1xfe0410
 562.5 300 l 1
 562.5 237.5 l 1
 500 237.5 l 1
 500 300 l 1xfe0410
375 300 m 1xfe1010
 437.5 300 l 1
 437.5 237.5 l 1
 375 237.5 l 1
 375 300 l 1xfe1010
312.5 300 m 1xfe4010
 312.5 237.5 l 1
 250 237.5 l 1
 250 300 l 1
 312.5 300 l 1xfe4010
625 237.5 m 1xfe0110
 625 300 l 1
 687.5 300 l 1
 687.5 237.5 l 1
 625 237.5 l 1xfe0110
EndSplineSet
Validated: 524289
EndChar

StartChar: uniF012
Encoding: 61458 61458 17
Width: 1000
LayerCount: 2
Fore
SplineSet
66.7548828125 727.5 m 0
 83.0048828125 736.25 137.379882812 737.5 501.129882812 737.5 c 0
 968.004882812 737.5 939.254882812 740 979.254882812 691.25 c 2
 998.004882812 667.5 l 1
 998.004882812 300 l 1
 998.004882812 -67.5 l 1
 979.254882812 -91.25 l 2
 939.254882812 -140 968.004882812 -137.5 501.129882812 -137.5 c 0
 34.2548828125 -137.5 63.0048828125 -140 23.0048828125 -91.25 c 2
 4.2548828125 -67.5 l 1
 2.3798828125 286.25 l 2
 1.1298828125 516.875 3.0048828125 648.125 6.7548828125 662.5 c 0
 14.2548828125 686.875 37.3798828125 712.5 66.7548828125 727.5 c 0
906.129882812 398.125 m 1
 904.254882812 640.625 l 1
 502.379882812 642.5 l 2
 184.254882812 643.75 99.8798828125 642.5 98.0048828125 636.25 c 0
 96.1298828125 631.875 95.5048828125 477.5 96.1298828125 293.75 c 2
 98.0048828125 -40.625 l 1
 131.754882812 -42.5 l 1
 165.504882812 -44.375 l 1
 363.004882812 151.875 l 2
 471.754882812 260 569.254882812 353.125 580.504882812 358.75 c 0
 604.879882812 371.25 644.879882812 371.875 671.754882812 360 c 0
 683.004882812 355 740.504882812 307.5 799.879882812 253.75 c 2
 907.379882812 155.625 l 1
 906.129882812 398.125 l 1
773.629882812 150.625 m 2
 699.879882812 217.5 635.504882812 272.5 631.129882812 273.75 c 0
 626.754882812 274.375 551.129882812 203.75 463.629882812 115.625 c 2
 304.254882812 -43.75 l 1
 604.254882812 -42.5 l 1
 904.254882812 -40.625 l 1
 906.129882812 -5.625 l 1
 908.004882812 28.75 l 1
 773.629882812 150.625 l 2
271.129882812 543.125 m 0
 304.254882812 553.125 355.504882812 546.875 382.379882812 528.75 c 0
 419.254882812 504.375 435.504882812 473.125 435.504882812 425 c 0
 435.504882812 376.25 419.254882812 345.625 380.504882812 320 c 0
 345.504882812 296.875 284.879882812 295.625 249.254882812 318.125 c 0
 201.754882812 347.5 179.879882812 405.625 194.254882812 461.25 c 0
 203.004882812 493.125 241.129882812 534.375 271.129882812 543.125 c 0
334.879882812 446.25 m 0
 329.879882812 451.875 319.879882812 456.25 313.629882812 456.25 c 0
 298.629882812 456.25 282.379882812 440 282.379882812 425 c 0
 282.379882812 410 298.629882812 393.75 313.629882812 393.75 c 0
 340.504882812 393.75 354.254882812 427.5 334.879882812 446.25 c 0
EndSplineSet
Validated: 524321
EndChar

StartChar: uniF013
Encoding: 61459 61459 18
Width: 1000
LayerCount: 2
Fore
SplineSet
190.19140625 790 m 0x7f
 205.81640625 798.125 239.56640625 800 405.81640625 800 c 0
 585.19140625 800 605.19140625 798.75 627.69140625 788.125 c 0
 661.44140625 772.5 852.06640625 580 865.19140625 548.75 c 0
 873.31640625 528.75 874.56640625 481.875 874.56640625 236.25 c 0
 874.56640625 -88.125 875.81640625 -76.25 828.31640625 -115 c 0
 808.94140625 -131.25 798.31640625 -134.375 762.06640625 -136.25 c 0
 722.69140625 -138.75 717.69140625 -137.5 703.31640625 -123.125 c 0
 683.94140625 -103.75 682.69140625 -81.875 698.94140625 -61.875 c 0
 707.69140625 -51.25 718.94140625 -46.25 743.94140625 -43.75 c 2
 777.69140625 -40.625 l 1
 779.56640625 237.5 l 1
 780.81640625 515.625 l 1
 685.81640625 610.625 l 1
 590.19140625 706.25 l 1
 529.56640625 706.25 l 1
 468.94140625 706.25 l 1
 483.94140625 690.625 l 2
 503.94140625 671.25 503.94140625 647.5 483.94140625 628.125 c 0
 472.06640625 615.625 462.69140625 612.5 437.06640625 612.5 c 0
 411.44140625 612.5 402.06640625 615.625 390.19140625 628.125 c 0
 370.19140625 647.5 370.19140625 671.25 390.19140625 691.25 c 2
 405.81640625 706.875 l 1
 313.31640625 705 l 1
 221.44140625 703.125 l 1
 219.56640625 335.625 l 1
 218.31640625 -32.5 l 1
 233.94140625 -51.25 l 2
 258.94140625 -80.625 252.69140625 -110.625 218.94140625 -124.375 c 0
 195.81640625 -134.375 170.19140625 -122.5 145.19140625 -89.375 c 2
 127.69140625 -66.875 l 1
 125.81640625 318.125 l 2
 124.56640625 569.375 126.44140625 710.625 130.19140625 725 c 0
 137.69140625 749.375 160.81640625 775 190.19140625 790 c 0x7f
515.19140625 596.875 m 0
 527.06640625 609.375 536.44140625 612.5 562.06640625 612.5 c 0
 587.69140625 612.5 597.06640625 609.375 608.94140625 596.875 c 0
 628.94140625 577.5 628.94140625 553.75 608.94140625 534.375 c 0
 587.06640625 511.875 537.06640625 511.875 515.19140625 534.375 c 0
 506.44140625 542.5 499.56640625 556.875 499.56640625 565.625 c 0
 499.56640625 574.375 506.44140625 588.75 515.19140625 596.875 c 0
390.19140625 503.125 m 0
 402.06640625 515.625 411.44140625 518.75 437.06640625 518.75 c 0
 462.69140625 518.75 472.06640625 515.625 483.94140625 503.125 c 0
 503.94140625 483.75 503.94140625 460 483.94140625 440.625 c 0
 462.06640625 418.125 412.06640625 418.125 390.19140625 440.625 c 0
 381.44140625 448.75 374.56640625 463.125 374.56640625 471.875 c 0
 374.56640625 480.625 381.44140625 495 390.19140625 503.125 c 0
515.19140625 409.375 m 0
 527.06640625 421.875 536.44140625 425 562.06640625 425 c 0
 587.69140625 425 597.06640625 421.875 608.94140625 409.375 c 0
 628.94140625 390 628.94140625 366.25 608.94140625 346.875 c 0
 587.06640625 324.375 537.06640625 324.375 515.19140625 346.875 c 0
 506.44140625 355 499.56640625 369.375 499.56640625 378.125 c 0
 499.56640625 386.875 506.44140625 401.25 515.19140625 409.375 c 0
390.19140625 315.625 m 0
 402.06640625 328.125 411.44140625 331.25 437.06640625 331.25 c 0
 462.69140625 331.25 472.06640625 328.125 483.94140625 315.625 c 0
 503.94140625 296.25 503.94140625 272.5 483.94140625 253.125 c 0
 462.06640625 230.625 412.06640625 230.625 390.19140625 253.125 c 0
 381.44140625 261.25 374.56640625 275.625 374.56640625 284.375 c 0
 374.56640625 293.125 381.44140625 307.5 390.19140625 315.625 c 0
515.19140625 221.875 m 0
 527.06640625 234.375 536.44140625 237.5 562.06640625 237.5 c 0
 587.69140625 237.5 597.06640625 234.375 608.94140625 221.875 c 0
 628.94140625 202.5 628.94140625 178.75 608.94140625 159.375 c 0
 587.06640625 136.875 537.06640625 136.875 515.19140625 159.375 c 0
 506.44140625 167.5 499.56640625 181.875 499.56640625 190.625 c 0
 499.56640625 199.375 506.44140625 213.75 515.19140625 221.875 c 0
408.94140625 134.375 m 0
 422.69140625 141.875 440.81640625 143.75 475.81640625 142.5 c 0
 518.31640625 140.625 525.81640625 138.75 547.06640625 121.875 c 0
 590.19140625 86.875 593.31640625 74.375 593.31640625 -55 c 0
 593.31640625 -168.125 593.31640625 -169.375 577.69140625 -184.375 c 0
 563.31640625 -199.375 560.19140625 -200 468.31640625 -200 c 0xbf
 376.44140625 -200 373.31640625 -199.375 358.94140625 -184.375 c 0
 343.31640625 -169.375 343.31640625 -168.125 343.31640625 -56.25 c 0
 343.31640625 83.75 349.56640625 102.5 408.94140625 134.375 c 0
498.31640625 -29.375 m 1
 496.44140625 46.875 l 1
 471.44140625 48.75 l 2
 457.06640625 50 443.94140625 48.75 441.44140625 46.25 c 0
 438.94140625 43.75 437.06640625 8.125 437.06640625 -32.5 c 2
 437.06640625 -106.25 l 1
 468.31640625 -106.25 l 1
 500.19140625 -106.25 l 1
 498.31640625 -29.375 l 1
EndSplineSet
Validated: 524321
EndChar

StartChar: uniF014
Encoding: 61460 61460 19
Width: 1000
LayerCount: 2
Fore
SplineSet
656.25 737.5 m 1
 875 518.75 l 1
 875 -75 l 2
 875 -109.517578125 847.017578125 -137.5 812.5 -137.5 c 2
 187.5 -137.5 l 2
 152.982421875 -137.5 125 -109.517578125 125 -75 c 2
 125 675 l 2
 125 709.517578125 152.982421875 737.5 187.5 737.5 c 2
 656.25 737.5 l 1
187.5 675 m 1
 187.5 88.75 l 1
 206.329101562 104.982421875 227.374023438 118.451171875 250 128.75 c 0
 264.036132812 135.751953125 278.431640625 142.009765625 293.125 147.5 c 0
 300 158.75 318.75 200 350 262.5 c 0
 376.770507812 316.32421875 399.946289062 371.862304688 419.375 428.75 c 0
 408.967773438 465.544921875 401.856445312 503.193359375 398.125 541.25 c 0
 394.600585938 571.967773438 396.50390625 603.06640625 403.75 633.125 c 0
 406.061523438 643.947265625 410.998046875 654.03515625 418.125 662.5 c 0
 423.307617188 668.372070312 430.013671875 672.698242188 437.5 675 c 1
 187.5 675 l 1
463.75 375 m 2
 464.375 375.625 l 1
 449.358398438 326.241210938 430.336914062 278.165039062 407.5 231.875 c 0
 383.125 181.25 332.682617188 138.53515625 369.375 153.75 c 0
 406.067382812 168.96484375 443.889648438 181.293945312 482.5 190.625 c 0
 518.75 198.75 555.625 205.625 595.625 211.25 c 1
 574.0390625 218.288085938 554.069335938 229.547851562 536.875 244.375 c 0
 503.444335938 282.190429688 478.509765625 326.732421875 463.75 375 c 2
812.5 -75 m 1
 811.875 -75 l 1
 811.875 115 l 1
 788.125 115 l 2
 762.14453125 117.64453125 736.430664062 122.453125 711.25 129.375 c 0
 681.39453125 137.901367188 652.328125 148.984375 624.375 162.5 c 0
 594.375 160 563.125 156.25 531.875 150 c 0
 500.625 143.75 470 137.5 441.875 129.375 c 2
 415.625 120.625 l 2
 401.25 115.625 384.375 109.375 365 101.25 c 0
 335.423828125 46.4716796875 297.9375 -3.6494140625 253.75 -47.5 c 0
 240.560546875 -59.6611328125 225.038085938 -69.0166015625 208.125 -75 c 1
 211.655273438 -75.408203125 215.219726562 -75.408203125 218.75 -75 c 2
 812.5 -75 l 1
812.5 228.75 m 1
 812.5 229.375 l 1
 812.5 487.5 l 1
 625 675 l 1
 467.5 675 l 1
 481.6484375 675.682617188 495.44921875 670.479492188 505.625 660.625 c 0
 517.859375 645.108398438 522.451171875 624.905273438 518.125 605.625 c 0
 519.327148438 590.0234375 519.327148438 574.3515625 518.125 558.75 c 0
 516.737304688 516.852539062 512.561523438 475.092773438 505.625 433.75 c 0
 521.388671875 379.837890625 548.92578125 330.099609375 586.25 288.125 c 0
 604.2109375 270.760742188 625.459960938 257.161132812 648.75 248.125 c 0
 674.2578125 251.265625 699.924804688 252.935546875 725.625 253.125 c 0
 741.424804688 252.244140625 757.11328125 249.943359375 772.5 246.25 c 0
 786.350585938 241.677734375 799.7421875 235.818359375 812.5 228.75 c 1
EndSplineSet
Validated: 524325
EndChar

StartChar: uniF015
Encoding: 61461 61461 20
Width: 1000
LayerCount: 2
Fore
SplineSet
103.774414062 727.5 m 0
 131.274414062 741.875 471.274414062 742.5 505.649414062 728.125 c 0
 521.274414062 721.25 597.524414062 649.375 738.774414062 507.5 c 0
 931.899414062 313.75 949.399414062 294.375 956.899414062 266.875 c 0
 972.524414062 208.125 968.774414062 202.5 770.024414062 3.75 c 0
 615.024414062 -151.875 589.399414062 -175 565.024414062 -181.875 c 0
 508.774414062 -197.5 505.649414062 -195 268.774414062 40.625 c 0
 144.399414062 163.75 51.2744140625 261.25 46.2744140625 273.125 c 0
 34.3994140625 302.5 34.3994140625 641.875 46.8994140625 670.625 c 0
 56.2744140625 693.125 76.2744140625 713.75 103.774414062 727.5 c 0
669.399414062 440.625 m 1
 466.274414062 643.75 l 1
 303.149414062 643.75 l 2
 213.774414062 643.75 138.149414062 641.875 136.274414062 639.375 c 0
 133.774414062 637.5 131.899414062 561.875 131.899414062 472.5 c 2
 131.899414062 309.375 l 1
 335.024414062 106.25 l 1
 538.149414062 -96.875 l 1
 705.024414062 70.625 l 1
 872.524414062 237.5 l 1
 669.399414062 440.625 l 1
320.024414062 478.75 m 0
 361.274414062 501.875 413.149414062 471.25 413.149414062 424.375 c 0
 413.149414062 393.125 382.524414062 362.5 350.649414062 362.5 c 0
 288.774414062 362.5 265.649414062 448.75 320.024414062 478.75 c 0
EndSplineSet
Validated: 524321
EndChar

StartChar: uniF016
Encoding: 61462 61462 21
Width: 1000
LayerCount: 2
Fore
SplineSet
65.484375 728.125 m 0
 81.109375 736.25 106.109375 737.5 225.484375 736.25 c 2
 366.734375 734.375 l 1
 388.609375 717.5 l 2
 400.484375 708.125 425.484375 680.625 442.984375 656.875 c 2
 475.484375 613.125 l 1
 702.984375 611.25 l 1
 929.859375 609.375 l 1
 953.609375 590.625 l 2
 1001.734375 551.25 1000.484375 565 998.609375 230 c 2
 996.734375 -67.5 l 1
 977.984375 -91.25 l 2
 937.984375 -140 966.734375 -137.5 499.859375 -137.5 c 0
 32.984375 -137.5 61.734375 -140 21.734375 -91.25 c 2
 2.984375 -67.5 l 1
 1.109375 286.25 l 2
 -0.140625 516.875 1.734375 648.125 5.484375 662.5 c 0
 12.359375 686.875 36.109375 712.5 65.484375 728.125 c 0
EndSplineSet
Validated: 524321
EndChar

StartChar: uniF017
Encoding: 61463 61463 22
Width: 1000
LayerCount: 2
Fore
SplineSet
65.484375 727.5 m 0
 80.484375 735.625 107.984375 737.5 209.234375 737.5 c 0
 363.609375 736.875 366.734375 736.25 421.109375 665.625 c 2
 459.859375 615.625 l 1
 694.859375 612.5 l 1
 929.859375 609.375 l 1
 953.609375 590.625 l 2
 1001.734375 551.25 1000.484375 565 998.609375 230 c 2
 996.734375 -67.5 l 1
 977.984375 -91.25 l 2
 937.984375 -140 966.734375 -137.5 499.859375 -137.5 c 0
 32.984375 -137.5 61.734375 -140 21.734375 -91.25 c 2
 2.984375 -67.5 l 1
 1.109375 286.25 l 2
 -0.140625 516.875 1.734375 648.125 5.484375 662.5 c 0
 12.984375 686.875 36.109375 712.5 65.484375 727.5 c 0
680.484375 315.625 m 0
 627.984375 363.75 582.359375 403.75 578.609375 405 c 0
 564.859375 408.125 562.359375 397.5 562.359375 333.125 c 2
 562.359375 268.75 l 1
 421.734375 268.75 l 1
 280.484375 268.75 l 1
 265.484375 253.125 l 2
 245.484375 233.75 245.484375 210 265.484375 190.625 c 2
 280.484375 175 l 1
 421.109375 175 l 1
 561.734375 175 l 1
 563.609375 108.125 l 2
 565.484375 51.25 567.359375 40.625 575.484375 40.625 c 0
 586.734375 40.625 774.859375 211.875 774.859375 221.875 c 0
 774.859375 225.625 732.359375 267.5 680.484375 315.625 c 0
EndSplineSet
Validated: 524321
EndChar

StartChar: uniF018
Encoding: 61464 61464 23
Width: 1000
LayerCount: 2
Fore
SplineSet
441.25 731.25 m 0
 455 734.375 487.5 736.25 513.75 735 c 0
 606.25 730.625 681.25 680 723.75 595 c 0
 745.625 550 746.875 544.375 746.875 488.125 c 0
 746.875 433.75 745 424.375 727.5 386.875 c 0
 716.25 363.75 697.5 334.375 685 320.625 c 2
 662.5 295.625 l 1
 699.375 273.125 l 2
 746.25 243.75 803.75 182.5 830 133.125 c 0
 851.875 91.875 875 11.25 875 -23.125 c 0
 875 -50.625 851.875 -75 825.625 -75 c 0
 803.75 -75 781.25 -50.625 781.25 -25.625 c 0
 780.625 30 746.25 103.75 696.875 153.75 c 0
 586.25 265.625 415 265.625 302.5 153.125 c 0
 257.5 108.75 233.125 60.625 221.875 -5.625 c 0
 212.5 -56.875 199.375 -75 170.625 -75 c 0
 148.125 -75 125 -48.75 125 -23.125 c 0
 125 11.25 148.125 91.875 170 133.125 c 0
 196.25 182.5 253.75 243.75 300.625 273.125 c 2
 337.5 295.625 l 1
 315 320.625 l 2
 302.5 334.375 283.75 363.75 272.5 386.875 c 0
 255 424.375 253.125 433.75 253.125 487.5 c 0
 253.125 541.25 255 550.625 273.125 588.75 c 0
 283.75 611.875 304.375 643.125 318.125 658.125 c 0
 345.625 687.5 401.875 721.25 441.25 731.25 c 0
553.125 633.125 m 0
 493.125 653.75 433.75 640.625 390.625 596.875 c 0
 329.375 535.625 329.375 439.375 390.625 378.125 c 0
 451.875 316.875 548.125 316.875 609.375 378.125 c 0
 637.5 406.25 656.25 450 656.25 487.5 c 0
 656.25 549.375 610.625 613.75 553.125 633.125 c 0
EndSplineSet
Validated: 524321
EndChar

StartChar: uniF019
Encoding: 61465 61465 24
Width: 1000
LayerCount: 2
Fore
SplineSet
312.5 425 m 1xe5c8
 437.5 425 l 1
 468.75 393.75 l 1
 468.75 81.25 l 1
 437.5 50 l 1
 312.5 50 l 1
 281.25 81.25 l 1
 281.25 393.75 l 1
 312.5 425 l 1xe5c8
406.25 112.5 m 1
 406.25 362.5 l 1
 343.75 362.5 l 1
 343.75 112.5 l 1
 406.25 112.5 l 1
798.125 565.625 m 1
 796.875 565.625 l 1
 810.625 480 846.875 433.125 906.25 425 c 2
 906.25 -137.5 l 2
 905.625 -154.375 900 -168.125 886.875 -180.625 c 0
 873.75 -193.125 860.625 -198.75 843.75 -200 c 2
 156.25 -200 l 2
 139.375 -199.375 125.625 -193.75 113.125 -180.625 c 0
 100.625 -167.5 95 -154.375 93.75 -137.5 c 2
 93.75 425 l 2
 153.125 432.5 190.625 479.375 203.125 565.625 c 0
 216.875 651.25 221.875 729.375 218.75 800 c 1
 406.875 800 l 1xeed8
 406.875 783.125 415 769.375 429.375 756.875 c 0
 445 743.75 468.75 738.125 500 738.125 c 0xf6d8
 531.25 738.125 555 744.375 570.625 756.875 c 0
 586.875 770 595 783.125 595 800 c 1
 781.25 800 l 1xeed8
 778.75 730 784.375 651.875 798.125 565.625 c 1
843.75 -137.5 m 1
 843.75 -138.125 l 1
 843.75 361.875 l 2
 782.5 401.25 751.875 475.625 739.375 526.25 c 0
 726.875 578.125 720 648.75 718.75 737.5 c 2xeed8
 656.25 737.5 l 1xece8
 657.5 688.75 648.75 645.625 626.25 608.75 c 0
 603.75 570.625 562.5 551.25 501.25 550 c 0xf4e8
 440 553.125 398.75 572.5 376.25 608.75 c 0
 353.75 645.625 342.5 688.75 343.75 737.5 c 1xede8
 281.25 737.5 l 1
 283.125 643.75 278.75 565.625 263.75 503.125 c 0
 248.75 440.625 211.875 393.75 156.25 362.5 c 2
 156.25 -137.5 l 1
 843.75 -137.5 l 1
562.5 425 m 1
 687.5 425 l 1
 718.75 393.75 l 1
 718.75 81.25 l 1
 687.5 50 l 1
 562.5 50 l 1
 531.25 81.25 l 1
 531.25 393.75 l 1
 562.5 425 l 1
656.25 112.5 m 1xe4e8
 656.25 362.5 l 1
 593.75 362.5 l 1
 593.75 112.5 l 1
 656.25 112.5 l 1xe4e8
EndSplineSet
Validated: 524325
EndChar

StartChar: uniF01F
Encoding: 61471 61471 25
Width: 1000
LayerCount: 2
Fore
SplineSet
424.375 553.75 m 0
 438.75 559.375 468.125 561.875 506.25 560.625 c 0
 555.625 559.375 571.875 556.25 601.875 542.5 c 0
 621.875 533.125 647.5 517.5 658.125 508.75 c 0
 690 481.875 723.75 433.125 735 396.25 c 2
 746.25 362.5 l 1
 857.5 362.5 l 2
 968.125 362.5 969.375 362.5 984.375 346.875 c 0
 993.125 338.75 1000 324.375 1000 315.625 c 0
 1000 306.875 993.125 292.5 984.375 284.375 c 0
 969.375 268.75 968.125 268.75 857.5 268.75 c 2
 745.625 268.75 l 1
 738.125 242.5 l 2
 719.375 178.75 669.375 121.25 606.25 91.25 c 0
 568.75 73.125 560.625 71.875 500 71.875 c 0
 439.375 71.875 431.25 73.125 393.75 91.25 c 0
 330 121.875 280.625 178.75 261.875 242.5 c 2
 254.375 268.75 l 1
 142.5 268.75 l 2
 31.875 268.75 30.625 268.75 15.625 284.375 c 0
 6.875 292.5 0 306.875 0 315.625 c 0
 0 324.375 6.875 338.75 15.625 346.875 c 0
 30.625 362.5 31.875 362.5 142.5 362.5 c 2
 254.375 362.5 l 1
 261.875 389.375 l 2
 284.375 465 340 521.25 424.375 553.75 c 0
561.25 458.75 m 0
 531.875 471.25 466.25 471.25 437.5 458.75 c 0
 409.375 446.25 377.5 415.625 360.625 384.375 c 0
 341.875 349.375 341.875 281.875 360.625 246.875 c 0
 390.625 191.25 437.5 162.5 500 162.5 c 0
 545 162.5 576.875 174.375 605 201.875 c 0
 640 235 652.5 265.625 652.5 315.625 c 0
 652.5 348.125 649.375 365.625 639.375 384.375 c 0
 622.5 416.25 590.625 446.875 561.25 458.75 c 0
EndSplineSet
Validated: 524321
EndChar

StartChar: uniF020
Encoding: 61472 61472 26
Width: 1000
LayerCount: 2
Fore
SplineSet
215.703125 728.125 m 0xe8
 270.703125 747.5 321.953125 736.25 363.203125 694.375 c 0
 403.203125 654.375 415.078125 609.375 399.453125 554.375 c 0
 391.953125 527.5 356.953125 485 330.078125 471.25 c 0
 312.578125 462.5 312.578125 461.25 312.578125 405.625 c 0
 312.578125 353.75 313.828125 349.375 323.828125 353.75 c 0
 329.453125 356.875 405.078125 360.625 490.703125 362.5 c 0
 576.953125 364.375 651.953125 368.125 658.203125 371.25 c 0
 675.078125 379.375 687.578125 408.75 687.578125 440.625 c 0xea
 687.578125 461.875 685.078125 468.75 678.203125 468.75 c 0
 672.578125 468.75 655.078125 481.875 638.828125 498.75 c 0
 595.078125 542.5 584.453125 588.125 603.828125 645.625 c 0
 620.703125 695.625 680.703125 737.5 734.453125 737.5 c 0
 806.953125 737.5 875.078125 668.75 875.078125 595.625 c 0xe1
 875.078125 549.375 840.078125 493.125 798.828125 471.25 c 0
 783.203125 463.125 781.328125 458.75 781.328125 432.5 c 0
 781.328125 387.5 764.453125 345 734.453125 315.625 c 0
 692.578125 273.125 670.703125 268.75 505.703125 268.75 c 0
 408.203125 268.75 358.203125 266.25 346.953125 261.25 c 0
 323.203125 250.625 312.578125 225 312.578125 178.75 c 0xea
 312.578125 140 313.828125 137.5 330.078125 128.75 c 0
 372.578125 106.875 406.328125 51.25 406.328125 3.125 c 0
 406.328125 -71.25 340.078125 -137.5 265.703125 -137.5 c 0
 191.328125 -137.5 125.078125 -71.25 125.078125 3.125 c 0xf4
 125.078125 51.25 158.828125 106.875 201.328125 128.75 c 2
 218.828125 138.125 l 1
 218.828125 299.375 l 1
 218.828125 461.25 l 1
 197.578125 475 l 1
 115.703125 525 100.703125 624.375 164.453125 691.875 c 0
 178.828125 706.875 201.953125 723.125 215.703125 728.125 c 0xe8
296.953125 628.125 m 0
 288.828125 636.875 274.453125 643.75 265.703125 643.75 c 0
 256.953125 643.75 242.578125 636.875 234.453125 628.125 c 0
 225.703125 620 218.828125 605.625 218.828125 596.875 c 0xe8
 218.828125 576.25 245.078125 550 265.703125 550 c 0
 286.328125 550 312.578125 576.25 312.578125 596.875 c 0xe4
 312.578125 605.625 305.703125 620 296.953125 628.125 c 0
765.703125 628.125 m 0
 757.578125 636.875 743.203125 643.75 734.453125 643.75 c 0
 725.703125 643.75 711.328125 636.875 703.203125 628.125 c 0
 694.453125 620 687.578125 605.625 687.578125 596.875 c 0xe2
 687.578125 576.25 713.828125 550 734.453125 550 c 0
 743.203125 550 757.578125 556.875 765.703125 565.625 c 0
 774.453125 573.75 781.328125 588.125 781.328125 596.875 c 0xe1
 781.328125 605.625 774.453125 620 765.703125 628.125 c 0
296.953125 34.375 m 0
 288.828125 43.125 274.453125 50 265.703125 50 c 0
 256.953125 50 242.578125 43.125 234.453125 34.375 c 0
 225.703125 26.25 218.828125 11.875 218.828125 3.125 c 0
 218.828125 -17.5 245.078125 -43.75 265.703125 -43.75 c 0
 274.453125 -43.75 288.828125 -36.875 296.953125 -28.125 c 0
 305.703125 -20 312.578125 -5.625 312.578125 3.125 c 0xf4
 312.578125 11.875 305.703125 26.25 296.953125 34.375 c 0
EndSplineSet
Validated: 524321
EndChar

StartChar: uniF023
Encoding: 61475 61475 27
Width: 1000
LayerCount: 2
Fore
SplineSet
184.375 728.125 m 0x54
 239.375 747.5 290.625 736.25 331.875 694.375 c 0
 388.125 638.75 390 560.625 336.875 503.125 c 0
 312.5 476.25 311.875 475.625 321.25 457.5 c 0
 338.75 423.125 388.75 380 436.875 356.875 c 0
 480.625 336.25 488.75 335 556.875 332.5 c 2x54
 630 330 l 1
 639.375 348.125 l 2
 661.875 391.25 716.875 425 765.625 425 c 0
 840 425 906.25 358.75 906.25 284.375 c 0
 906.25 210 840 143.75 765.625 143.75 c 0xb4
 717.5 143.75 661.875 177.5 640 220 c 0
 631.25 237.5 630.625 237.5 569.375 237.5 c 0
 466.875 237.5 386.875 264.375 315.625 321.875 c 2
 281.25 350 l 1
 281.25 243.75 l 1
 281.25 138.125 l 1x4c
 298.75 128.75 l 2
 326.875 114.375 361.25 71.875 369.375 42.5 c 0
 397.5 -63.125 300.625 -160 195 -131.875 c 0
 140.625 -116.875 93.75 -54.375 93.75 3.125 c 0x54
 93.75 51.25 127.5 106.875 170 128.75 c 2
 187.5 138.125 l 1
 187.5 300 l 1
 187.5 461.875 l 1x4c
 170 471.25 l 2
 127.5 493.125 93.75 548.75 93.75 596.875 c 0
 93.75 650.625 135 710.625 184.375 728.125 c 0x54
265.625 628.125 m 0
 257.5 636.875 243.125 643.75 234.375 643.75 c 0
 225.625 643.75 211.25 636.875 203.125 628.125 c 0
 194.375 620 187.5 605.625 187.5 596.875 c 0x14
 187.5 576.25 213.75 550 234.375 550 c 0
 255 550 281.25 576.25 281.25 596.875 c 0x0c
 281.25 605.625 274.375 620 265.625 628.125 c 0
796.875 315.625 m 0
 788.75 324.375 774.375 331.25 765.625 331.25 c 0
 756.875 331.25 742.5 324.375 734.375 315.625 c 0
 725.625 307.5 718.75 293.125 718.75 284.375 c 0
 718.75 275.625 725.625 261.25 734.375 253.125 c 0
 742.5 244.375 756.875 237.5 765.625 237.5 c 0xa4
 786.25 237.5 812.5 263.75 812.5 284.375 c 0
 812.5 293.125 805.625 307.5 796.875 315.625 c 0
265.625 34.375 m 0
 257.5 43.125 243.125 50 234.375 50 c 0
 225.625 50 211.25 43.125 203.125 34.375 c 0
 194.375 26.25 187.5 11.875 187.5 3.125 c 0x14
 187.5 -17.5 213.75 -43.75 234.375 -43.75 c 0
 243.125 -43.75 257.5 -36.875 265.625 -28.125 c 0
 274.375 -20 281.25 -5.625 281.25 3.125 c 0x0c
 281.25 11.875 274.375 26.25 265.625 34.375 c 0
EndSplineSet
Validated: 524321
EndChar

StartChar: uniF024
Encoding: 61476 61476 28
Width: 1000
LayerCount: 2
Fore
SplineSet
470.625 725.625 m 0
 477.5 731.875 491.25 737.5 500 737.5 c 0
 534.375 737.5 556.25 694.375 543.75 650.625 c 0
 529.375 599.375 470.625 599.375 456.25 650.625 c 0
 448.125 678.125 454.375 710.625 470.625 725.625 c 0
15.625 596.875 m 2
 38.125 619.375 58.125 616.875 92.5 586.25 c 0
 139.375 543.125 358.75 335.625 366.875 325 c 0
 371.25 320 374.375 308.75 374.375 300 c 0
 374.375 291.25 371.25 280 366.875 275 c 0
 358.75 264.375 139.375 56.875 92.5 13.75 c 0
 58.125 -16.875 38.125 -19.375 15.625 3.125 c 2
 0 18.125 l 1
 0 300 l 1
 0 581.875 l 1
 15.625 596.875 l 2
256.25 300 m 0
 256.25 301.875 220 338.125 175 380.625 c 2
 93.75 457.5 l 1
 93.75 300 l 1
 93.75 142.5 l 1
 175 219.375 l 2
 220 261.875 256.25 298.125 256.25 300 c 0
904.375 583.125 m 0
 941.875 616.875 961.25 620.625 984.375 596.875 c 2
 1000 581.875 l 1
 1000 300 l 1
 1000 18.125 l 1
 984.375 3.125 l 2
 961.25 -20.625 941.875 -16.875 904.375 17.5 c 0
 843.75 73.125 640.625 265.625 633.125 275 c 0
 628.75 280 625.625 291.25 625.625 300 c 0
 625.625 308.75 628.75 320 633.125 325 c 0
 640.625 334.375 843.75 526.875 904.375 583.125 c 0
905 222.5 m 2
 905.625 265 905.625 335 905 377.5 c 2
 903.125 454.375 l 1
 821.875 377.5 l 1
 740.625 300 l 1
 821.875 222.5 l 1
 903.125 145.625 l 1
 905 222.5 l 2
470.625 538.125 m 0
 477.5 544.375 491.25 550 500 550 c 0
 534.375 550 556.25 506.875 543.75 463.125 c 0
 529.375 411.875 470.625 411.875 456.25 463.125 c 0
 448.125 490.625 454.375 523.125 470.625 538.125 c 0
470.625 350.625 m 0
 477.5 356.875 491.25 362.5 500 362.5 c 0
 534.375 362.5 556.25 319.375 543.75 275.625 c 0
 529.375 224.375 470.625 224.375 456.25 275.625 c 0
 448.125 303.125 454.375 335.625 470.625 350.625 c 0
470.625 163.125 m 0
 477.5 169.375 491.25 175 500 175 c 0
 534.375 175 556.25 131.875 543.75 88.125 c 0
 529.375 36.875 470.625 36.875 456.25 88.125 c 0
 448.125 115.625 454.375 148.125 470.625 163.125 c 0
470.625 -24.375 m 0
 510.625 12.5 561.25 -38.75 543.75 -99.375 c 0
 529.375 -150.625 470.625 -150.625 456.25 -99.375 c 0
 448.125 -71.875 454.375 -39.375 470.625 -24.375 c 0
EndSplineSet
Validated: 524321
EndChar

StartChar: uniF026
Encoding: 61478 61478 29
Width: 1000
LayerCount: 2
Fore
SplineSet
415.315429688 793.125 m 0
 457.190429688 801.25 575.940429688 796.875 618.440429688 785.625 c 0
 749.065429688 750 848.440429688 678.75 918.440429688 570.625 c 0
 974.065429688 485.625 996.565429688 408.75 996.565429688 300 c 0
 996.565429688 159.375 949.065429688 43.125 852.815429688 -53.125 c 0
 756.565429688 -149.375 640.315429688 -196.875 499.690429688 -196.875 c 0
 359.065429688 -196.875 242.815429688 -149.375 146.565429688 -53.125 c 0
 50.3154296875 43.75 2.8154296875 159.375 3.4404296875 300 c 0
 3.4404296875 413.125 26.5654296875 492.5 87.1904296875 580.625 c 0
 162.190429688 691.25 277.190429688 766.25 415.315429688 793.125 c 0
584.065429688 696.875 m 0
 447.815429688 725.625 316.565429688 685.625 215.315429688 585 c 0
 174.690429688 545 158.440429688 523.125 137.815429688 481.25 c 0
 79.0654296875 360.625 79.0654296875 238.75 137.815429688 118.75 c 0
 189.690429688 13.125 300.315429688 -73.125 415.315429688 -96.875 c 0
 506.565429688 -116.25 593.440429688 -104.375 680.940429688 -61.875 c 0
 755.315429688 -25 824.690429688 44.375 861.565429688 118.75 c 0
 920.315429688 239.375 920.315429688 360.625 861.565429688 481.25 c 0
 809.690429688 586.875 699.065429688 673.125 584.065429688 696.875 c 0
472.815429688 541.25 m 0
 487.190429688 551.875 512.190429688 551.875 526.565429688 541.25 c 0
 544.690429688 527.5 549.690429688 496.25 549.690429688 393.75 c 0
 549.690429688 265.625 540.940429688 238.125 499.690429688 238.125 c 0
 458.440429688 238.125 449.690429688 265.625 449.690429688 393.75 c 0
 449.690429688 496.25 454.690429688 527.5 472.815429688 541.25 c 0
469.065429688 166.25 m 0
 510.315429688 189.375 562.190429688 158.75 562.190429688 111.875 c 0
 562.190429688 80.625 531.565429688 50 499.690429688 50 c 0
 437.815429688 50 414.690429688 136.25 469.065429688 166.25 c 0
EndSplineSet
Validated: 524321
EndChar

StartChar: uniF027
Encoding: 61479 61479 30
Width: 1000
LayerCount: 2
Fore
SplineSet
415.625 793.125 m 0
 518.125 811.875 649.375 789.375 743.125 736.875 c 0
 874.375 663.125 966.25 531.875 993.125 379.375 c 0
 1002.5 326.25 987.5 300 947.5 300 c 0
 923.75 300 908.75 324.375 897.5 378.125 c 0
 860.625 565 689.375 706.25 500 706.25 c 0
 398.75 706.25 297.5 665 221.25 592.5 c 0
 195.625 568.125 175 545.625 175 541.875 c 0
 175 538.125 193.75 516.25 216.25 492.5 c 0
 278.75 428.125 278.75 428.125 128.125 428.125 c 2
 3.125 428.125 l 1
 3.125 553.125 l 2
 3.125 702.5 3.125 703.125 65 643.75 c 2
 105 605.625 l 1
 126.875 632.5 l 2
 188.75 707.5 305.625 772.5 415.625 793.125 c 0
473.125 541.25 m 0
 487.5 551.875 512.5 551.875 526.875 541.25 c 0
 545 527.5 550 496.25 550 393.75 c 0
 550 265.625 541.25 238.125 500 238.125 c 0
 458.75 238.125 450 265.625 450 393.75 c 0
 450 496.25 455 527.5 473.125 541.25 c 0
26.25 295.625 m 0
 65 311.25 90 286.875 102.5 221.875 c 0
 138.75 35.625 310.625 -106.25 500 -106.25 c 0
 601.25 -106.25 702.5 -65 778.75 7.5 c 0
 804.375 31.875 825 55 825 58.75 c 0
 825 62.5 806.875 85.625 784.375 108.75 c 0
 761.25 132.5 743.75 156.25 745 161.875 c 0
 746.875 170.625 762.5 171.875 871.875 171.875 c 2
 996.875 171.875 l 1
 996.875 46.875 l 2
 996.875 -102.5 996.25 -103.125 936.25 -44.375 c 2
 897.5 -6.25 l 1
 858.125 -46.875 l 2
 721.25 -187.5 527.5 -233.75 336.875 -171.25 c 0
 167.5 -115.625 39.375 36.25 6.875 220.625 c 0
 0 258.75 7.5 288.125 26.25 295.625 c 0
469.375 166.25 m 0
 510.625 189.375 562.5 158.75 562.5 111.875 c 0
 562.5 80.625 531.875 50 500 50 c 0
 438.125 50 415 136.25 469.375 166.25 c 0
EndSplineSet
Validated: 524321
EndChar

StartChar: uniF028
Encoding: 61480 61480 31
Width: 1000
LayerCount: 2
Fore
SplineSet
406.499023438 790.625 m 0
 517.749023438 813.125 656.499023438 789.375 753.999023438 730.625 c 0
 830.874023438 684.375 850.874023438 653.125 823.374023438 621.875 c 0
 802.749023438 597.5 779.624023438 598.75 740.249023438 626.875 c 0
 645.249023438 695 528.374023438 720.625 415.874023438 696.875 c 0
 300.874023438 673.125 190.249023438 586.875 138.374023438 481.25 c 0
 79.6240234375 360.625 79.6240234375 239.375 138.374023438 118.75 c 0
 203.999023438 -15 350.874023438 -106.25 500.249023438 -106.25 c 0
 669.624023438 -106.25 820.874023438 2.5 884.624023438 169.375 c 0
 895.874023438 198.75 905.249023438 212.5 916.499023438 218.125 c 0
 938.374023438 228.125 945.874023438 226.875 965.249023438 211.875 c 0
 986.499023438 195 986.499023438 174.375 962.749023438 113.75 c 0
 880.249023438 -99.375 652.749023438 -229.375 425.249023438 -193.75 c 0
 210.874023438 -160 40.2490234375 10.625 7.1240234375 223.125 c 0
 -34.1259765625 488.75 140.874023438 736.875 406.499023438 790.625 c 0
473.374023438 541.25 m 0
 487.749023438 551.875 512.749023438 551.875 527.124023438 541.25 c 0
 545.249023438 527.5 550.249023438 496.25 550.249023438 393.75 c 0
 550.249023438 265.625 541.499023438 238.125 500.249023438 238.125 c 0
 458.999023438 238.125 450.249023438 265.625 450.249023438 393.75 c 0
 450.249023438 496.25 455.249023438 527.5 473.374023438 541.25 c 0
851.499023438 466.875 m 2
 933.999023438 548.125 938.374023438 551.25 957.749023438 547.5 c 0
 983.374023438 542.5 992.749023438 533.125 997.749023438 507.5 c 0
 1002.12402344 486.875 998.999023438 483.75 893.374023438 377.5 c 0
 802.124023438 286.25 781.499023438 268.75 765.874023438 268.75 c 0
 751.499023438 268.75 735.874023438 280.625 686.499023438 330 c 0
 618.999023438 397.5 612.749023438 413.125 640.874023438 440.625 c 0
 665.249023438 465.625 683.999023438 461.25 727.124023438 418.75 c 2
 765.874023438 381.875 l 1
 851.499023438 466.875 l 2
469.624023438 166.25 m 0
 510.874023438 189.375 562.749023438 158.75 562.749023438 111.875 c 0
 562.749023438 80.625 532.124023438 50 500.249023438 50 c 0
 438.374023438 50 415.249023438 136.25 469.624023438 166.25 c 0
EndSplineSet
Validated: 524321
EndChar

StartChar: uniF02A
Encoding: 61482 61482 32
Width: 1000
LayerCount: 2
Fore
SplineSet
467.48828125 770 m 0
 480.61328125 785 519.98828125 785 533.73828125 770 c 0
 539.36328125 763.75 569.36328125 705.625 600.61328125 640.625 c 0
 632.48828125 575 658.11328125 521.25 658.73828125 520.625 c 0
 659.36328125 520 719.98828125 511.25 793.73828125 500.625 c 0
 871.86328125 489.375 933.73828125 477.5 942.48828125 471.875 c 0
 959.98828125 460.625 966.86328125 435 958.11328125 416.25 c 0
 954.98828125 408.75 908.73828125 360.625 855.61328125 309.375 c 2
 758.73828125 216.875 l 1
 782.48828125 79.375 l 2
 803.73828125 -44.375 805.61328125 -59.375 797.48828125 -75 c 0
 777.48828125 -113.75 762.48828125 -110 625.61328125 -37.5 c 0
 561.23828125 -3.125 504.98828125 25 501.23828125 25 c 0
 497.48828125 25 441.23828125 -3.125 375.61328125 -37.5 c 0
 238.11328125 -110 223.73828125 -113.125 203.73828125 -75 c 0
 195.61328125 -60 197.48828125 -44.375 218.73828125 78.75 c 2
 242.48828125 215.625 l 1
 139.98828125 315.625 l 2
 51.23828125 402.5 37.48828125 418.125 38.11328125 435 c 0
 38.11328125 473.125 52.48828125 478.125 203.73828125 500 c 0
 279.36328125 510.625 341.86328125 520 342.48828125 520.625 c 0
 342.48828125 521.25 368.73828125 575 399.98828125 640 c 0
 431.23828125 705.625 461.86328125 763.75 467.48828125 770 c 0
EndSplineSet
Validated: 524321
EndChar

StartChar: uniF02B
Encoding: 61483 61483 33
Width: 1000
LayerCount: 2
Fore
SplineSet
128.41796875 727.5 m 0
 144.66796875 736.25 192.79296875 737.5 500.29296875 737.5 c 0
 896.54296875 737.5 875.91796875 740 915.91796875 691.25 c 2
 934.66796875 667.5 l 1
 936.54296875 401.25 l 2
 938.41796875 101.25 939.66796875 111.25 891.54296875 71.875 c 2
 867.79296875 53.125 l 1
 717.16796875 51.25 l 1
 565.91796875 49.375 l 1
 475.29296875 -40.625 l 2
 401.54296875 -113.75 380.29296875 -131.25 361.54296875 -134.375 c 0
 316.54296875 -143.125 275.29296875 -122.5 259.04296875 -83.75 c 0
 254.04296875 -71.25 250.29296875 -40.625 250.29296875 -6.875 c 2
 250.29296875 48.75 l 1
 191.54296875 51.25 l 2
 137.16796875 53.125 130.91796875 54.375 109.04296875 71.875 c 0
 61.54296875 110.625 62.79296875 102.5 62.79296875 392.5 c 0
 62.79296875 668.75 63.41796875 675.625 94.66796875 704.375 c 0
 102.79296875 711.875 118.41796875 722.5 128.41796875 727.5 c 0
840.91796875 393.75 m 1
 840.91796875 640.625 l 1
 501.54296875 642.5 l 2
 233.41796875 643.75 161.54296875 642.5 159.66796875 636.25 c 0
 157.79296875 631.875 157.16796875 520 157.79296875 387.5 c 2
 159.66796875 146.875 l 1
 239.66796875 143.75 l 2
 345.29296875 139.375 344.04296875 140.625 344.04296875 35.625 c 2
 344.04296875 -40.625 l 1
 434.66796875 50 l 1
 525.29296875 140.625 l 1
 683.41796875 143.75 l 1
 840.91796875 146.875 l 1
 840.91796875 393.75 l 1
EndSplineSet
Validated: 524321
EndChar

StartChar: uniF02C
Encoding: 61484 61484 34
Width: 1000
LayerCount: 2
Fore
SplineSet
415.315429688 793.125 m 0
 457.190429688 801.25 575.940429688 796.875 618.440429688 785.625 c 0
 749.065429688 750 848.440429688 678.75 918.440429688 570.625 c 0
 974.065429688 485.625 996.565429688 408.75 996.565429688 300 c 0
 996.565429688 159.375 949.065429688 43.125 852.815429688 -53.125 c 0
 756.565429688 -149.375 640.315429688 -196.875 499.690429688 -196.875 c 0
 359.065429688 -196.875 242.815429688 -149.375 146.565429688 -53.125 c 0
 50.3154296875 43.75 2.8154296875 159.375 3.4404296875 300 c 0
 3.4404296875 413.125 26.5654296875 492.5 87.1904296875 580.625 c 0
 162.190429688 691.25 277.190429688 766.25 415.315429688 793.125 c 0
584.065429688 696.875 m 0
 447.815429688 725.625 316.565429688 685.625 215.315429688 585 c 0
 174.690429688 545 158.440429688 523.125 137.815429688 481.25 c 0
 79.0654296875 360.625 79.0654296875 238.75 137.815429688 118.75 c 0
 189.690429688 13.125 300.315429688 -73.125 415.315429688 -96.875 c 0
 506.565429688 -116.25 593.440429688 -104.375 680.940429688 -61.875 c 0
 755.315429688 -25 824.690429688 44.375 861.565429688 118.75 c 0
 920.315429688 239.375 920.315429688 360.625 861.565429688 481.25 c 0
 809.690429688 586.875 699.065429688 673.125 584.065429688 696.875 c 0
449.690429688 544.375 m 0
 475.940429688 551.875 520.940429688 550.625 555.315429688 540 c 0
 619.065429688 521.25 662.815429688 456.25 654.065429688 393.75 c 0
 648.440429688 351.25 629.690429688 323.75 586.565429688 293.75 c 0
 564.065429688 278.125 540.940429688 260.625 534.690429688 255 c 0
 504.690429688 225 460.940429688 241.25 457.190429688 283.75 c 0
 455.315429688 303.125 458.440429688 310 475.940429688 326.875 c 0
 487.190429688 338.125 510.315429688 356.25 526.565429688 367.5 c 0
 559.690429688 390 565.315429688 399.375 559.690429688 421.875 c 0
 554.065429688 443.75 522.815429688 458.125 488.440429688 454.375 c 0
 464.690429688 451.875 455.940429688 446.875 433.440429688 422.5 c 0
 402.815429688 388.75 382.815429688 385.625 359.065429688 409.375 c 0
 334.065429688 433.75 339.690429688 458.75 377.190429688 498.75 c 0
 397.190429688 520 421.565429688 535.625 449.690429688 544.375 c 0
469.065429688 166.25 m 0
 510.315429688 189.375 562.190429688 158.75 562.190429688 111.875 c 0
 562.190429688 80.625 531.565429688 50 499.690429688 50 c 0
 437.815429688 50 414.690429688 136.25 469.065429688 166.25 c 0
EndSplineSet
Validated: 524321
EndChar

StartChar: uniF02D
Encoding: 61485 61485 35
Width: 1000
LayerCount: 2
Fore
SplineSet
450.7734375 775.625 m 0
 485.1484375 796.875 542.0234375 786.875 570.7734375 755 c 0
 592.0234375 731.875 612.0234375 697.5 722.0234375 494.375 c 0
 843.2734375 269.375 969.5234375 18.75 977.6484375 -12.5 c 0
 987.0234375 -50.625 980.7734375 -68.125 945.1484375 -103.75 c 2
 911.3984375 -137.5 l 1
 587.6484375 -137.5 l 2
 243.2734375 -137.5 90.7734375 -131.25 62.0234375 -116.25 c 0
 35.1484375 -102.5 15.1484375 -60.625 18.8984375 -26.25 c 0
 22.6484375 7.5 150.1484375 266.25 282.6484375 508.75 c 0
 385.1484375 696.25 425.1484375 760 450.7734375 775.625 c 0
587.6484375 548.75 m 0
 543.8984375 628.125 504.5234375 693.75 500.7734375 693.75 c 0
 488.8984375 693.75 417.6484375 568.125 268.2734375 284.375 c 0
 167.0234375 91.25 113.8984375 -18.125 119.5234375 -23.125 c 0
 132.6484375 -36.875 441.3984375 -41.875 731.3984375 -33.125 c 0
 855.1484375 -30 873.2734375 -28.125 873.2734375 -19.375 c 0
 873.2734375 -5 682.0234375 375 587.6484375 548.75 c 0
483.8984375 480.625 m 0
 500.7734375 490.625 512.0234375 486.25 527.0234375 463.75 c 0
 545.7734375 436.875 551.3984375 385 543.8984375 320.625 c 0
 535.7734375 257.5 530.1484375 248.75 495.7734375 251.25 c 0
 459.5234375 253.75 452.6484375 271.25 452.0234375 362.5 c 0
 451.3984375 438.125 458.8984375 466.25 483.8984375 480.625 c 0
464.5234375 155.625 m 0
 490.1484375 178.125 495.1484375 178.75 521.3984375 162.5 c 0
 563.8984375 136.875 569.5234375 104.375 537.0234375 73.125 c 0
 503.2734375 40.625 468.2734375 49.375 444.5234375 94.375 c 0
 432.6484375 118.125 437.0234375 131.875 464.5234375 155.625 c 0
EndSplineSet
Validated: 524321
EndChar

StartChar: uniF02E
Encoding: 61486 61486 36
Width: 1000
LayerCount: 2
Fore
SplineSet
344.4140625 725 m 0
 471.9140625 758.125 603.7890625 721.25 700.0390625 625.625 c 0
 829.4140625 496.25 847.5390625 305 745.0390625 148.75 c 1
 734.4140625 131.25 l 1
 835.6640625 29.375 l 2
 919.4140625 -55 936.9140625 -75.625 936.9140625 -90.625 c 0
 936.9140625 -115 914.4140625 -137.5 890.6640625 -137.5 c 0
 875.0390625 -137.5 856.2890625 -121.875 770.0390625 -36.25 c 2
 668.1640625 65 l 1
 650.6640625 54.375 l 2
 589.4140625 14.375 504.4140625 -12.5 436.9140625 -12.5 c 0
 196.9140625 -12.5 15.0390625 220.625 74.4140625 452.5 c 0
 92.5390625 523.125 120.0390625 571.25 174.4140625 625 c 0
 227.5390625 678.75 276.2890625 706.875 344.4140625 725 c 0
494.4140625 636.875 m 0
 400.6640625 656.25 310.0390625 629.375 240.0390625 559.375 c 0
 78.1640625 399.375 166.2890625 125 392.5390625 86.25 c 0
 480.6640625 71.25 568.1640625 100 633.7890625 165.625 c 0
 745.0390625 276.25 745.0390625 448.125 633.7890625 560 c 0
 593.1640625 600.625 548.7890625 625.625 494.4140625 636.875 c 0
EndSplineSet
Validated: 524321
EndChar

StartChar: uniF02F
Encoding: 61487 61487 37
Width: 1000
LayerCount: 2
Fore
SplineSet
433.75 793.125 m 0
 460.625 801.25 535.625 801.25 563.75 793.75 c 0
 598.125 783.75 626.875 747.5 640.625 696.25 c 0
 654.375 645 655.625 642.5 691.25 621.875 c 2
 718.75 605.625 l 1
 769.375 618.75 l 2
 838.125 636.25 863.75 631.875 897.5 596.875 c 0
 911.875 582.5 931.875 552.5 943.125 531.25 c 0
 975 466.25 967.5 430 910 372.5 c 0
 875 338.125 875 338.125 875 300 c 0
 875 261.875 875 261.875 910 227.5 c 0
 947.5 190 962.5 162.5 962.5 129.375 c 0
 962.5 100 928.125 33.75 896.875 2.5 c 0
 861.875 -31.875 837.5 -36.25 769.375 -18.75 c 2
 718.75 -5.625 l 1
 691.25 -21.875 l 2
 655.625 -42.5 654.375 -45 640.625 -96.25 c 0
 626.875 -147.5 598.125 -183.75 563.75 -193.75 c 0
 534.375 -201.875 465.625 -201.875 436.25 -193.75 c 0
 401.875 -183.75 373.125 -147.5 359.375 -96.25 c 0
 345.625 -45 344.375 -42.5 308.75 -21.875 c 2
 281.25 -5.625 l 1
 230.625 -18.75 l 2
 161.875 -36.25 136.25 -31.875 102.5 3.125 c 0
 71.25 35.625 37.5 100.625 37.5 129.375 c 0
 37.5 162.5 52.5 190 90 228.125 c 0
 124.375 262.5 125 263.125 125 300 c 0
 125 336.875 124.375 337.5 90 371.875 c 0
 52.5 410 37.5 437.5 37.5 470.625 c 0
 37.5 499.375 71.25 564.375 102.5 596.875 c 0
 136.25 632.5 161.875 636.25 230.625 618.75 c 2
 281.875 605.625 l 1
 310.625 623.125 l 2
 344.375 643.75 345 645.625 361.875 703.125 c 0
 376.25 751.875 401.25 783.75 433.75 793.125 c 0
542.5 695.625 m 0
 538.125 703.75 528.75 706.25 500 706.25 c 0
 457.5 706.25 458.125 706.875 440.625 641.25 c 0
 426.875 588.75 406.25 566.875 343.125 535 c 0
 291.25 508.75 281.25 508.125 218.75 525.625 c 0
 166.25 540 168.125 541.25 143.125 491.875 c 2
 130.625 467.5 l 1
 165.625 430.625 l 2
 210 383.75 218.75 363.125 218.75 300 c 0
 218.75 236.875 210 216.25 165.625 169.375 c 2
 130.625 132.5 l 1
 143.125 108.125 l 2
 168.125 58.75 166.25 60 218.75 74.375 c 0
 281.25 91.875 291.25 91.25 343.125 65 c 0
 406.25 33.125 426.875 11.25 440.625 -41.25 c 0
 458.125 -106.875 457.5 -106.25 500 -106.25 c 0
 542.5 -106.25 541.875 -106.875 559.375 -41.25 c 0
 573.125 10.625 591.875 31.25 655.625 63.75 c 0
 708.75 91.25 718.125 91.875 781.25 74.375 c 0
 833.75 60 831.875 58.75 856.875 108.125 c 2
 869.375 132.5 l 1
 834.375 169.375 l 2
 790 216.25 781.25 236.875 781.25 300 c 0
 781.25 363.125 790 383.75 834.375 430.625 c 2
 869.375 467.5 l 1
 856.875 491.875 l 2
 831.875 541.25 833.75 540 781.25 525.625 c 0
 718.125 508.125 708.75 508.75 655.625 536.25 c 0
 591.875 568.75 573.125 589.375 559.375 641.25 c 0
 553.125 665 545.625 689.375 542.5 695.625 c 0
439.375 476.25 m 0
 505 500 593.125 477.5 638.125 426.875 c 0
 671.25 388.75 684.375 353.125 684.375 300 c 0
 684.375 223.125 649.375 166.25 582.5 133.125 c 0
 531.875 108.125 468.125 108.125 417.5 133.125 c 0
 269.375 206.25 282.5 420 439.375 476.25 c 0
543.75 381.25 m 0
 513.125 396.875 485 396.875 455 380.625 c 0
 428.125 366.875 406.25 330 406.25 300 c 0
 406.25 252.5 452.5 206.25 500 206.25 c 0
 510.625 206.25 530.625 211.875 543.75 218.75 c 0
 571.875 233.125 593.75 268.75 593.75 300 c 0
 593.75 331.25 571.875 366.875 543.75 381.25 c 0
EndSplineSet
Validated: 524321
EndChar

StartChar: uniF030
Encoding: 61488 61488 38
Width: 1000
LayerCount: 2
Fore
SplineSet
129.595703125 698.75 m 0x00
 152.720703125 723.75 185.220703125 726.25 205.220703125 705 c 0
 224.595703125 683.75 220.845703125 663.125 189.595703125 625 c 0
 130.220703125 553.75 92.720703125 451.875 92.720703125 362.5 c 0
 92.720703125 275 130.220703125 170.625 186.470703125 103.75 c 0
 218.345703125 65 223.345703125 47.5 207.095703125 26.25 c 0
 198.345703125 14.375 187.720703125 8.75 171.470703125 7.5 c 0
 144.595703125 5 127.095703125 21.25 79.595703125 92.5 c 0
 48.970703125 139.375 30.845703125 180.625 12.720703125 246.875 c 0
 -2.279296875 300.625 -1.029296875 426.25 13.970703125 484.375 c 0
 34.595703125 562.5 78.345703125 643.75 129.595703125 698.75 c 0x00
792.720703125 705 m 0
 801.470703125 714.375 813.345703125 718.75 827.720703125 718.75 c 0
 853.970703125 718.75 872.720703125 700.625 918.345703125 632.5 c 0
 1035.84570312 454.375 1022.09570312 212.5 884.595703125 45 c 0
 870.845703125 28.75 853.345703125 11.875 845.220703125 7.5 c 0
 815.845703125 -8.125 780.220703125 15 780.220703125 50 c 0
 780.220703125 59.375 791.470703125 79.375 808.345703125 100 c 0
 867.720703125 171.25 905.220703125 273.125 905.220703125 362.5 c 0
 905.220703125 451.875 867.720703125 553.75 808.345703125 625 c 0
 777.095703125 663.125 773.345703125 683.75 792.720703125 705 c 0
257.720703125 559.375 m 0
 282.720703125 585.625 305.220703125 588.125 327.095703125 565.625 c 0
 348.345703125 545 346.470703125 531.25 318.345703125 483.75 c 0
 264.595703125 395 268.345703125 319.375 330.845703125 218.125 c 0
 343.345703125 198.125 343.970703125 193.75 337.095703125 176.25 c 0
 327.095703125 152.5 301.470703125 140.625 278.345703125 149.375 c 0
 241.470703125 163.75 194.595703125 261.25 188.345703125 338.125 c 0
 182.095703125 415.625 211.470703125 510 257.720703125 559.375 c 0
678.970703125 571.875 m 0
 712.720703125 590.625 745.845703125 567.5 777.095703125 503.125 c 0
 827.720703125 400 819.595703125 276.875 756.470703125 186.25 c 0
 728.970703125 147.5 706.470703125 136.25 681.470703125 150.625 c 0
 655.220703125 165 649.595703125 190 666.470703125 217.5 c 0
 705.845703125 281.875 714.595703125 307.5 714.595703125 362.5 c 0
 714.595703125 417.5 705.845703125 443.75 667.095703125 506.25 c 0
 650.220703125 533.75 654.595703125 558.125 678.970703125 571.875 c 0
442.095703125 454.375 m 0
 471.470703125 474.375 526.470703125 474.375 555.845703125 454.375 c 0
 589.595703125 431.875 605.220703125 403.125 605.220703125 364.375 c 0x80
 605.220703125 325.625 594.595703125 301.875 567.720703125 279.375 c 2
 548.970703125 263.125 l 1
 548.970703125 92.5 l 2
 548.970703125 -1.25 546.470703125 -87.5 542.720703125 -99.375 c 0
 528.345703125 -150.625 469.595703125 -150.625 455.220703125 -99.375 c 0
 451.470703125 -87.5 448.970703125 -1.25 448.970703125 92.5 c 2
 448.970703125 263.125 l 1x40
 430.220703125 279.375 l 2
 403.345703125 301.875 392.720703125 325.625 392.720703125 364.375 c 0x80
 392.720703125 403.125 408.345703125 431.875 442.095703125 454.375 c 0
EndSplineSet
Validated: 524321
EndChar

StartChar: uniF031
Encoding: 61489 61489 39
Width: 1000
LayerCount: 2
Fore
SplineSet
295.625 737.5 m 0x80
 326.875 753.125 367.5 751.25 393.125 733.125 c 0
 401.875 726.25 415.625 708.75 423.75 693.75 c 0
 436.25 668.125 437.5 657.5 437.5 564.375 c 2
 437.5 462.5 l 1
 463.75 443.75 l 2
 495.625 420.625 504.375 420.625 536.25 443.75 c 2
 562.5 462.5 l 1
 562.5 564.375 l 2x60
 562.5 649.375 564.375 670 574.375 691.25 c 0
 595.625 738.75 640 758.75 689.375 743.75 c 0
 724.375 733.75 802.5 654.375 830 601.875 c 0
 856.25 551.875 875 478.125 875 425 c 0
 875 371.875 856.25 297.5 830 248.125 c 0
 810.625 211.25 742.5 136.25 704.375 109.375 c 2
 686.25 96.875 l 1
 692.5 -15 l 2
 696.25 -80 696.875 -132.5 693.75 -141.25 c 0
 682.5 -170.625 641.875 -178.125 620 -154.375 c 0
 606.875 -140.625 605.625 -129.375 599.375 -17.5 c 0x10
 593.125 98.75 593.125 106.25 605 133.125 c 0
 611.875 148.75 627.5 168.75 641.25 178.75 c 0
 685 211.25 734.375 265 749.375 295.625 c 0
 805.625 411.25 786.25 533.75 696.875 621.875 c 2
 659.375 659.375 l 1
 656.25 546.25 l 2
 653.125 438.75 652.5 432.5 637.5 410.625 c 0
 628.75 398.125 602.5 375.625 579.375 360 c 0
 540.625 334.375 532.5 331.25 500 331.25 c 0
 466.875 331.25 459.375 333.75 417.5 361.875 c 0
 349.375 407.5 347.5 412.5 343.75 546.875 c 2x60
 340.625 659.375 l 1
 302.5 621.875 l 2
 215 534.375 194.375 414.375 248.125 300.625 c 0
 264.375 266.25 312.5 213.125 358.75 178.75 c 0
 372.5 168.75 388.125 148.75 395 133.125 c 0
 406.875 106.25 406.875 98.75 400.625 -17.5 c 0
 394.375 -129.375 393.125 -140.625 380 -154.375 c 0
 358.125 -178.125 317.5 -170.625 306.25 -141.25 c 0
 303.125 -132.5 303.75 -80 307.5 -15 c 2
 313.75 96.875 l 1
 295.625 109.375 l 2
 257.5 136.25 189.375 211.25 170 248.125 c 0
 143.75 297.5 125 371.875 125 425 c 0
 125 478.125 143.75 552.5 170 601.875 c 0
 195.625 649.375 260 719.375 295.625 737.5 c 0x80
EndSplineSet
Validated: 524321
EndChar

StartChar: uniF032
Encoding: 61490 61490 40
Width: 1000
LayerCount: 2
Fore
SplineSet
159.385742188 727.5 m 0
 173.760742188 735 199.385742188 737.5 276.885742188 737.5 c 0
 373.135742188 737.5 375.635742188 736.875 390.635742188 721.875 c 0
 409.385742188 703.75 410.635742188 681.875 394.385742188 661.875 c 0
 383.135742188 647.5 378.135742188 646.875 286.260742188 643.75 c 2
 190.635742188 640.625 l 1
 190.635742188 300 l 1
 190.635742188 -40.625 l 1
 286.260742188 -43.75 l 2
 378.135742188 -46.875 383.135742188 -47.5 394.385742188 -61.875 c 0
 410.635742188 -81.875 409.385742188 -103.75 390.635742188 -122.5 c 2
 375.010742188 -138.125 l 1
 269.385742188 -136.25 l 1
 163.760742188 -134.375 l 1
 140.010742188 -115.625 l 2
 91.2607421875 -75.625 93.7607421875 -96.25 93.7607421875 298.75 c 0
 93.7607421875 676.25 93.7607421875 675 125.635742188 704.375 c 0
 133.760742188 711.875 149.385742188 722.5 159.385742188 727.5 c 0
626.885742188 540.625 m 0
 634.385742188 545.625 648.760742188 550 658.760742188 550 c 0
 674.385742188 550 695.010742188 532.5 791.885742188 435.625 c 0
 895.010742188 332.5 906.260742188 319.375 906.260742188 300 c 0
 906.260742188 280.625 895.010742188 267.5 791.885742188 164.375 c 0
 695.010742188 67.5 674.385742188 50 658.760742188 50 c 0
 621.885742188 50 597.510742188 84.375 613.135742188 114.375 c 0
 616.885742188 121.875 646.885742188 155.625 680.010742188 188.75 c 2
 740.635742188 250 l 1
 567.510742188 250 l 2
 463.135742188 250 387.510742188 252.5 377.510742188 256.25 c 0
 343.135742188 269.375 333.135742188 305 356.260742188 330 c 0
 368.760742188 343.75 371.885742188 343.75 558.135742188 343.75 c 2
 746.885742188 343.75 l 1
 683.135742188 408.125 l 2
 648.760742188 443.125 616.885742188 478.125 613.135742188 485.625 c 0
 603.760742188 503.75 610.635742188 528.75 626.885742188 540.625 c 0
EndSplineSet
Validated: 524321
EndChar

StartChar: uniF033
Encoding: 61491 61491 41
Width: 1000
LayerCount: 2
Fore
SplineSet
767.83984375 787.5 m 0
 797.83984375 793.75 843.46484375 799.375 869.08984375 799.375 c 0
 924.08984375 800 949.08984375 789.375 978.46484375 753.75 c 0
 994.71484375 733.125 997.21484375 724.375 999.08984375 682.5 c 0
 1003.46484375 589.375 966.58984375 465 909.71484375 378.125 c 0
 896.58984375 357.5 854.71484375 310 817.83984375 271.875 c 2
 750.33984375 203.125 l 1
 750.33984375 94.375 l 2
 750.33984375 -61.875 758.46484375 -49.375 587.21484375 -155 c 0
 547.21484375 -180 507.83984375 -200 499.71484375 -200 c 0
 467.21484375 -199.375 458.46484375 -181.875 412.21484375 -26.25 c 2
 397.21484375 25 l 1
 309.71484375 111.25 l 2
 225.33984375 195 220.96484375 198.125 178.46484375 211.25 c 0
 -30.28515625 273.75 -27.16015625 270 45.33984375 386.875 c 0
 150.96484375 558.125 138.46484375 550 294.71484375 550 c 2
 403.46484375 550 l 1
 472.21484375 617.5 l 2
 510.33984375 654.375 557.83984375 696.25 578.46484375 709.375 c 0
 631.58984375 744.375 704.71484375 774.375 767.83984375 787.5 c 0
905.33984375 671.25 m 2
 903.46484375 703.125 l 1
 865.96484375 704.375 l 2
 786.58984375 706.875 675.96484375 667.5 601.58984375 610 c 0
 556.58984375 575.625 484.08984375 499.375 440.96484375 440.625 c 0
 405.96484375 393.125 312.83984375 250.625 312.83984375 244.375 c 0
 312.83984375 241.875 342.21484375 211.25 377.83984375 175.625 c 0
 439.08984375 114.375 443.46484375 111.875 457.21484375 119.375 c 0
 465.33984375 123.75 512.21484375 153.75 561.58984375 186.25 c 0
 695.96484375 275.625 789.71484375 361.875 837.21484375 440 c 0
 880.33984375 511.25 909.08984375 608.75 905.33984375 671.25 c 2
331.58984375 452.5 m 0
 331.58984375 454.375 302.21484375 456.25 265.96484375 456.25 c 2
 200.33984375 456.25 l 1
 173.46484375 414.375 l 2
 158.46484375 390.625 140.33984375 361.875 132.83984375 349.375 c 2
 119.08984375 326.875 l 1
 173.46484375 310 l 2
 217.21484375 296.875 229.08984375 295 234.71484375 301.25 c 0
 244.71484375 312.5 331.58984375 448.125 331.58984375 452.5 c 0
655.33984375 64.375 m 2
 655.96484375 101.25 654.71484375 131.25 652.21484375 131.25 c 0
 647.21484375 130.625 507.21484375 40.625 498.46484375 31.875 c 0
 495.96484375 29.375 501.58984375 2.5 510.96484375 -26.875 c 2
 528.46484375 -81.25 l 1
 590.96484375 -41.875 l 1
 653.46484375 -3.125 l 1
 655.33984375 64.375 l 2
657.21484375 541.25 m 0
 698.46484375 564.375 750.33984375 533.75 750.33984375 486.875 c 0
 750.33984375 455.625 719.71484375 425 687.83984375 425 c 0
 625.96484375 425 602.83984375 511.25 657.21484375 541.25 c 0
113.46484375 39.375 m 0
 128.46484375 46.875 144.71484375 50 167.83984375 48.125 c 0
 195.96484375 46.25 204.71484375 42.5 223.46484375 23.125 c 0
 242.83984375 4.375 246.58984375 -4.375 249.08984375 -33.75 c 0
 251.58984375 -63.75 249.71484375 -72.5 235.96484375 -93.125 c 0
 215.33984375 -124.375 149.08984375 -158.125 79.71484375 -173.125 c 0
 17.83984375 -186.25 14.71484375 -183.75 24.71484375 -130.625 c 0
 40.96484375 -48.125 77.21484375 21.25 113.46484375 39.375 c 0
EndSplineSet
Validated: 524321
EndChar

StartChar: uniF034
Encoding: 61492 61492 42
Width: 1000
LayerCount: 2
Fore
SplineSet
153.899414062 668.75 m 0
 172.649414062 676.25 172.024414062 676.25 241.399414062 665.625 c 0
 473.899414062 630.625 683.899414062 480 790.774414062 271.875 c 0
 840.774414062 174.375 870.149414062 70.625 872.649414062 -13.125 c 0
 873.899414062 -46.25 872.024414062 -52.5 858.899414062 -63.125 c 0
 840.149414062 -78.125 820.149414062 -78.125 800.774414062 -62.5 c 0
 787.024414062 -51.875 783.899414062 -41.875 777.649414062 7.5 c 0
 738.899414062 308.75 495.149414062 546.25 190.774414062 578.125 c 0
 159.524414062 581.875 149.524414062 585.625 139.524414062 598.125 c 0
 119.524414062 623.75 126.399414062 657.5 153.899414062 668.75 c 0
160.149414062 355.625 m 0
 186.399414062 365.625 263.274414062 345 330.149414062 310.625 c 0
 405.774414062 271.875 478.274414062 197.5 516.399414062 118.75 c 0
 548.274414062 53.75 566.399414062 -18.75 557.024414062 -43.125 c 0
 545.149414062 -76.25 507.649414062 -85 484.524414062 -60.625 c 0
 477.024414062 -52.5 468.274414062 -32.5 465.149414062 -15 c 0
 436.399414062 131.875 324.524414062 240.625 175.774414062 265.625 c 0
 151.399414062 269.375 127.024414062 293.125 127.024414062 311.875 c 0
 127.024414062 326.25 144.524414062 350 160.149414062 355.625 c 0
158.899414062 41.25 m 0
 200.149414062 64.375 252.024414062 33.75 252.024414062 -13.125 c 0
 252.024414062 -44.375 221.399414062 -75 189.524414062 -75 c 0
 127.649414062 -75 104.524414062 11.25 158.899414062 41.25 c 0
EndSplineSet
Validated: 524321
EndChar

StartChar: uniF035
Encoding: 61493 61493 43
Width: 1000
LayerCount: 2
Fore
SplineSet
328.125 721.875 m 2
 343.125 737.5 l 1
 500 737.5 l 1
 656.875 737.5 l 1
 671.875 721.875 l 2
 687.5 706.875 687.5 705 687.5 596.875 c 0
 687.5 488.75 687.5 486.875 671.875 471.875 c 2
 656.875 456.25 l 1
 500 456.25 l 1
 343.125 456.25 l 1
 328.125 471.875 l 2
 312.5 486.875 312.5 488.75 312.5 596.875 c 0
 312.5 705 312.5 706.875 328.125 721.875 c 2
593.75 596.875 m 1
 593.75 643.75 l 1
 500 643.75 l 1
 406.25 643.75 l 1
 406.25 596.875 l 1
 406.25 550 l 1
 500 550 l 1
 593.75 550 l 1
 593.75 596.875 l 1
177.5 656.875 m 0
 200.625 671.25 201.875 671.25 224.375 659.375 c 0
 254.375 644.375 258.125 616.875 234.375 588.75 c 2
 218.75 570 l 1
 220 264.375 l 1
 221.875 -40.625 l 1
 500 -40.625 l 1
 778.125 -40.625 l 1
 780 264.375 l 1
 781.25 570 l 1
 765.625 588.75 l 2
 740.625 618.125 746.875 648.125 780.625 661.875 c 0
 803.75 671.875 829.375 660 854.375 626.875 c 2
 871.875 604.375 l 1
 871.875 268.125 l 1
 871.875 -67.5 l 1
 853.125 -91.25 l 2
 813.75 -139.375 826.25 -137.5 500 -137.5 c 0
 173.75 -137.5 186.25 -139.375 146.875 -91.25 c 2
 128.125 -67.5 l 1
 128.125 267.5 l 1
 128.125 603.125 l 1
 143.125 623.75 l 2
 151.25 635.625 166.875 650.625 177.5 656.875 c 0
EndSplineSet
Validated: 524321
EndChar

StartChar: uniF036
Encoding: 61494 61494 44
Width: 1000
LayerCount: 2
Fore
SplineSet
159.381835938 727.5 m 0
 173.756835938 735 199.381835938 737.5 276.881835938 737.5 c 0
 373.131835938 737.5 375.631835938 736.875 390.631835938 721.875 c 0
 409.381835938 703.75 410.631835938 681.875 394.381835938 661.875 c 0
 383.131835938 647.5 378.131835938 646.875 286.256835938 643.75 c 2
 190.631835938 640.625 l 1
 190.631835938 300 l 1
 190.631835938 -40.625 l 1
 286.256835938 -43.75 l 2
 378.131835938 -46.875 383.131835938 -47.5 394.381835938 -61.875 c 0
 410.631835938 -81.875 409.381835938 -103.75 390.631835938 -122.5 c 2
 375.006835938 -138.125 l 1
 269.381835938 -136.25 l 1
 163.756835938 -134.375 l 1
 140.006835938 -115.625 l 2
 91.2568359375 -75.625 93.7568359375 -96.25 93.7568359375 298.75 c 0
 93.7568359375 676.25 93.7568359375 675 125.631835938 704.375 c 0
 133.756835938 711.875 149.381835938 722.5 159.381835938 727.5 c 0
458.131835938 435.625 m 0
 555.631835938 533.75 575.006835938 550 590.631835938 550 c 0
 628.131835938 550 652.506835938 516.25 636.881835938 485.625 c 0
 633.131835938 478.125 601.256835938 443.125 566.881835938 408.125 c 2
 503.131835938 343.75 l 1
 691.881835938 343.75 l 2
 878.131835938 343.75 881.256835938 343.75 893.756835938 330 c 0
 916.881835938 305 906.881835938 269.375 872.506835938 256.25 c 0
 862.506835938 252.5 786.881835938 250 682.506835938 250 c 2
 509.381835938 250 l 1
 570.006835938 189.375 l 2
 603.131835938 155.625 633.131835938 121.875 636.881835938 114.375 c 0
 652.506835938 84.375 628.131835938 50 591.256835938 50 c 0
 575.631835938 50 555.006835938 67.5 458.131835938 164.375 c 0
 355.006835938 267.5 343.756835938 280.625 343.756835938 300 c 0
 343.756835938 318.75 355.006835938 332.5 458.131835938 435.625 c 0
EndSplineSet
Validated: 524321
EndChar

StartChar: uniF037
Encoding: 61495 61495 45
Width: 1000
LayerCount: 2
Fore
SplineSet
65.95703125 790 m 0
 82.20703125 798.75 121.58203125 800 382.83203125 798.75 c 2
 680.33203125 796.875 l 1
 704.08203125 778.125 l 2
 752.83203125 738.125 750.33203125 766.25 750.33203125 304.375 c 2
 750.33203125 -106.875 l 1
 827.20703125 -105 l 1
 903.45703125 -103.125 l 1
 905.33203125 93.75 l 1
 906.58203125 290.625 l 1
 869.08203125 315 l 2
 810.33203125 352.5 798.45703125 380 828.45703125 409.375 c 0
 850.95703125 431.875 869.08203125 428.75 923.45703125 391.875 c 0
 1003.45703125 338.125 1000.95703125 347.5 999.08203125 86.25 c 2
 997.20703125 -130 l 1
 978.45703125 -153.75 l 2
 939.70703125 -200.625 945.33203125 -200 676.58203125 -200 c 2
 437.20703125 -200 l 1
 422.20703125 -184.375 l 2
 408.45703125 -171.25 406.58203125 -163.75 406.58203125 -121.875 c 2
 406.58203125 -75 l 1
 375.33203125 -75 l 1
 344.08203125 -75 l 1
 344.08203125 -121.875 l 2
 344.08203125 -164.375 342.20703125 -171.25 328.45703125 -185 c 2
 312.83203125 -200.625 l 1
 191.58203125 -198.75 l 1
 70.33203125 -196.875 l 1
 46.58203125 -178.125 l 2
 -2.16796875 -138.125 0.33203125 -166.25 0.33203125 298.75 c 0
 0.33203125 743.75 -0.29296875 736.875 32.20703125 766.875 c 0
 40.33203125 774.375 55.95703125 785 65.95703125 790 c 0
653.45703125 300 m 1
 653.45703125 703.125 l 1
 376.58203125 705 l 2
 158.45703125 706.25 99.08203125 705 97.20703125 698.75 c 0
 95.33203125 694.375 94.70703125 511.875 95.33203125 293.75 c 2
 97.20703125 -103.125 l 1
 174.08203125 -105 l 1
 250.33203125 -106.875 l 1
 250.33203125 -59.375 l 2
 250.33203125 -17.5 252.20703125 -10 265.95703125 3.125 c 0
 280.33203125 18.125 283.45703125 18.75 375.33203125 18.75 c 0
 467.20703125 18.75 470.33203125 18.125 484.70703125 3.125 c 0
 498.45703125 -10 500.33203125 -17.5 500.33203125 -59.375 c 2
 500.33203125 -106.875 l 1
 577.20703125 -105 l 1
 653.45703125 -103.125 l 1
 653.45703125 300 l 1
203.45703125 596.875 m 0
 215.33203125 609.375 224.70703125 612.5 250.33203125 612.5 c 0
 275.95703125 612.5 285.33203125 609.375 297.20703125 596.875 c 0
 317.20703125 577.5 317.20703125 553.75 297.20703125 534.375 c 0
 275.33203125 511.875 225.33203125 511.875 203.45703125 534.375 c 0
 194.70703125 542.5 187.83203125 556.875 187.83203125 565.625 c 0
 187.83203125 574.375 194.70703125 588.75 203.45703125 596.875 c 0
453.45703125 596.875 m 0
 465.33203125 609.375 474.70703125 612.5 500.33203125 612.5 c 0
 525.95703125 612.5 535.33203125 609.375 547.20703125 596.875 c 0
 567.20703125 577.5 567.20703125 553.75 547.20703125 534.375 c 0
 525.33203125 511.875 475.33203125 511.875 453.45703125 534.375 c 0
 444.70703125 542.5 437.83203125 556.875 437.83203125 565.625 c 0
 437.83203125 574.375 444.70703125 588.75 453.45703125 596.875 c 0
203.45703125 409.375 m 0
 215.33203125 421.875 224.70703125 425 250.33203125 425 c 0
 275.95703125 425 285.33203125 421.875 297.20703125 409.375 c 0
 317.20703125 390 317.20703125 366.25 297.20703125 346.875 c 0
 275.33203125 324.375 225.33203125 324.375 203.45703125 346.875 c 0
 194.70703125 355 187.83203125 369.375 187.83203125 378.125 c 0
 187.83203125 386.875 194.70703125 401.25 203.45703125 409.375 c 0
453.45703125 409.375 m 0
 465.33203125 421.875 474.70703125 425 500.33203125 425 c 0
 525.95703125 425 535.33203125 421.875 547.20703125 409.375 c 0
 567.20703125 390 567.20703125 366.25 547.20703125 346.875 c 0
 525.33203125 324.375 475.33203125 324.375 453.45703125 346.875 c 0
 444.70703125 355 437.83203125 369.375 437.83203125 378.125 c 0
 437.83203125 386.875 444.70703125 401.25 453.45703125 409.375 c 0
203.45703125 221.875 m 0
 215.33203125 234.375 224.70703125 237.5 250.33203125 237.5 c 0
 275.95703125 237.5 285.33203125 234.375 297.20703125 221.875 c 0
 317.20703125 202.5 317.20703125 178.75 297.20703125 159.375 c 0
 275.33203125 136.875 225.33203125 136.875 203.45703125 159.375 c 0
 194.70703125 167.5 187.83203125 181.875 187.83203125 190.625 c 0
 187.83203125 199.375 194.70703125 213.75 203.45703125 221.875 c 0
453.45703125 221.875 m 0
 465.33203125 234.375 474.70703125 237.5 500.33203125 237.5 c 0
 525.95703125 237.5 535.33203125 234.375 547.20703125 221.875 c 0
 567.20703125 202.5 567.20703125 178.75 547.20703125 159.375 c 0
 525.33203125 136.875 475.33203125 136.875 453.45703125 159.375 c 0
 444.70703125 167.5 437.83203125 181.875 437.83203125 190.625 c 0
 437.83203125 199.375 444.70703125 213.75 453.45703125 221.875 c 0
EndSplineSet
Validated: 524321
EndChar

StartChar: uniF038
Encoding: 61496 61496 46
Width: 1000
LayerCount: 2
Fore
SplineSet
190.625 790 m 0
 206.875 798.75 246.25 800 507.5 798.75 c 2
 805 796.875 l 1
 828.75 778.125 l 2
 877.5 738.125 875 766.875 875 300 c 0
 875 -166.875 877.5 -138.125 828.75 -178.125 c 2
 805 -196.875 l 1
 500 -196.875 l 1
 195 -196.875 l 1
 171.25 -178.125 l 2
 122.5 -138.125 125 -166.25 125 298.75 c 0
 125 743.75 124.375 736.875 156.875 766.875 c 0
 165 774.375 180.625 785 190.625 790 c 0
778.125 300 m 1
 778.125 703.125 l 1
 501.25 705 l 2
 283.125 706.25 223.75 705 221.875 698.75 c 0
 220 694.375 219.375 511.875 220 293.75 c 2
 221.875 -103.125 l 1
 500 -103.125 l 1
 778.125 -103.125 l 1
 778.125 300 l 1
469.375 103.75 m 0
 510.625 126.875 562.5 96.25 562.5 49.375 c 0
 562.5 18.125 531.875 -12.5 500 -12.5 c 0
 438.125 -12.5 415 73.75 469.375 103.75 c 0
EndSplineSet
Validated: 524321
EndChar

StartChar: uniF039
Encoding: 61497 61497 47
Width: 1000
LayerCount: 2
Fore
SplineSet
398.125 669.375 m 0
 449.375 720.625 495 762.5 500 762.5 c 0
 505 762.5 550.625 720.625 601.875 669.375 c 0
 667.5 603.75 694.375 573.125 692.5 565 c 0
 690.625 554.375 683.125 553.125 620 551.25 c 2
 550 549.375 l 1
 550 516.875 l 2
 550 455.625 533.75 425.625 500 425.625 c 0
 466.25 425.625 450 455.625 450 516.875 c 2
 450 549.375 l 1
 380 551.25 l 2
 316.875 553.125 309.375 554.375 307.5 565 c 0
 305.625 573.125 332.5 603.75 398.125 669.375 c 0
75 330 m 0
 85.625 341.25 95 343.75 125 343.75 c 0
 155 343.75 164.375 341.25 175 330 c 0
 200 302.5 183.75 261.875 143.75 253.125 c 0
 85 240 39.375 291.25 75 330 c 0
262.5 330 m 0
 273.125 341.25 282.5 343.75 312.5 343.75 c 0
 342.5 343.75 351.875 341.25 362.5 330 c 0
 387.5 302.5 371.25 261.875 331.25 253.125 c 0
 272.5 240 226.875 291.25 262.5 330 c 0
450 330 m 0
 460.625 341.25 470 343.75 500 343.75 c 0
 530 343.75 539.375 341.25 550 330 c 0
 585.625 291.25 540 240 481.25 253.125 c 0
 441.25 261.875 425 302.5 450 330 c 0
637.5 330 m 0
 648.125 341.25 657.5 343.75 687.5 343.75 c 0
 717.5 343.75 726.875 341.25 737.5 330 c 0
 773.125 291.25 727.5 240 668.75 253.125 c 0
 628.75 261.875 612.5 302.5 637.5 330 c 0
825 330 m 0
 835.625 341.25 845 343.75 875 343.75 c 0
 905 343.75 914.375 341.25 925 330 c 0
 960.625 291.25 915 240 856.25 253.125 c 0
 816.25 261.875 800 302.5 825 330 c 0
473.125 166.25 m 0
 479.375 170.625 491.25 174.375 500 174.375 c 0
 533.75 174.375 550 144.375 550 83.125 c 2
 550 50 l 1
 618.75 50 l 2
 676.25 50 688.75 48.125 691.875 40 c 0
 694.375 33.125 667.5 1.875 597.5 -67.5 c 2
 500 -165.625 l 1
 402.5 -67.5 l 2
 332.5 1.875 305.625 33.125 308.125 40 c 0
 311.25 48.125 323.75 50 381.25 50 c 2
 450 50 l 1
 450 83.125 l 2
 450 123.75 458.75 155 473.125 166.25 c 0
EndSplineSet
Validated: 524321
EndChar

StartChar: uniF03A
Encoding: 61498 61498 48
Width: 1000
LayerCount: 2
Fore
SplineSet
591.809570312 333.125 m 2
 827.434570312 568.125 826.184570312 567.5 858.684570312 534.375 c 0
 891.809570312 501.875 894.309570312 505 635.559570312 245.625 c 0
 410.559570312 20.625 394.934570312 6.25 374.309570312 6.25 c 0
 353.684570312 6.25 343.059570312 15 237.434570312 121.25 c 0
 126.184570312 233.75 122.434570312 237.5 126.809570312 257.5 c 0
 131.809570312 283.125 141.184570312 292.5 166.809570312 297.5 c 0
 186.809570312 301.25 190.559570312 298.125 281.184570312 208.75 c 2
 374.309570312 116.25 l 1
 591.809570312 333.125 l 2
EndSplineSet
Validated: 524321
EndChar

StartChar: uniF03B
Encoding: 61499 61499 49
Width: 1000
LayerCount: 2
Fore
SplineSet
66.7548828125 665 m 0
 83.0048828125 673.75 137.379882812 675 501.129882812 675 c 0
 968.004882812 675 939.254882812 677.5 979.254882812 628.75 c 2
 998.004882812 605 l 1
 998.004882812 300 l 1
 998.004882812 -5 l 1
 979.254882812 -28.75 l 2
 939.254882812 -77.5 968.004882812 -75 501.129882812 -75 c 0
 34.2548828125 -75 63.0048828125 -77.5 23.0048828125 -28.75 c 2
 4.2548828125 -5 l 1
 2.3798828125 286.25 l 2
 1.1298828125 474.375 3.0048828125 586.25 6.7548828125 600 c 0
 14.2548828125 624.375 37.3798828125 650 66.7548828125 665 c 0
904.254882812 560.625 m 2
 904.254882812 578.125 l 1
 503.629882812 580 l 2
 283.629882812 580.625 101.129882812 579.375 99.2548828125 576.875 c 0
 96.7548828125 575 94.8798828125 566.875 94.8798828125 558.75 c 0
 94.8798828125 547.5 106.754882812 538.125 153.004882812 511.875 c 0
 184.254882812 493.125 276.129882812 440 355.504882812 393.125 c 2
 501.129882812 307.5 l 1
 702.379882812 425.625 l 2
 889.879882812 535 904.254882812 545 904.254882812 560.625 c 2
305.504882812 313.125 m 0
 204.879882812 371.875 116.754882812 424.375 108.629882812 428.75 c 2
 94.8798828125 438.125 l 1
 96.1298828125 230 l 1
 98.0048828125 21.875 l 1
 499.879882812 20 l 2
 819.254882812 18.75 902.379882812 20 904.254882812 26.875 c 0
 906.129882812 30.625 906.754882812 124.375 906.129882812 234.375 c 2
 904.254882812 435 l 1
 710.504882812 320.625 l 2
 603.629882812 258.125 510.504882812 206.875 502.379882812 206.25 c 0
 494.254882812 206.25 406.129882812 254.375 305.504882812 313.125 c 0
EndSplineSet
Validated: 524321
EndChar

StartChar: uniF03C
Encoding: 61500 61500 50
Width: 1000
LayerCount: 2
Fore
SplineSet
437.5 487.5 m 1
 312.5 487.5 l 1
 312.5 550 l 1
 437.5 550 l 1
 437.5 487.5 l 1
625 425 m 1
 625 362.5 l 1
 312.5 362.5 l 1
 312.5 425 l 1
 625 425 l 1
937.5 455 m 1
 937.5 -75 l 2
 937.5 -109.375 909.375 -137.5 875 -137.5 c 2
 125 -137.5 l 2
 90.625 -137.5 62.5 -109.375 62.5 -75 c 2
 62.5 455 l 2
 62.5 475.625 72.5 494.375 88.75 505.625 c 2
 187.5 576.25 l 1
 187.5 612.5 l 2
 187.5 646.875 215.625 675 250 675 c 2
 325 675 l 1
 500 800 l 1
 675 675 l 1
 750 675 l 2
 784.375 675 812.5 646.875 812.5 612.5 c 2
 812.5 576.25 l 1
 911.25 505.625 l 2
 928.125 493.75 937.5 475.625 937.5 455 c 1
250 331.25 m 1
 500 175 l 1
 750 331.25 l 1
 750 612.5 l 1
 250 612.5 l 1
 250 331.25 l 1
125 -43.75 m 1
 406.25 143.75 l 1
 125 331.25 l 1
 125 -43.75 l 1
812.5 -75 m 1
 500 112.5 l 1
 187.5 -75 l 1
 812.5 -75 l 1
875 331.25 m 1
 593.75 143.75 l 1
 875 -43.75 l 1
 875 331.25 l 1
EndSplineSet
Validated: 524289
EndChar

StartChar: uniF03D
Encoding: 61501 61501 51
Width: 1000
LayerCount: 2
Fore
SplineSet
455.2890625 631.875 m 0
 472.1640625 645.625 492.1640625 656.25 500.2890625 656.25 c 0
 508.4140625 656.25 528.4140625 645.625 545.2890625 631.875 c 0
 597.1640625 590.625 802.7890625 377.5 806.5390625 361.25 c 0
 812.1640625 339.375 794.6640625 307.5 775.2890625 302.5 c 0
 753.4140625 296.875 740.9140625 306.25 637.7890625 407.5 c 2
 547.1640625 495 l 1
 545.9140625 253.125 l 1
 544.0390625 11.25 l 1
 521.5390625 -1.875 l 1
 499.0390625 -15 l 1
 476.5390625 -0.625 l 1
 453.4140625 13.75 l 1
 453.4140625 254.375 l 1
 453.4140625 495 l 1
 356.5390625 400.625 l 2
 302.7890625 348.75 252.1640625 304.375 244.0390625 302.5 c 0
 212.7890625 295 185.2890625 326.875 194.0390625 360.625 c 0
 197.7890625 377.5 402.7890625 590 455.2890625 631.875 c 0
EndSplineSet
Validated: 524321
EndChar

StartChar: uniF03E
Encoding: 61502 61502 52
Width: 1000
LayerCount: 2
Fore
SplineSet
496.286132812 611.875 m 0
 520.036132812 630.625 537.536132812 628.125 571.911132812 600.625 c 0
 618.786132812 563.125 827.536132812 348.125 832.536132812 332.5 c 0
 835.661132812 324.375 835.661132812 310.625 833.161132812 301.875 c 0
 828.161132812 281.875 582.536132812 31.875 551.911132812 15 c 0
 531.911132812 4.375 529.411132812 4.375 508.786132812 14.375 c 0
 481.911132812 26.875 474.411132812 49.375 489.411132812 72.5 c 0
 495.036132812 81.25 539.411132812 128.75 587.536132812 178.75 c 2
 675.661132812 268.75 l 1
 434.411132812 268.75 l 1
 193.786132812 268.75 l 1
 179.411132812 291.875 l 1
 165.036132812 314.375 l 1
 178.161132812 336.875 l 1
 191.286132812 359.375 l 1
 432.536132812 362.5 l 1
 673.786132812 365.625 l 1
 601.911132812 437.5 l 2
 518.786132812 520 480.036132812 567.5 480.036132812 586.25 c 0
 480.036132812 593.125 487.536132812 605 496.286132812 611.875 c 0
EndSplineSet
Validated: 524321
EndChar

StartChar: uniF03F
Encoding: 61503 61503 53
Width: 1000
LayerCount: 2
Fore
SplineSet
473.474609375 599.375 m 2
 498.474609375 615.625 499.724609375 615.625 525.349609375 599.375 c 2
 546.599609375 586.25 l 1
 546.599609375 345.625 l 1
 546.599609375 104.375 l 1
 643.474609375 198.75 l 2
 696.599609375 250.625 747.224609375 295 755.974609375 297.5 c 0
 787.224609375 305 814.724609375 273.125 805.974609375 238.75 c 0
 800.974609375 218.75 537.849609375 -46.25 516.599609375 -53.125 c 0
 508.474609375 -55.625 494.724609375 -55.625 485.349609375 -53.125 c 0
 462.849609375 -47.5 199.099609375 216.25 193.474609375 238.125 c 0
 187.849609375 260.625 204.724609375 292.5 224.724609375 297.5 c 0
 246.599609375 303.125 259.099609375 293.75 362.849609375 192.5 c 2
 452.849609375 104.375 l 1
 452.849609375 345.625 l 1
 452.849609375 586.25 l 1
 473.474609375 599.375 l 2
EndSplineSet
Validated: 524321
EndChar

StartChar: uniF040
Encoding: 61504 61504 54
Width: 1000
LayerCount: 2
Fore
SplineSet
428.125 600.625 m 0
 445 614.375 462.5 625 467.5 625 c 0
 485.625 625 513.75 605.625 517.5 590.625 c 0
 523.125 568.75 513.75 556.25 412.5 452.5 c 2
 324.375 362.5 l 1
 565.625 362.5 l 1
 806.25 362.5 l 1
 820.625 339.375 l 1
 835 316.875 l 1
 821.875 294.375 l 1
 808.75 271.875 l 1
 566.875 270 l 1
 324.375 268.75 l 1
 418.75 171.875 l 2
 470.625 118.75 515 68.125 517.5 59.375 c 0
 525 28.125 493.125 0.625 458.75 9.375 c 0
 438.75 14.375 173.75 277.5 166.875 298.75 c 0
 164.375 306.875 164.375 320.625 166.875 329.375 c 0
 170.625 346.25 375.625 558.75 428.125 600.625 c 0
EndSplineSet
Validated: 524321
EndChar

StartChar: uniF041
Encoding: 61505 61505 55
Width: 1000
LayerCount: 2
Fore
SplineSet
342.436523438 780 m 0
 372.436523438 788.75 386.811523438 788.75 411.811523438 780.625 c 0
 446.186523438 768.75 467.436523438 744.375 496.811523438 681.25 c 0
 549.311523438 570 576.811523438 550 721.186523438 515.625 c 0
 773.061523438 503.125 823.686523438 487.5 834.936523438 481.25 c 0
 873.686523438 457.5 893.686523438 402.5 879.936523438 358.125 c 0
 874.311523438 341.25 848.686523438 310.625 793.686523438 254.375 c 2
 714.936523438 175 l 1
 838.061523438 51.25 l 2
 971.811523438 -83.125 976.811523438 -91.25 945.561523438 -121.875 c 0
 914.936523438 -153.125 906.811523438 -148.125 772.436523438 -14.375 c 2
 648.686523438 108.75 l 1
 569.311523438 30 l 2
 513.061523438 -25 482.436523438 -50.625 465.561523438 -56.25 c 0
 421.811523438 -70 366.186523438 -50 342.436523438 -11.25 c 0
 336.186523438 -0.625 320.561523438 50.625 308.061523438 102.5 c 0
 273.686523438 246.875 254.311523438 273.75 142.436523438 326.25 c 0
 109.936523438 341.875 75.5615234375 362.5 66.1865234375 372.5 c 0
 42.4365234375 398.125 32.4365234375 439.375 42.4365234375 475 c 0
 48.6865234375 499.375 66.1865234375 520 184.936523438 638.75 c 0
 286.186523438 739.375 326.186523438 775.625 342.436523438 780 c 0
424.936523438 617.5 m 0
 405.561523438 656.875 386.186523438 690.625 383.061523438 691.875 c 0
 373.686523438 695 127.436523438 446.25 132.436523438 438.75 c 0
 134.311523438 435 166.186523438 418.125 202.436523438 400.625 c 0
 278.686523438 364.375 329.311523438 318.75 357.436523438 261.875 c 0
 366.811523438 242.5 384.311523438 184.375 397.436523438 132.5 c 0
 412.436523438 70 423.061523438 36.875 429.311523438 34.375 c 0
 442.436523438 29.375 794.311523438 381.25 789.311523438 394.375 c 0
 786.811523438 400.625 753.686523438 411.25 691.186523438 426.25 c 0
 529.936523438 465.625 484.311523438 498.75 424.936523438 617.5 c 0
EndSplineSet
Validated: 524321
EndChar

StartChar: uniF042
Encoding: 61506 61506 56
Width: 1000
LayerCount: 2
Fore
SplineSet
235 787.5 m 0xf4
 276.25 804.375 335.625 801.25 381.875 780 c 0
 418.125 763.125 466.875 717.5 485 683.75 c 0
 491.25 671.875 498.125 662.5 500 662.5 c 0
 501.875 662.5 508.75 672.5 515 684.375 c 0
 546.875 743.125 618.125 791.25 683.125 798.125 c 0
 805.625 810.625 905.625 689.375 866.25 576.25 c 2
 857.5 551.25 l 1
 894.375 548.75 l 2
 923.125 546.875 935.625 542.5 953.75 527.5 c 0
 993.75 495 1000 476.25 1000 386.875 c 0xf5
 1000 283.75 997.5 271.875 965 239.375 c 2
 938.125 212.5 l 1
 936.25 41.25 l 1
 934.375 -130 l 1
 915.625 -153.75 l 2
 875.625 -202.5 896.25 -200 500 -200 c 0
 103.75 -200 124.375 -202.5 84.375 -153.75 c 2
 65.625 -130 l 1
 63.75 41.25 l 1xee
 61.875 212.5 l 1
 35 239.375 l 2
 2.5 271.875 0 283.75 0 386.875 c 0
 0 476.875 6.25 496.25 45.625 527.5 c 0
 63.75 541.875 76.875 546.875 105.625 548.75 c 2
 142.5 551.25 l 1
 133.75 576.25 l 2
 105.625 656.875 151.875 754.375 235 787.5 c 0xf4
339.375 697.5 m 0
 263.75 730 190 656.25 231.25 589.375 c 0
 251.25 555.625 270.625 550 360 550 c 2
 438.75 550 l 1
 434.375 567.5 l 2
 421.25 620 376.25 681.875 339.375 697.5 c 0
738.125 696.875 m 0
 700.625 716.25 655.625 705 620.625 668.125 c 0
 600 645.625 572.5 596.25 565.625 567.5 c 2
 561.25 550 l 1
 640 550 l 2
 729.375 550 748.75 555.625 768.75 589.375 c 0
 775.625 600.625 781.25 618.125 781.25 628.125 c 0
 781.25 653.125 761.25 684.375 738.125 696.875 c 0
450 378.125 m 1
 450 456.25 l 1
 275 456.25 l 2
 135.625 456.25 98.75 454.375 96.25 448.125 c 0
 95 443.75 94.375 409.375 95 371.25 c 2
 96.875 303.125 l 1
 273.75 301.25 l 1
 450 300 l 1
 450 378.125 l 1
903.125 378.125 m 1
 903.125 453.125 l 1
 726.875 455 l 1
 550 456.25 l 1
 550 378.125 l 1
 550 300 l 1
 726.875 301.25 l 1
 903.125 303.125 l 1
 903.125 378.125 l 1
450 50 m 1
 450 206.25 l 1
 303.125 206.25 l 1
 156.25 206.25 l 1
 157.5 51.875 l 1xec
 159.375 -103.125 l 1
 305 -105 l 1
 450 -106.25 l 1
 450 50 l 1
842.5 51.875 m 1xe6
 843.75 206.25 l 1
 696.875 206.25 l 1
 550 206.25 l 1
 550 50 l 1
 550 -106.25 l 1
 695.625 -105 l 1
 840.625 -103.125 l 1
 842.5 51.875 l 1xe6
EndSplineSet
Validated: 524321
EndChar

StartChar: uniF043
Encoding: 61507 61507 57
Width: 1000
LayerCount: 2
Fore
SplineSet
15.9375 721.875 m 2
 24.0625 730.625 38.4375 737.5 47.1875 737.5 c 0
 55.9375 737.5 70.3125 730.625 78.4375 721.875 c 2
 94.0625 706.875 l 1
 94.0625 331.25 l 1
 94.0625 -43.75 l 1
 531.5625 -43.75 l 1
 969.6875 -43.75 l 1
 984.6875 -59.375 l 2
 1004.6875 -78.75 1004.6875 -102.5 984.6875 -121.875 c 2
 969.6875 -137.5 l 1
 500.3125 -137.5 l 1
 30.9375 -137.5 l 1
 15.9375 -121.875 l 1
 0.3125 -106.875 l 1
 0.3125 300 l 1
 0.3125 706.875 l 1
 15.9375 721.875 l 2
780.9375 458.75 m 2
 933.4375 610.625 937.1875 614.375 957.8125 610 c 0
 983.4375 605 992.8125 595.625 997.8125 570 c 0
 1002.1875 549.375 999.0625 545.625 824.6875 371.25 c 0
 659.6875 206.25 645.9375 193.75 625.3125 193.75 c 0
 605.9375 193.75 595.3125 201.875 520.9375 276.25 c 2
 437.8125 358.75 l 1
 344.6875 266.25 l 2
 254.0625 176.875 250.3125 173.75 230.3125 177.5 c 0
 204.6875 182.5 195.3125 191.875 190.3125 217.5 c 0
 185.9375 237.5 189.6875 241.25 300.9375 353.75 c 0
 447.8125 501.25 429.6875 498.75 542.1875 386.25 c 2
 625.3125 303.125 l 1
 780.9375 458.75 l 2
EndSplineSet
Validated: 524321
EndChar

StartChar: uniF044
Encoding: 61508 61508 58
Width: 1000
LayerCount: 2
Fore
SplineSet
487.51171875 416.875 m 0
 565.01171875 494.375 600.01171875 525.625 608.13671875 523.75 c 0
 619.38671875 521.875 620.01171875 511.875 620.01171875 300 c 0
 620.01171875 103.125 618.76171875 78.125 610.01171875 76.25 c 0
 601.26171875 74.375 385.63671875 285 380.01171875 300.625 c 0
 378.76171875 304.375 426.88671875 356.875 487.51171875 416.875 c 0
EndSplineSet
Validated: 524321
EndChar

StartChar: uniF045
Encoding: 61509 61509 59
Width: 1000
LayerCount: 2
Fore
SplineSet
66.7548828125 665 m 0
 83.0048828125 673.75 137.379882812 675 501.129882812 675 c 0
 968.004882812 675 939.254882812 677.5 979.254882812 628.75 c 2
 998.004882812 605 l 1
 998.004882812 300 l 1
 998.004882812 -5 l 1
 979.254882812 -28.75 l 2
 939.254882812 -77.5 968.004882812 -75 501.129882812 -75 c 0
 34.2548828125 -75 63.0048828125 -77.5 23.0048828125 -28.75 c 2
 4.2548828125 -5 l 1
 2.3798828125 286.25 l 2
 1.1298828125 474.375 3.0048828125 586.25 6.7548828125 600 c 0
 14.2548828125 624.375 37.3798828125 650 66.7548828125 665 c 0
906.129882812 533.125 m 1
 904.254882812 578.125 l 1
 503.629882812 580 l 2
 283.629882812 580.625 101.129882812 579.375 99.2548828125 576.875 c 0
 96.7548828125 575 94.8798828125 553.75 94.8798828125 530 c 2
 94.8798828125 487.5 l 1
 501.129882812 487.5 l 1
 908.004882812 487.5 l 1
 906.129882812 533.125 l 1
906.129882812 208.125 m 1
 907.379882812 393.75 l 1
 501.129882812 393.75 l 1
 94.8798828125 393.75 l 1
 96.1298828125 208.125 l 1
 98.0048828125 21.875 l 1
 501.129882812 21.875 l 1
 904.254882812 21.875 l 1
 906.129882812 208.125 l 1
641.754882812 221.875 m 0
 655.504882812 236.25 661.129882812 237.5 719.879882812 237.5 c 0
 778.629882812 237.5 784.254882812 236.25 798.004882812 221.875 c 0
 818.004882812 202.5 818.004882812 178.75 798.004882812 159.375 c 0
 784.254882812 145 778.629882812 143.75 719.879882812 143.75 c 0
 661.129882812 143.75 655.504882812 145 641.754882812 159.375 c 0
 633.004882812 167.5 626.129882812 181.875 626.129882812 190.625 c 0
 626.129882812 199.375 633.004882812 213.75 641.754882812 221.875 c 0
EndSplineSet
Validated: 524321
EndChar

StartChar: uniF046
Encoding: 61510 61510 60
Width: 1000
LayerCount: 2
Fore
SplineSet
415.315429688 793.125 m 0
 457.190429688 801.25 575.940429688 796.875 618.440429688 785.625 c 0
 749.065429688 750 848.440429688 678.75 918.440429688 570.625 c 0
 974.065429688 485.625 996.565429688 408.75 996.565429688 300 c 0
 996.565429688 159.375 949.065429688 43.125 852.815429688 -53.125 c 0
 756.565429688 -149.375 640.315429688 -196.875 499.690429688 -196.875 c 0
 359.065429688 -196.875 242.815429688 -149.375 146.565429688 -53.125 c 0
 50.3154296875 43.75 2.8154296875 159.375 3.4404296875 300 c 0
 3.4404296875 413.125 26.5654296875 492.5 87.1904296875 580.625 c 0
 162.190429688 691.25 277.190429688 766.25 415.315429688 793.125 c 0
584.065429688 696.875 m 0
 447.815429688 725.625 316.565429688 685.625 215.315429688 585 c 0
 174.690429688 545 158.440429688 523.125 137.815429688 481.25 c 0
 79.0654296875 360.625 79.0654296875 238.75 137.815429688 118.75 c 0
 189.690429688 13.125 300.315429688 -73.125 415.315429688 -96.875 c 0
 506.565429688 -116.25 593.440429688 -104.375 680.940429688 -61.875 c 0
 755.315429688 -25 824.690429688 44.375 861.565429688 118.75 c 0
 920.315429688 239.375 920.315429688 360.625 861.565429688 481.25 c 0
 809.690429688 586.875 699.065429688 673.125 584.065429688 696.875 c 0
452.815429688 534.375 m 0
 460.940429688 543.125 475.315429688 550 484.065429688 550 c 0
 492.815429688 550 507.190429688 543.125 515.315429688 534.375 c 0
 530.940429688 519.375 530.940429688 517.5 530.940429688 417.5 c 2
 530.940429688 315.625 l 1
 600.315429688 288.125 l 2
 676.565429688 258.125 690.940429688 245 684.065429688 212.5 c 0
 679.690429688 192.5 660.315429688 175 642.190429688 175 c 0
 620.315429688 175 455.940429688 245 446.565429688 258.125 c 0
 439.065429688 268.75 437.190429688 296.25 437.190429688 395.625 c 0
 437.190429688 518.75 437.190429688 519.375 452.815429688 534.375 c 0
EndSplineSet
Validated: 524321
EndChar

StartChar: uniF047
Encoding: 61511 61511 61
Width: 1000
LayerCount: 2
Fore
SplineSet
231.875 658.125 m 2
 250 675 l 1
 500 675 l 1
 750 675 l 1
 768.125 658.125 l 2
 788.125 639.375 977.5 395 992.5 368.125 c 0
 998.125 358.75 1000.625 346.25 998.125 336.875 c 0
 995.625 328.125 965 293.125 930 258.75 c 0
 894.375 225 787.5 121.875 692.5 30 c 0
 543.125 -114.375 516.875 -137.5 500 -137.5 c 0
 483.75 -137.5 450 -107.5 243.75 91.875 c 0
 98.125 231.875 4.375 327.5 1.875 336.875 c 0
 -0.625 346.25 1.875 358.75 7.5 368.125 c 0
 22.5 395 211.875 639.375 231.875 658.125 c 2
800 468.125 m 2
 711.875 581.25 l 1
 500 581.25 l 1
 288.125 581.25 l 1
 266.875 555 l 2
 200.625 471.875 112.5 353.75 113.75 350 c 0
 115 347.5 201.875 261.875 308.125 160 c 2
 500 -26.25 l 1
 666.25 135 l 2
 757.5 223.75 845 307.5 860 320.625 c 0
 875 333.75 887.5 347.5 887.5 350 c 0
 887.5 353.125 848.125 406.25 800 468.125 c 2
EndSplineSet
Validated: 524321
EndChar

StartChar: uniF048
Encoding: 61512 61512 62
Width: 1000
LayerCount: 2
Fore
SplineSet
129.595703125 698.75 m 0x00
 152.720703125 723.75 185.220703125 726.25 205.220703125 705 c 0
 224.595703125 683.75 220.845703125 663.125 189.595703125 625 c 0
 130.220703125 553.75 92.720703125 451.875 92.720703125 362.5 c 0
 92.720703125 275 130.220703125 170.625 186.470703125 103.75 c 0
 218.345703125 65 223.345703125 47.5 207.095703125 26.25 c 0
 198.345703125 14.375 187.720703125 8.75 171.470703125 7.5 c 0
 144.595703125 5 127.095703125 21.25 79.595703125 92.5 c 0
 48.970703125 139.375 30.845703125 180.625 12.720703125 246.875 c 0
 -2.279296875 300.625 -1.029296875 426.25 13.970703125 484.375 c 0
 34.595703125 562.5 78.345703125 643.75 129.595703125 698.75 c 0x00
792.720703125 705 m 0
 801.470703125 714.375 813.345703125 718.75 827.720703125 718.75 c 0
 853.970703125 718.75 872.720703125 700.625 918.345703125 632.5 c 0
 1035.84570312 454.375 1022.09570312 212.5 884.595703125 45 c 0
 870.845703125 28.75 853.345703125 11.875 845.220703125 7.5 c 0
 815.845703125 -8.125 780.220703125 15 780.220703125 50 c 0
 780.220703125 59.375 791.470703125 79.375 808.345703125 100 c 0
 867.720703125 171.25 905.220703125 273.125 905.220703125 362.5 c 0
 905.220703125 451.875 867.720703125 553.75 808.345703125 625 c 0
 777.095703125 663.125 773.345703125 683.75 792.720703125 705 c 0
257.720703125 559.375 m 0
 282.720703125 585.625 305.220703125 588.125 327.095703125 565.625 c 0
 348.345703125 545 346.470703125 531.25 318.345703125 483.75 c 0
 264.595703125 395 268.345703125 319.375 330.845703125 218.125 c 0
 343.345703125 198.125 343.970703125 193.75 337.095703125 176.25 c 0
 327.095703125 152.5 301.470703125 140.625 278.345703125 149.375 c 0
 241.470703125 163.75 194.595703125 261.25 188.345703125 338.125 c 0
 182.095703125 415.625 211.470703125 510 257.720703125 559.375 c 0
678.970703125 571.875 m 0
 712.720703125 590.625 745.845703125 567.5 777.095703125 503.125 c 0
 827.720703125 400 819.595703125 276.875 756.470703125 186.25 c 0
 728.970703125 147.5 706.470703125 136.25 681.470703125 150.625 c 0
 655.220703125 165 649.595703125 190 666.470703125 217.5 c 0
 705.845703125 281.875 714.595703125 307.5 714.595703125 362.5 c 0
 714.595703125 417.5 705.845703125 443.75 667.095703125 506.25 c 0
 650.220703125 533.75 654.595703125 558.125 678.970703125 571.875 c 0
442.095703125 454.375 m 0
 471.470703125 474.375 526.470703125 474.375 555.845703125 454.375 c 0
 589.595703125 431.875 605.220703125 403.125 605.220703125 364.375 c 0x80
 605.220703125 325.625 594.595703125 301.875 567.720703125 279.375 c 2
 548.970703125 263.125 l 1
 548.970703125 92.5 l 2
 548.970703125 -1.25 546.470703125 -87.5 542.720703125 -99.375 c 0
 528.345703125 -150.625 469.595703125 -150.625 455.220703125 -99.375 c 0
 451.470703125 -87.5 448.970703125 -1.25 448.970703125 92.5 c 2
 448.970703125 263.125 l 1x40
 430.220703125 279.375 l 2
 403.345703125 301.875 392.720703125 325.625 392.720703125 364.375 c 0x80
 392.720703125 403.125 408.345703125 431.875 442.095703125 454.375 c 0
EndSplineSet
Validated: 524321
EndChar

StartChar: uniF049
Encoding: 61513 61513 63
Width: 1000
LayerCount: 2
Fore
SplineSet
601.412109375 796.25 m 0
 639.537109375 803.75 730.162109375 794.375 771.412109375 779.375 c 0
 1039.53710938 681.875 1082.03710938 323.75 843.287109375 168.125 c 0
 781.412109375 128.125 735.162109375 115.625 647.662109375 115.625 c 2
 571.412109375 115.625 l 1
 537.037109375 83.125 l 2
 504.537109375 51.875 500.162109375 50 470.787109375 50 c 2
 438.912109375 50 l 1
 438.912109375 18.125 l 2
 438.912109375 -12.5 437.037109375 -16.25 408.287109375 -44.375 c 0
 380.162109375 -73.125 376.412109375 -75 345.787109375 -75 c 2
 313.912109375 -75 l 1
 313.912109375 -106.875 l 2
 313.912109375 -137.5 312.037109375 -141.25 283.287109375 -169.375 c 2
 253.287109375 -200 l 1
 169.537109375 -200 l 2
 74.537109375 -200 56.412109375 -194.375 23.287109375 -153.75 c 0
 4.537109375 -130 4.537109375 -130 2.662109375 -39.375 c 2
 0.162109375 51.875 l 1
 158.912109375 210.625 l 1
 317.037109375 369.375 l 1
 317.662109375 448.75 l 2
 317.662109375 513.75 320.162109375 535 331.412109375 565 c 0
 376.412109375 686.875 475.787109375 771.875 601.412109375 796.25 c 0
760.162109375 682.5 m 0
 728.912109375 696.875 709.537109375 701.875 671.412109375 703.75 c 0
 614.537109375 706.25 587.037109375 700 538.287109375 673.75 c 0
 491.412109375 649.375 455.787109375 610 430.787109375 557.5 c 0
 414.537109375 522.5 411.412109375 508.75 411.412109375 465.625 c 0
 410.787109375 438.125 413.287109375 399.375 416.412109375 379.375 c 2
 422.037109375 342.5 l 1
 258.287109375 178.75 l 1
 94.537109375 15 l 1
 96.412109375 -43.75 l 1
 98.287109375 -103.125 l 1
 159.537109375 -105 l 1
 220.162109375 -106.875 l 1
 220.162109375 -59.375 l 2
 220.162109375 -17.5 222.037109375 -10 235.787109375 3.125 c 0
 248.912109375 16.875 256.412109375 18.75 298.287109375 18.75 c 2
 345.162109375 18.75 l 1
 345.162109375 65.625 l 2
 345.162109375 107.5 347.037109375 115 360.787109375 128.125 c 0
 373.912109375 141.875 381.412109375 143.75 421.412109375 143.75 c 2
 467.662109375 143.75 l 1
 504.537109375 181.875 l 1
 542.037109375 220 l 1
 579.537109375 215 l 2
 600.162109375 211.875 639.537109375 210 667.037109375 210 c 0
 710.162109375 210 723.287109375 213.125 758.912109375 229.375 c 0
 816.412109375 256.25 853.287109375 291.875 881.412109375 348.75 c 0
 903.287109375 393.75 904.537109375 399.375 904.537109375 456.25 c 0
 904.537109375 513.125 903.287109375 518.75 881.412109375 563.75 c 0
 853.287109375 620 817.037109375 656.25 760.162109375 682.5 c 0
658.287109375 541.25 m 0
 699.537109375 564.375 751.412109375 533.75 751.412109375 486.875 c 0
 751.412109375 455.625 720.787109375 425 688.912109375 425 c 0
 627.037109375 425 603.912109375 511.25 658.287109375 541.25 c 0
EndSplineSet
Validated: 524321
EndChar

StartChar: uniF04A
Encoding: 61514 61514 64
Width: 1000
LayerCount: 2
Fore
SplineSet
750 237.5 m 1xe6
 625 237.5 l 1
 625 -200 l 1
 500 -200 l 1
 500 237.5 l 1
 375 237.5 l 1
 515.625 425 l 1
 375 425 l 1
 562.5 675 l 1
 750 425 l 1
 609.375 425 l 1
 750 237.5 l 1xe6
812.5 800 m 1
 846.875 800 875 771.875 875 737.5 c 2
 875 -12.5 l 2
 875 -46.875 846.875 -75 812.5 -75 c 2
 687.5 -75 l 1
 687.5 -12.5 l 1
 812.5 -12.5 l 1
 812.5 112.5 l 1
 687.5 112.5 l 1
 687.5 175 l 1
 812.5 175 l 1
 812.5 737.5 l 1
 250 737.5 l 1
 250 175 l 1xf6
 437.5 175 l 1
 437.5 112.5 l 1
 187.5 112.5 l 1
 187.5 -12.5 l 1
 437.5 -12.5 l 1
 437.5 -75 l 1
 187.5 -75 l 2
 153.125 -75 125 -46.875 125 -12.5 c 2xee
 125 737.5 l 2xf6
 125 771.875 153.125 800 187.5 800 c 2xee
 812.5 800 l 1
EndSplineSet
Validated: 524289
EndChar

StartChar: uniF04C
Encoding: 61516 61516 65
Width: 1000
Flags: W
LayerCount: 2
Fore
SplineSet
31.640625 791.25 m 0xc1e8
 43.515625 797.5 97.265625 799.375 273.515625 800 c 2
 499.765625 800 l 1
 499.765625 768.75 l 1
 499.765625 737.5 l 1
 312.265625 737.5 l 1
 124.765625 737.5 l 1
 124.765625 456.25 l 1
 124.765625 175 l 1
 437.265625 175 l 1
 749.765625 175 l 1
 749.765625 75 l 2
 749.765625 -35 745.390625 -53.75 715.390625 -67.5 c 0
 704.140625 -72.5 649.140625 -75 537.265625 -75 c 2
 374.765625 -75 l 1
 374.765625 -136.875 l 1
 374.765625 -198.125 l 1
 327.890625 -150.625 l 1
 281.015625 -103.125 l 1
 234.140625 -150.625 l 1
 187.265625 -198.125 l 1
 187.265625 -136.875 l 1
 187.265625 -75 l 1
 118.515625 -75 l 2
 41.640625 -75 19.765625 -68.125 7.265625 -40.625 c 0
 1.640625 -28.75 -0.234375 75.625 -0.234375 364.375 c 0
 0.390625 780.625 -0.234375 773.75 31.640625 791.25 c 0xc1e8
687.265625 50 m 1
 687.265625 112.5 l 1
 374.765625 112.5 l 1
 62.265625 112.5 l 1
 62.265625 50 l 1
 62.265625 -12.5 l 1
 124.765625 -12.5 l 1
 187.265625 -12.5 l 1
 187.265625 18.75 l 1
 187.265625 50 l 1
 281.015625 50 l 1
 374.765625 50 l 1
 374.765625 18.75 l 1
 374.765625 -12.5 l 1
 531.015625 -12.5 l 1
 687.265625 -12.5 l 1
 687.265625 50 l 1
562.265625 575 m 2xd1f0
 562.265625 800 l 1xd1f0
 756.015625 800 l 2
 966.640625 800 977.265625 798.75 992.265625 765.625 c 0
 1002.890625 742.5 1002.890625 357.5 992.265625 334.375 c 0
 978.515625 304.375 959.765625 300 849.765625 300 c 2
 749.765625 300 l 1xd1e8
 749.765625 268.75 l 1
 749.765625 237.5 l 1
 718.515625 237.5 l 1
 687.265625 237.5 l 1xe1e8
 687.265625 268.75 l 1
 687.265625 300 l 1xd1e8
 649.765625 300 l 2
 629.765625 300 605.390625 303.125 596.640625 307.5 c 0
 563.515625 322.5 562.265625 330 562.265625 575 c 2xd1f0
937.265625 612.5 m 1
 937.265625 737.5 l 1
 812.265625 737.5 l 1
 687.265625 737.5 l 1
 687.265625 612.5 l 1xc5f0
 687.265625 487.5 l 1xc3e8
 812.265625 487.5 l 1
 937.265625 487.5 l 1xc5e8
 937.265625 612.5 l 1
687.265625 393.75 m 1xd1e8
 687.265625 425 l 1
 656.015625 425 l 1
 624.765625 425 l 1xd5e8
 624.765625 393.75 l 1
 624.765625 362.5 l 1xc9e8
 656.015625 362.5 l 1
 687.265625 362.5 l 1
 687.265625 393.75 l 1xd1e8
937.265625 393.75 m 1
 937.265625 425 l 1
 843.515625 425 l 1
 749.765625 425 l 1
 749.765625 393.75 l 1
 749.765625 362.5 l 1
 843.515625 362.5 l 1xd5e8
 937.265625 362.5 l 1xc9e8
 937.265625 393.75 l 1
187.265625 643.75 m 1
 187.265625 675 l 1
 218.515625 675 l 1
 249.765625 675 l 1
 249.765625 643.75 l 1
 249.765625 612.5 l 1
 218.515625 612.5 l 1
 187.265625 612.5 l 1
 187.265625 643.75 l 1
187.265625 518.75 m 1
 187.265625 550 l 1
 218.515625 550 l 1
 249.765625 550 l 1
 249.765625 518.75 l 1
 249.765625 487.5 l 1
 218.515625 487.5 l 1
 187.265625 487.5 l 1xc3e0
 187.265625 518.75 l 1
187.265625 393.75 m 1
 187.265625 425 l 1
 218.515625 425 l 1
 249.765625 425 l 1
 249.765625 393.75 l 1
 249.765625 362.5 l 1
 218.515625 362.5 l 1
 187.265625 362.5 l 1xc9e0
 187.265625 393.75 l 1
187.265625 268.75 m 1
 187.265625 300 l 1
 218.515625 300 l 1
 249.765625 300 l 1
 249.765625 268.75 l 1
 249.765625 237.5 l 1
 218.515625 237.5 l 1
 187.265625 237.5 l 1xe1e0
 187.265625 268.75 l 1
EndSplineSet
Validated: 524321
EndChar

StartChar: uniF04D
Encoding: 61517 61517 66
Width: 1000
Flags: W
LayerCount: 2
Fore
SplineSet
473.125 728.75 m 0
 487.5 739.375 512.5 739.375 526.875 728.75 c 0
 545 715 550 683.75 550 583.125 c 2
 550 487.5 l 1
 658.125 487.5 l 2
 758.75 487.5 767.5 486.875 780 475 c 0
 798.75 457.5 798.75 423.75 780 406.25 c 0
 767.5 394.375 758.75 393.75 658.125 393.75 c 2
 550 393.75 l 1
 550 298.125 l 2
 550 171.875 541.25 144.375 500 144.375 c 0
 458.75 144.375 450 171.875 450 298.125 c 2
 450 393.75 l 1
 341.875 393.75 l 2
 241.25 393.75 232.5 394.375 220 406.25 c 0
 201.25 423.75 201.25 457.5 220 475 c 0
 232.5 486.875 241.25 487.5 341.875 487.5 c 2
 450 487.5 l 1
 450 583.125 l 2
 450 683.75 455 715 473.125 728.75 c 0
220 -25 m 0
 233.125 -13.125 240.625 -12.5 500 -12.5 c 0
 759.375 -12.5 766.875 -13.125 780 -25 c 0
 798.75 -42.5 798.75 -76.25 780 -93.75 c 0
 766.875 -105.625 759.375 -106.25 500 -106.25 c 0
 240.625 -106.25 233.125 -105.625 220 -93.75 c 0
 211.25 -85 206.25 -73.125 206.25 -59.375 c 0
 206.25 -45.625 211.25 -33.75 220 -25 c 0
EndSplineSet
Validated: 524321
EndChar

StartChar: uniF04E
Encoding: 61518 61518 67
Width: 1000
Flags: W
LayerCount: 2
Fore
SplineSet
408.185546875 662.5 m 0
 471.310546875 679.375 553.810546875 676.25 623.185546875 653.75 c 0
 735.685546875 617.5 860.685546875 515.625 956.935546875 381.25 c 0
 983.810546875 343.125 985.685546875 338.75 985.685546875 300 c 0
 985.685546875 261.25 983.810546875 256.875 956.935546875 218.75 c 0
 861.935546875 86.25 736.310546875 -16.875 623.185546875 -54.375 c 0
 581.935546875 -68.125 561.310546875 -71.25 504.435546875 -71.25 c 0
 445.060546875 -71.875 428.185546875 -69.375 381.310546875 -53.75 c 0
 265.685546875 -16.25 138.810546875 87.5 43.810546875 221.25 c 0
 23.185546875 250 17.560546875 265 15.060546875 290 c 0
 11.935546875 331.25 16.935546875 343.125 63.185546875 404.375 c 0
 165.060546875 539.375 285.060546875 629.375 408.185546875 662.5 c 0
571.935546875 571.25 m 0
 485.685546875 593.75 392.560546875 573.125 303.185546875 511.875 c 0
 238.185546875 466.875 107.560546875 325.625 107.560546875 300 c 0
 107.560546875 285.625 173.810546875 204.375 225.060546875 155 c 0
 300.060546875 83.75 358.810546875 47.5 434.435546875 27.5 c 0
 520.060546875 5 614.435546875 28.125 710.685546875 96.875 c 0
 772.560546875 141.25 895.060546875 275.625 895.060546875 300 c 0
 895.060546875 312.5 848.185546875 372.5 795.685546875 427.5 c 0
 720.685546875 505 648.185546875 551.875 571.935546875 571.25 c 0
458.810546875 418.125 m 0
 491.935546875 428.125 543.185546875 421.875 570.060546875 403.75 c 0
 606.935546875 379.375 623.185546875 348.125 623.185546875 300 c 0
 623.185546875 251.25 606.935546875 220.625 568.185546875 195 c 0
 533.185546875 171.875 472.560546875 170.625 436.935546875 193.125 c 0
 389.435546875 222.5 367.560546875 280.625 381.935546875 336.25 c 0
 390.685546875 368.125 428.810546875 409.375 458.810546875 418.125 c 0
EndSplineSet
Validated: 524321
EndChar

StartChar: uniF04F
Encoding: 61519 61519 68
Width: 1000
Flags: W
LayerCount: 2
Fore
SplineSet
65.625 727.5 m 0
 81.875 736.25 123.75 737.5 375 737.5 c 0
 701.25 737.5 688.75 739.375 728.125 691.25 c 2
 746.875 667.5 l 1
 748.75 463.75 l 2
 750.625 233.75 750.625 235.625 703.75 196.875 c 2
 680 178.125 l 1
 560.625 176.25 l 1
 440.625 174.375 l 1
 350 85 l 2
 254.375 -9.375 240.625 -18.125 196.875 -10 c 0
 170 -5 144.375 15.625 133.75 41.25 c 0
 128.75 53.75 125 84.375 125 117.5 c 2
 125 173.125 l 1
 96.25 176.875 l 2
 63.125 180.625 29.375 205 11.875 237.5 c 0
 1.25 257.5 0 276.25 0 455 c 0
 0 664.375 1.875 676.25 31.875 704.375 c 0
 40 711.875 55.625 722.5 65.625 727.5 c 0
653.125 456.25 m 1
 653.125 640.625 l 1
 376.25 642.5 l 2
 156.875 643.75 98.75 642.5 96.875 635.625 c 0
 95 631.25 94.375 548.125 95 450 c 2
 96.875 271.875 l 1
 145.625 268.75 l 2
 215.625 264.375 218.75 259.375 218.75 160.625 c 2
 218.75 84.375 l 1
 309.375 175 l 1
 400 265.625 l 1
 526.875 268.75 l 1
 653.125 271.875 l 1
 653.125 456.25 l 1
828.75 598.125 m 0
 843.125 612.5 848.125 613.75 887.5 611.25 c 0
 923.75 609.375 934.375 606.25 953.75 590 c 0
 1000 553.125 1000 552.5 1000 331.25 c 0
 1000 151.25 998.75 132.5 988.125 112.5 c 0
 970.625 80 936.875 55.625 903.75 51.875 c 2
 875 48.125 l 1
 875 -7.5 l 2
 875 -40.625 871.25 -71.25 866.25 -83.75 c 0
 855.625 -109.375 830 -130 801.875 -135 c 0
 758.75 -143.125 739.375 -130.625 648.125 -38.75 c 0
 555 55 548.125 68.125 576.25 98.125 c 0
 603.75 127.5 619.375 120 704.375 36.25 c 2
 781.25 -40 l 1
 781.25 35.625 l 2
 781.25 134.375 784.375 139.375 854.375 143.75 c 2
 903.125 146.875 l 1
 903.125 331.25 l 1
 903.125 515.625 l 1
 869.375 518.75 l 2
 844.375 521.25 833.125 526.25 824.375 536.875 c 0
 808.125 556.875 809.375 578.75 828.75 598.125 c 0
EndSplineSet
Validated: 524321
EndChar

StartChar: uniF051
Encoding: 61521 61521 69
Width: 1000
Flags: W
LayerCount: 2
Fore
SplineSet
214.375 545 m 0
 348.125 679.375 358.125 687.5 379.375 687.5 c 0
 407.5 687.5 428.125 668.125 428.125 641.875 c 0
 428.125 626.25 411.875 606.875 330 524.375 c 2
 231.875 425 l 1
 445.625 425 l 2
 576.875 425 671.25 422.5 691.875 418.125 c 0
 803.125 395 898.125 300 921.25 188.75 c 0
 925 170.625 928.125 110.625 928.125 55.625 c 0
 928.125 -41.875 927.5 -44.375 912.5 -59.375 c 0
 894.375 -78.125 872.5 -79.375 852.5 -63.125 c 0
 838.125 -51.25 837.5 -47.5 834.375 63.75 c 0
 831.25 165.625 829.375 181.875 816.875 209.375 c 0
 798.125 250 753.125 295.625 713.125 313.75 c 0
 681.875 327.5 675.625 328.125 456.25 330 c 2
 231.25 331.875 l 1
 330 232.5 l 2
 411.25 150 428.125 129.375 428.125 114.375 c 0
 428.125 76.25 393.75 53.75 360.625 71.25 c 0
 351.25 76.25 282.5 141.875 208.125 216.875 c 0
 76.875 348.75 71.875 355 71.875 378.125 c 0
 71.875 401.875 76.875 408.125 214.375 545 c 0
EndSplineSet
Validated: 524321
EndChar

StartChar: uniF052
Encoding: 61522 61522 70
Width: 1000
LayerCount: 2
Fore
SplineSet
441.25 543.75 m 0
 455 546.875 487.5 548.75 513.75 547.5 c 0
 606.25 543.125 681.25 492.5 723.75 407.5 c 0
 745.625 362.5 746.875 356.875 746.875 300 c 0
 746.875 243.125 745.625 237.5 723.75 192.5 c 0
 695.625 135.625 659.375 100.625 601.25 73.125 c 0
 563.125 55 553.75 53.125 500 53.125 c 0
 446.25 53.125 436.875 55 398.75 73.125 c 0
 340.625 100.625 304.375 135.625 276.25 192.5 c 0
 254.375 237.5 253.125 243.125 253.125 299.375 c 0
 253.125 353.75 255 363.125 273.125 401.25 c 0
 283.75 424.375 304.375 455.625 318.125 470.625 c 0
 345.625 500 401.875 533.75 441.25 543.75 c 0
EndSplineSet
Validated: 524321
EndChar

StartChar: uniF053
Encoding: 61523 61523 71
Width: 1000
LayerCount: 2
Fore
SplineSet
316.754882812 540 m 0
 332.379882812 548.125 363.629882812 550 501.129882812 550 c 0
 687.379882812 550 692.379882812 548.75 729.254882812 503.75 c 2
 748.004882812 480 l 1
 748.004882812 300 l 1
 748.004882812 120 l 1
 729.254882812 96.25 l 2
 692.379882812 51.25 687.379882812 50 501.129882812 50 c 0
 314.879882812 50 309.879882812 51.25 273.004882812 96.25 c 2
 254.254882812 120 l 1
 252.379882812 286.25 l 2
 251.129882812 390 253.004882812 461.25 256.754882812 475 c 0
 264.254882812 499.375 287.379882812 525 316.754882812 540 c 0
EndSplineSet
Validated: 524321
EndChar

StartChar: uniF056
Encoding: 61526 61526 72
Width: 1000
Flags: W
LayerCount: 2
Fore
SplineSet
92.09765625 665.625 m 0xf0
 105.22265625 672.5 138.34765625 674.375 248.34765625 675 c 0
 405.22265625 675 417.72265625 672.5 431.47265625 634.375 c 2
 439.59765625 612.5 l 1
 694.59765625 612.5 l 2
 968.34765625 612.5 974.59765625 611.875 990.84765625 580.625 c 0
 1002.72265625 557.5 1003.97265625 -15 992.09765625 -40.625 c 0
 975.84765625 -75.625 988.97265625 -75 499.59765625 -75 c 0
 10.22265625 -75 23.34765625 -75.625 7.09765625 -40.625 c 0
 1.47265625 -28.75 -0.40234375 55 -0.40234375 269.375 c 0
 -0.40234375 595 -1.02734375 592.5 38.97265625 606.875 c 0
 53.97265625 611.875 62.72265625 620.625 67.72265625 635 c 0
 72.09765625 646.875 82.72265625 660.625 92.09765625 665.625 c 0xf0
374.59765625 518.75 m 1
 374.59765625 550 l 1
 249.59765625 550 l 1
 124.59765625 550 l 1
 124.59765625 518.75 l 1
 124.59765625 487.5 l 1xe8
 249.59765625 487.5 l 1
 374.59765625 487.5 l 1
 374.59765625 518.75 l 1
752.09765625 463.125 m 0
 639.59765625 518.75 510.84765625 472.5 456.47265625 356.25 c 0
 442.72265625 327.5 440.22265625 313.125 440.22265625 268.75 c 0xf0
 440.22265625 221.25 442.72265625 210.625 460.84765625 173.75 c 0
 484.59765625 125.625 518.34765625 92.5 567.72265625 69.375 c 0
 597.09765625 55.625 611.47265625 53.125 655.84765625 53.125 c 0
 700.22265625 53.125 714.59765625 55.625 743.97265625 69.375 c 0
 793.34765625 92.5 827.09765625 125.625 850.84765625 173.75 c 0
 868.97265625 210.625 871.47265625 221.25 871.47265625 268.75 c 0
 871.47265625 313.125 868.97265625 327.5 855.22265625 356.875 c 0
 832.09765625 406.25 798.97265625 440 752.09765625 463.125 c 0
600.22265625 414.375 m 0
 757.72265625 470 882.72265625 276.875 765.22265625 159.375 c 0
 737.09765625 131.25 693.34765625 112.5 655.84765625 112.5 c 0
 573.34765625 112.5 499.59765625 186.25 499.59765625 268.75 c 0
 499.59765625 329.375 545.22265625 395 600.22265625 414.375 c 0
EndSplineSet
Validated: 524321
EndChar

StartChar: uniF057
Encoding: 61527 61527 73
Width: 1000
Flags: W
LayerCount: 2
Fore
SplineSet
65.1923828125 602.5 m 0
 81.4423828125 611.25 120.817382812 612.5 343.317382812 612.5 c 0
 633.942382812 612.5 626.442382812 613.75 664.567382812 566.875 c 0
 678.942382812 548.125 683.942382812 535.625 686.442382812 503.125 c 2
 690.192382812 462.5 l 1
 815.192382812 537.5 l 2
 883.942382812 578.75 946.442382812 612.5 954.567382812 612.5 c 0
 962.692382812 612.5 975.817382812 605.625 983.942382812 596.875 c 2
 999.567382812 581.875 l 1
 999.567382812 300 l 1
 999.567382812 18.125 l 1
 983.942382812 3.125 l 2
 975.817382812 -5.625 962.692382812 -12.5 954.567382812 -12.5 c 0
 946.442382812 -12.5 883.942382812 21.25 815.192382812 62.5 c 2
 690.192382812 137.5 l 1
 686.442382812 96.875 l 2
 683.942382812 64.375 678.942382812 51.875 664.567382812 33.125 c 0
 626.442382812 -13.75 633.942382812 -12.5 343.317382812 -12.5 c 0
 52.0673828125 -12.5 60.1923828125 -13.75 21.4423828125 33.75 c 2
 2.6923828125 57.5 l 1
 0.8173828125 286.25 l 2
 -0.4326171875 431.875 1.4423828125 523.75 5.1923828125 537.5 c 0
 12.6923828125 561.875 35.8173828125 587.5 65.1923828125 602.5 c 0
590.192382812 300 m 1
 590.192382812 515.625 l 1
 344.567382812 517.5 l 2
 150.817382812 518.75 98.3173828125 517.5 96.4423828125 511.25 c 0
 94.5673828125 506.875 93.9423828125 408.75 94.5673828125 293.75 c 2
 96.4423828125 84.375 l 1
 343.317382812 84.375 l 1
 590.192382812 84.375 l 1
 590.192382812 300 l 1
904.567382812 210 m 2
 905.192382812 259.375 905.192382812 340.625 904.567382812 390 c 2
 902.692382812 480 l 1
 795.192382812 416.25 l 1
 687.692382812 353.125 l 1
 687.692382812 300 l 1
 687.692382812 246.875 l 1
 795.192382812 183.75 l 1
 902.692382812 120 l 1
 904.567382812 210 l 2
EndSplineSet
Validated: 524321
EndChar

StartChar: uniF058
Encoding: 61528 61528 74
Width: 1000
LayerCount: 2
Fore
SplineSet
717.434570312 731.875 m 0
 768.684570312 755.625 804.309570312 743.75 869.934570312 679.375 c 0
 937.434570312 613.125 951.809570312 573.75 927.434570312 521.875 c 0
 919.309570312 505 821.809570312 403.75 629.309570312 211.875 c 2
 342.434570312 -72.5 l 1
 222.434570312 -106.25 l 2
 119.934570312 -134.375 99.9345703125 -138.75 86.1845703125 -132.5 c 0
 52.4345703125 -116.875 53.0595703125 -104.375 89.3095703125 26.875 c 2
 123.059570312 146.875 l 1
 407.434570312 433.75 l 2
 599.309570312 626.25 700.559570312 723.75 717.434570312 731.875 c 0
806.184570312 611.25 m 0
 784.934570312 632.5 764.309570312 650 760.559570312 650 c 0
 757.434570312 650 735.559570312 631.25 712.434570312 607.5 c 2
 670.559570312 565 l 1
 716.184570312 520 l 1
 761.809570312 475 l 1
 803.684570312 517.5 l 2
 826.809570312 540.625 845.559570312 562.5 845.559570312 566.25 c 0
 845.559570312 569.375 828.059570312 590 806.184570312 611.25 c 0
498.059570312 211.875 m 1
 695.559570312 409.375 l 1
 649.934570312 455 l 1
 604.934570312 500 l 1
 406.809570312 301.25 l 1
 208.684570312 103.125 l 1
 192.434570312 45 l 2
 183.059570312 12.5 176.809570312 -15 178.684570312 -16.875 c 0
 180.559570312 -18.125 208.684570312 -12.5 241.184570312 -3.125 c 2
 299.934570312 13.75 l 1
 498.059570312 211.875 l 1
EndSplineSet
Validated: 524321
EndChar

StartChar: uniF059
Encoding: 61529 61529 75
Width: 1000
LayerCount: 2
Fore
SplineSet
417.291992188 793.125 m 0xc0
 459.166992188 801.25 577.916992188 796.875 620.416992188 785.625 c 0
 751.041992188 750 850.416992188 678.75 920.416992188 570.625 c 0
 976.041992188 485.625 998.541992188 408.75 998.541992188 300 c 0
 998.541992188 159.375 951.041992188 43.125 854.791992188 -53.125 c 0
 758.541992188 -149.375 642.291992188 -196.875 501.666992188 -196.875 c 0
 361.041992188 -196.875 244.791992188 -149.375 148.541992188 -53.125 c 0
 39.1669921875 56.875 -17.7080078125 226.25 7.2919921875 372.5 c 0
 44.1669921875 591.25 199.166992188 750 417.291992188 793.125 c 0xc0
586.041992188 696.875 m 0
 449.791992188 725.625 318.541992188 685.625 217.291992188 585 c 0
 176.666992188 545 160.416992188 523.125 139.791992188 481.25 c 0
 81.0419921875 360.625 81.0419921875 238.75 139.791992188 118.75 c 0
 191.666992188 13.125 302.291992188 -73.125 417.291992188 -96.875 c 0
 508.541992188 -116.25 595.416992188 -104.375 682.916992188 -61.875 c 0
 757.291992188 -25 826.666992188 44.375 863.541992188 118.75 c 0
 922.291992188 239.375 922.291992188 360.625 863.541992188 481.25 c 0
 811.666992188 586.875 701.041992188 673.125 586.041992188 696.875 c 0
471.041992188 541.25 m 0
 512.291992188 564.375 564.166992188 533.75 564.166992188 486.875 c 0xd0
 564.166992188 455.625 533.541992188 425 501.666992188 425 c 0
 439.791992188 425 416.666992188 511.25 471.041992188 541.25 c 0
423.541992188 346.875 m 0
 436.666992188 360.625 444.166992188 362.5 486.041992188 362.5 c 0
 527.916992188 362.5 535.416992188 360.625 548.541992188 346.875 c 0
 563.541992188 332.5 564.166992188 329.375 564.166992188 237.5 c 2
 564.166992188 143.75 l 1xd0
 579.791992188 143.75 l 2
 600.416992188 143.75 626.666992188 117.5 626.666992188 96.875 c 0
 626.666992188 88.125 619.791992188 73.75 611.041992188 65.625 c 0
 596.666992188 50.625 592.291992188 50 517.291992188 50 c 0
 442.291992188 50 437.916992188 50.625 423.541992188 65.625 c 0
 414.791992188 73.75 407.916992188 88.125 407.916992188 96.875 c 0xe0
 407.916992188 117.5 434.166992188 143.75 454.791992188 143.75 c 2
 470.416992188 143.75 l 1
 470.416992188 206.25 l 1
 470.416992188 268.75 l 1xd0
 454.791992188 268.75 l 2
 434.166992188 268.75 407.916992188 295 407.916992188 315.625 c 0xe0
 407.916992188 324.375 414.791992188 338.75 423.541992188 346.875 c 0
EndSplineSet
Validated: 524321
EndChar

StartChar: uniF05A
Encoding: 61530 61530 76
Width: 1000
LayerCount: 2
Fore
SplineSet
381.038085938 516.875 m 0
 382.288085938 521.25 388.538085938 525 394.788085938 525 c 0
 407.913085938 525 624.163085938 310.625 621.038085938 300.625 c 0
 615.413085938 285 399.788085938 74.375 391.038085938 76.25 c 0
 382.288085938 78.125 381.038085938 103.75 379.163085938 293.75 c 0
 378.538085938 412.5 379.163085938 513.125 381.038085938 516.875 c 0
EndSplineSet
Validated: 524321
EndChar

StartChar: uniF05B
Encoding: 61531 61531 77
Width: 1000
LayerCount: 2
Fore
SplineSet
276.875 415 m 0
 280.625 423.75 305 425 500 425 c 0
 695 425 719.375 423.75 723.125 415 c 0
 725.625 408.125 694.375 372.5 613.125 291.875 c 2
 500 178.125 l 1
 386.875 291.875 l 2
 305.625 372.5 274.375 408.125 276.875 415 c 0
EndSplineSet
Validated: 524321
EndChar

StartChar: uniF05C
Encoding: 61532 61532 78
Width: 1000
LayerCount: 2
Fore
SplineSet
658.125 728.75 m 0
 673.75 733.75 702.5 736.875 729.375 735 c 0
 812.5 731.25 881.875 684.375 918.125 606.875 c 0
 931.875 577.5 934.375 563.125 934.375 518.75 c 0
 934.375 435 921.25 412.5 798.125 288.75 c 0
 717.5 208.125 688.75 183.125 658.125 167.5 c 0
 586.25 132.5 506.875 138.125 440 182.5 c 0
 399.375 210 388.75 231.875 401.875 259.375 c 0
 417.5 291.875 442.5 294.375 483.125 266.25 c 0
 521.25 240 559.375 232.5 600 243.75 c 0
 624.375 250 642.5 265.625 729.375 351.875 c 0
 815.625 438.75 831.25 456.875 837.5 481.25 c 0
 863.75 580 780.625 664.375 681.875 637.5 c 0
 661.25 631.875 641.25 617.5 596.875 574.375 c 0
 549.375 528.125 536.25 518.75 520 518.75 c 0
 494.375 518.75 475 538.125 475 563.125 c 0
 475 579.375 484.375 592.5 526.875 635.625 c 0
 580 690.625 613.125 714.375 658.125 728.75 c 0
376.875 446.875 m 0
 435 465.625 505 453.75 560 416.875 c 0
 600.625 390 611.25 368.125 598.125 340.625 c 0
 582.5 308.125 557.5 305.625 516.875 333.75 c 0
 478.75 360 440.625 367.5 400 356.25 c 0
 375.625 350 357.5 334.375 270.625 248.125 c 0
 184.375 161.25 168.75 143.125 162.5 118.75 c 0
 136.25 20 219.375 -64.375 318.125 -37.5 c 0
 338.75 -31.875 358.75 -17.5 403.125 25.625 c 0
 450.625 71.875 463.75 81.25 480 81.25 c 0
 505.625 81.25 525 61.875 525 36.875 c 0
 525 20.625 515.625 7.5 470.625 -38.75 c 0
 396.875 -113.75 356.25 -134.375 281.25 -134.375 c 0
 236.875 -134.375 222.5 -131.875 193.125 -118.125 c 0
 143.75 -95 110 -61.875 86.25 -13.75 c 0
 68.125 23.125 65.625 33.75 65.625 81.25 c 0
 65.625 164.375 79.375 187.5 198.75 308.125 c 0
 297.5 408.125 328.75 431.875 376.875 446.875 c 0
EndSplineSet
Validated: 524321
EndChar

StartChar: uniF05D
Encoding: 61533 61533 79
Width: 1000
LayerCount: 2
Fore
SplineSet
473.125 666.25 m 0
 487.5 676.875 512.5 676.875 526.875 666.25 c 0
 546.25 651.25 550 620 550 480 c 2
 550 343.75 l 1
 700 343.75 l 2
 845.625 343.75 850 343.125 862.5 330 c 0
 885.625 305 875.625 269.375 841.25 256.25 c 0
 831.25 252.5 766.875 250 686.875 250 c 2
 550 250 l 1
 550 116.875 l 2
 550 44.375 547.5 -25 543.75 -36.875 c 0
 529.375 -88.125 470.625 -88.125 456.25 -36.875 c 0
 452.5 -25 450 44.375 450 116.875 c 2
 450 250 l 1
 313.125 250 l 2
 233.125 250 168.75 252.5 158.75 256.25 c 0
 124.375 269.375 114.375 305 137.5 330 c 0
 150 343.125 154.375 343.75 300 343.75 c 2
 450 343.75 l 1
 450 480 l 2
 450 620 453.75 651.25 473.125 666.25 c 0
EndSplineSet
Validated: 524321
EndChar

StartChar: uniF05E
Encoding: 61534 61534 80
Width: 1000
CounterMasks: 1 e0
LayerCount: 2
Fore
SplineSet
78.4375 659.375 m 2
 93.4375 675 l 1
 500.3125 675 l 1
 907.1875 675 l 1
 922.1875 659.375 l 2
 942.1875 640 942.1875 616.25 922.1875 596.875 c 2
 907.1875 581.25 l 1
 500.3125 581.25 l 1
 93.4375 581.25 l 1
 78.4375 596.875 l 2
 69.6875 605 62.8125 619.375 62.8125 628.125 c 0
 62.8125 636.875 69.6875 651.25 78.4375 659.375 c 2
78.4375 346.875 m 2
 93.4375 362.5 l 1
 500.3125 362.5 l 1
 907.1875 362.5 l 1
 922.1875 346.875 l 2
 942.1875 327.5 942.1875 303.75 922.1875 284.375 c 2
 907.1875 268.75 l 1
 500.3125 268.75 l 1
 93.4375 268.75 l 1
 78.4375 284.375 l 2
 69.6875 292.5 62.8125 306.875 62.8125 315.625 c 0
 62.8125 324.375 69.6875 338.75 78.4375 346.875 c 2
78.4375 34.375 m 2
 93.4375 50 l 1
 500.3125 50 l 1
 907.1875 50 l 1
 922.1875 34.375 l 2
 942.1875 15 942.1875 -8.75 922.1875 -28.125 c 2
 907.1875 -43.75 l 1
 500.3125 -43.75 l 1
 93.4375 -43.75 l 1
 78.4375 -28.125 l 2
 69.6875 -20 62.8125 -5.625 62.8125 3.125 c 0
 62.8125 11.875 69.6875 26.25 78.4375 34.375 c 2
EndSplineSet
Validated: 524321
EndChar

StartChar: uniF05F
Encoding: 61535 61535 81
Width: 1000
LayerCount: 2
Fore
SplineSet
165 468.125 m 0
 308.125 610.625 311.875 614.375 332.5 610 c 0
 358.125 605 367.5 595.625 372.5 570 c 0
 376.875 550 373.125 545.625 252.5 424.375 c 2
 128.75 300 l 1
 251.875 176.25 l 2
 355 72.5 375 49.375 375 34.375 c 0
 375 10 352.5 -12.5 328.75 -12.5 c 0
 312.5 -12.5 290 7.5 164.375 132.5 c 0
 28.75 267.5 18.75 279.375 18.75 300 c 0
 18.75 320.625 28.75 332.5 165 468.125 c 0
638.75 598.125 m 0
 646.875 606.875 659.375 612.5 671.25 612.5 c 0
 687.5 612.5 710 592.5 835.625 467.5 c 0
 971.25 332.5 981.25 320.625 981.25 300 c 0
 981.25 279.375 971.25 267.5 835.625 132.5 c 0
 713.125 10.625 686.875 -12.5 671.875 -12.5 c 0
 647.5 -12.5 625 10 625 33.75 c 0
 625 50 642.5 70 748.125 176.25 c 2
 871.25 300 l 1
 748.125 423.75 l 2
 615 557.5 609.375 566.875 638.75 598.125 c 0
EndSplineSet
Validated: 524321
EndChar

StartChar: uniF060
Encoding: 61536 61536 82
Width: 1000
LayerCount: 2
Fore
SplineSet
412.5 758.75 m 0
 503.75 778.75 594.375 766.875 681.25 724.375 c 0
 755.625 687.5 825 618.125 861.875 543.75 c 0
 920.625 423.75 920.625 301.875 861.875 181.25 c 0
 837.5 131.25 826.875 119.375 691.25 -17.5 c 0
 535 -175 525 -182.5 476.25 -169.375 c 0
 457.5 -163.75 424.375 -134.375 308.75 -17.5 c 0
 173.125 119.375 162.5 131.25 138.125 181.25 c 0
 79.375 301.875 79.375 423.75 138.125 543.75 c 0
 189.375 648.125 300 735 412.5 758.75 c 0
563.75 668.125 m 0
 460 690 357.5 658.75 280.625 581.875 c 0
 176.25 477.5 158.125 316.875 236.875 195 c 0
 247.5 178.75 310.625 110.625 378.125 43.75 c 2
 500 -78.125 l 1
 621.875 43.75 l 2
 751.25 172.5 773.125 200.625 794.375 260 c 0
 833.75 373.125 805 495.625 719.375 581.875 c 0
 674.375 626.875 621.25 656.25 563.75 668.125 c 0
457.5 480.625 m 0
 490.625 490.625 541.875 484.375 568.75 466.25 c 0
 605.625 441.875 621.875 410.625 621.875 362.5 c 0
 621.875 313.75 605.625 283.125 566.875 257.5 c 0
 531.875 234.375 471.25 233.125 435.625 255.625 c 0
 388.125 285 366.25 343.125 380.625 398.75 c 0
 389.375 430.625 427.5 471.875 457.5 480.625 c 0
EndSplineSet
Validated: 524321
EndChar

StartChar: uniF061
Encoding: 61537 61537 83
Width: 1000
CounterMasks: 1 e0
LayerCount: 2
Fore
SplineSet
94.02734375 666.25 m 0
 135.27734375 689.375 187.15234375 658.75 187.15234375 611.875 c 0
 187.15234375 580.625 156.52734375 550 124.65234375 550 c 0
 62.77734375 550 39.65234375 636.25 94.02734375 666.25 c 0
327.77734375 628.125 m 2
 342.77734375 643.75 l 1
 624.65234375 643.75 l 1
 906.52734375 643.75 l 1
 921.52734375 628.125 l 2
 941.52734375 608.75 941.52734375 585 921.52734375 565.625 c 2
 906.52734375 550 l 1
 624.65234375 550 l 1
 342.77734375 550 l 1
 327.77734375 565.625 l 2
 319.02734375 573.75 312.15234375 588.125 312.15234375 596.875 c 0
 312.15234375 605.625 319.02734375 620 327.77734375 628.125 c 2
94.02734375 353.75 m 0
 135.27734375 376.875 187.15234375 346.25 187.15234375 299.375 c 0
 187.15234375 268.125 156.52734375 237.5 124.65234375 237.5 c 0
 62.77734375 237.5 39.65234375 323.75 94.02734375 353.75 c 0
327.77734375 315.625 m 2
 342.77734375 331.25 l 1
 624.65234375 331.25 l 1
 906.52734375 331.25 l 1
 921.52734375 315.625 l 2
 941.52734375 296.25 941.52734375 272.5 921.52734375 253.125 c 2
 906.52734375 237.5 l 1
 624.65234375 237.5 l 1
 342.77734375 237.5 l 1
 327.77734375 253.125 l 2
 319.02734375 261.25 312.15234375 275.625 312.15234375 284.375 c 0
 312.15234375 293.125 319.02734375 307.5 327.77734375 315.625 c 2
94.02734375 41.25 m 0
 135.27734375 64.375 187.15234375 33.75 187.15234375 -13.125 c 0
 187.15234375 -44.375 156.52734375 -75 124.65234375 -75 c 0
 62.77734375 -75 39.65234375 11.25 94.02734375 41.25 c 0
327.77734375 3.125 m 2
 342.77734375 18.75 l 1
 624.65234375 18.75 l 1
 906.52734375 18.75 l 1
 921.52734375 3.125 l 2
 941.52734375 -16.25 941.52734375 -40 921.52734375 -59.375 c 2
 906.52734375 -75 l 1
 624.65234375 -75 l 1
 342.77734375 -75 l 1
 327.77734375 -59.375 l 2
 319.02734375 -51.25 312.15234375 -36.875 312.15234375 -28.125 c 0
 312.15234375 -19.375 319.02734375 -5 327.77734375 3.125 c 2
EndSplineSet
Validated: 524321
EndChar

StartChar: uniF062
Encoding: 61538 61538 84
Width: 1000
LayerCount: 2
Fore
SplineSet
76.5625 654.375 m 0x3a
 153.4375 693.125 156.5625 688.75 156.5625 540 c 2
 156.5625 425 l 1
 177.8125 425 l 2
 213.4375 425 231.5625 394.375 209.0625 372.5 c 0
 194.6875 358.125 55.9375 358.125 41.5625 372.5 c 0
 19.0625 394.375 37.1875 425 72.8125 425 c 2
 94.0625 425 l 1
 94.0625 509.375 l 2
 94.0625 593.75 94.0625 594.375 80.9375 587.5 c 0
 53.4375 572.5 25.3125 594.375 34.0625 623.75 c 0
 35.9375 630 55.3125 643.75 76.5625 654.375 c 0x3a
359.6875 628.125 m 2
 374.6875 643.75 l 1
 656.5625 643.75 l 1
 938.4375 643.75 l 1
 953.4375 628.125 l 2
 973.4375 608.75 973.4375 585 953.4375 565.625 c 2
 938.4375 550 l 1
 656.5625 550 l 1
 374.6875 550 l 1
 359.6875 565.625 l 2
 350.9375 573.75 344.0625 588.125 344.0625 596.875 c 0
 344.0625 605.625 350.9375 620 359.6875 628.125 c 2
359.6875 315.625 m 2
 374.6875 331.25 l 1
 656.5625 331.25 l 1
 938.4375 331.25 l 1
 953.4375 315.625 l 2
 973.4375 296.25 973.4375 272.5 953.4375 253.125 c 2
 938.4375 237.5 l 1
 656.5625 237.5 l 1
 374.6875 237.5 l 1
 359.6875 253.125 l 2
 350.9375 261.25 344.0625 275.625 344.0625 284.375 c 0
 344.0625 293.125 350.9375 307.5 359.6875 315.625 c 2
87.8125 230.625 m 0
 127.8125 246.25 176.5625 233.125 200.9375 199.375 c 0
 212.8125 182.5 215.9375 170 215.9375 140 c 0
 215.9375 93.125 204.0625 73.75 144.0625 24.375 c 2
 103.4375 -9.375 l 1
 155.3125 -12.5 l 2
 207.8125 -15.625 218.4375 -21.25 219.0625 -45 c 0
 219.0625 -70 202.8125 -75 125.3125 -75 c 0
 44.6875 -75 31.5625 -70 31.5625 -40 c 0
 31.5625 -8.125 51.5625 22.5 103.4375 71.875 c 0
 159.0625 125 167.8125 143.75 146.5625 165 c 0
 132.1875 179.375 117.1875 177.5 90.9375 156.25 c 0
 77.8125 146.25 65.3125 137.5 63.4375 137.5 c 0
 51.5625 137.5 31.5625 158.75 31.5625 171.25 c 0x7c
 31.5625 186.875 64.0625 221.25 87.8125 230.625 c 0
359.6875 3.125 m 2
 374.6875 18.75 l 1
 656.5625 18.75 l 1
 938.4375 18.75 l 1
 953.4375 3.125 l 2
 973.4375 -16.25 973.4375 -40 953.4375 -59.375 c 2
 938.4375 -75 l 1
 656.5625 -75 l 1
 374.6875 -75 l 1xb8
 359.6875 -59.375 l 2
 350.9375 -51.25 344.0625 -36.875 344.0625 -28.125 c 0
 344.0625 -19.375 350.9375 -5 359.6875 3.125 c 2
EndSplineSet
Validated: 524321
EndChar

StartChar: uniF063
Encoding: 61539 61539 85
Width: 1000
CounterMasks: 1 e0
LayerCount: 2
Fore
SplineSet
78.4375 628.125 m 2
 93.4375 643.75 l 1
 437.8125 643.75 l 1
 782.1875 643.75 l 1
 797.1875 628.125 l 2
 817.1875 608.75 817.1875 585 797.1875 565.625 c 2
 782.1875 550 l 1
 437.8125 550 l 1
 93.4375 550 l 1
 78.4375 565.625 l 2
 69.6875 573.75 62.8125 588.125 62.8125 596.875 c 0
 62.8125 605.625 69.6875 620 78.4375 628.125 c 2
78.4375 346.875 m 2
 86.5625 355.625 100.9375 362.5 109.6875 362.5 c 0
 118.4375 362.5 132.8125 355.625 140.9375 346.875 c 2
 156.5625 331.875 l 1
 156.5625 128.125 l 1
 156.5625 -75.625 l 1
 140.9375 -90.625 l 2
 121.5625 -110.625 97.8125 -110.625 78.4375 -90.625 c 2
 62.8125 -75.625 l 1
 62.8125 128.125 l 1
 62.8125 331.875 l 1
 78.4375 346.875 l 2
328.4375 315.625 m 2
 343.4375 331.25 l 1
 625.3125 331.25 l 1
 907.1875 331.25 l 1
 922.1875 315.625 l 2
 942.1875 296.25 942.1875 272.5 922.1875 253.125 c 2
 907.1875 237.5 l 1
 625.3125 237.5 l 1
 343.4375 237.5 l 1
 328.4375 253.125 l 2
 319.6875 261.25 312.8125 275.625 312.8125 284.375 c 0
 312.8125 293.125 319.6875 307.5 328.4375 315.625 c 2
328.4375 3.125 m 2
 343.4375 18.75 l 1
 625.3125 18.75 l 1
 907.1875 18.75 l 1
 922.1875 3.125 l 2
 942.1875 -16.25 942.1875 -40 922.1875 -59.375 c 2
 907.1875 -75 l 1
 625.3125 -75 l 1
 343.4375 -75 l 1
 328.4375 -59.375 l 2
 319.6875 -51.25 312.8125 -36.875 312.8125 -28.125 c 0
 312.8125 -19.375 319.6875 -5 328.4375 3.125 c 2
EndSplineSet
Validated: 524321
EndChar

StartChar: uniF064
Encoding: 61540 61540 86
Width: 1000
LayerCount: 2
Fore
SplineSet
439.057617188 665 m 0
 455.307617188 673.75 488.432617188 675 693.432617188 673.75 c 2
 928.432617188 671.875 l 1
 952.182617188 653.125 l 2
 1000.30761719 613.75 998.432617188 626.25 998.432617188 300 c 0
 998.432617188 -26.25 1000.30761719 -13.75 952.182617188 -53.125 c 2
 928.432617188 -71.875 l 1
 685.932617188 -71.875 l 1
 443.432617188 -71.875 l 1
 419.682617188 -53.125 l 2
 371.557617188 -13.75 373.432617188 -26.25 373.432617188 298.75 c 0
 373.432617188 608.75 374.057617188 612.5 405.307617188 641.875 c 0
 413.432617188 649.375 429.057617188 660 439.057617188 665 c 0
901.557617188 300 m 1
 901.557617188 578.125 l 1
 687.182617188 580 l 2
 519.057617188 581.25 472.182617188 580 470.307617188 573.75 c 0
 468.432617188 569.375 467.807617188 443.125 468.432617188 293.75 c 2
 470.307617188 21.875 l 1
 685.932617188 21.875 l 1
 901.557617188 21.875 l 1
 901.557617188 300 l 1
238.432617188 594.375 m 0
 261.557617188 608.75 262.807617188 608.75 285.307617188 596.875 c 0
 315.307617188 581.875 319.057617188 554.375 295.307617188 526.25 c 2
 279.682617188 507.5 l 1
 279.682617188 300 l 1
 279.682617188 92.5 l 1
 295.307617188 73.75 l 2
 320.307617188 44.375 314.057617188 14.375 280.307617188 0.625 c 0
 257.182617188 -9.375 231.557617188 2.5 206.557617188 35.625 c 2
 189.057617188 58.125 l 1
 189.057617188 299.375 l 1
 189.057617188 540.625 l 1
 204.057617188 561.25 l 2
 212.182617188 573.125 227.807617188 588.125 238.432617188 594.375 c 0
50.9326171875 531.875 m 0
 74.0576171875 546.25 75.3076171875 546.25 97.8076171875 534.375 c 0
 127.807617188 519.375 131.557617188 491.875 107.807617188 463.75 c 2
 92.1826171875 445 l 1
 92.1826171875 300 l 1
 92.1826171875 155 l 1
 107.807617188 136.25 l 2
 132.807617188 106.875 126.557617188 76.875 92.8076171875 63.125 c 0
 69.6826171875 53.125 44.0576171875 65 19.0576171875 98.125 c 2
 1.5576171875 120.625 l 1
 1.5576171875 299.375 l 2
 1.5576171875 477.5 1.5576171875 478.125 16.5576171875 498.75 c 0
 24.6826171875 510.625 40.3076171875 525.625 50.9326171875 531.875 c 0
EndSplineSet
Validated: 524321
EndChar

StartChar: uniF068
Encoding: 61544 61544 87
Width: 1000
LayerCount: 2
Fore
SplineSet
265.625 784.375 m 0
 273.75 793.125 288.125 800 296.875 800 c 0
 305.625 800 320 793.125 328.125 784.375 c 0
 341.875 771.25 343.75 763.75 343.75 721.875 c 2
 343.75 675 l 1
 500 675 l 1
 656.25 675 l 1
 656.25 721.875 l 2
 656.25 763.75 658.125 771.25 671.875 784.375 c 0
 691.25 804.375 715 804.375 734.375 784.375 c 0
 748.125 771.25 750 763.75 750 722.5 c 2
 750 676.25 l 1
 808.75 673.75 l 2
 863.125 671.875 869.375 670.625 891.25 653.125 c 0
 940 613.125 937.5 633.75 937.5 237.5 c 0
 937.5 -158.75 940 -138.125 891.25 -178.125 c 2
 867.5 -196.875 l 1
 500 -196.875 l 1
 132.5 -196.875 l 1
 108.75 -178.125 l 2
 60 -138.125 62.5 -158.75 62.5 237.5 c 0
 62.5 633.125 60.625 614.375 108.125 652.5 c 0
 130.625 670.625 136.25 671.875 191.25 673.75 c 2
 250 676.25 l 1
 250 722.5 l 2
 250 763.75 251.875 771.25 265.625 784.375 c 0
842.5 501.875 m 1
 840.625 578.125 l 1
 502.5 580 l 2
 316.875 580.625 162.5 579.375 160.625 576.875 c 0
 158.125 575 156.25 539.375 156.25 498.75 c 2
 156.25 425 l 1
 500 425 l 1
 844.375 425 l 1
 842.5 501.875 l 1
842.5 114.375 m 1
 843.75 331.25 l 1
 500 331.25 l 1
 156.25 331.25 l 1
 157.5 114.375 l 1
 159.375 -103.125 l 1
 500 -103.125 l 1
 840.625 -103.125 l 1
 842.5 114.375 l 1
EndSplineSet
Validated: 524321
EndChar

StartChar: uniF06A
Encoding: 61546 61546 88
Width: 1000
LayerCount: 2
Fore
SplineSet
441.25390625 793.75 m 0
 455.00390625 796.875 487.50390625 798.75 513.75390625 797.5 c 0
 606.25390625 793.125 681.25390625 742.5 723.75390625 657.5 c 0
 746.87890625 610 746.87890625 610 749.37890625 518.125 c 2
 751.25390625 426.25 l 1
 779.37890625 423.125 l 2
 811.87890625 419.375 845.62890625 395 863.75390625 362.5 c 0
 874.37890625 341.875 875.00390625 326.25 873.75390625 136.25 c 2
 871.87890625 -67.5 l 1
 853.12890625 -91.25 l 2
 813.75390625 -139.375 826.25390625 -137.5 500.00390625 -137.5 c 0
 173.75390625 -137.5 186.25390625 -139.375 146.87890625 -91.25 c 2
 128.12890625 -67.5 l 1
 126.25390625 136.25 l 2
 125.00390625 321.25 125.62890625 342.5 135.62890625 361.875 c 0
 152.50390625 393.75 188.12890625 419.375 220.62890625 423.125 c 2
 248.75390625 426.25 l 1
 251.25390625 518.125 l 2
 253.12890625 605 254.37890625 611.25 273.12890625 651.25 c 0
 283.75390625 674.375 304.37890625 705.625 318.12890625 720.625 c 0
 345.62890625 750 401.87890625 783.75 441.25390625 793.75 c 0
553.12890625 695.625 m 0
 493.12890625 716.25 433.75390625 703.125 390.62890625 659.375 c 0
 353.75390625 622.5 343.75390625 589.375 343.75390625 498.75 c 2
 343.75390625 425 l 1
 500.00390625 425 l 1
 656.25390625 425 l 1
 656.25390625 498.75 l 2
 656.25390625 551.25 653.12890625 581.875 645.62890625 603.125 c 0
 632.50390625 642.5 592.50390625 682.5 553.12890625 695.625 c 0
778.12890625 143.75 m 1
 778.12890625 328.125 l 1
 501.25390625 330 l 2
 281.87890625 331.25 223.75390625 330 221.87890625 323.125 c 0
 220.00390625 318.75 219.37890625 235.625 220.00390625 137.5 c 2
 221.87890625 -40.625 l 1
 500.00390625 -40.625 l 1
 778.12890625 -40.625 l 1
 778.12890625 143.75 l 1
EndSplineSet
Validated: 524321
EndChar

StartChar: uniF06B
Encoding: 61547 61547 89
Width: 1000
CounterMasks: 1 1c
LayerCount: 2
Fore
SplineSet
129.254882812 727.5 m 0
 145.504882812 736.25 193.629882812 737.5 501.129882812 737.5 c 0
 897.379882812 737.5 876.754882812 740 916.754882812 691.25 c 2
 935.504882812 667.5 l 1
 935.504882812 300 l 1
 935.504882812 -67.5 l 1
 916.754882812 -91.25 l 2
 876.754882812 -140 897.379882812 -137.5 501.129882812 -137.5 c 0
 104.879882812 -137.5 125.504882812 -140 85.5048828125 -91.25 c 2
 66.7548828125 -67.5 l 1
 64.8798828125 286.25 l 2
 63.6298828125 516.875 65.5048828125 648.125 69.2548828125 662.5 c 0
 76.7548828125 686.875 99.8798828125 712.5 129.254882812 727.5 c 0
841.754882812 300 m 1
 841.754882812 640.625 l 1
 502.379882812 642.5 l 2
 234.254882812 643.75 162.379882812 642.5 160.504882812 636.25 c 0
 158.629882812 631.875 158.004882812 477.5 158.629882812 293.75 c 2
 160.504882812 -40.625 l 1
 501.129882812 -40.625 l 1
 841.754882812 -40.625 l 1
 841.754882812 300 l 1
474.254882812 541.25 m 0
 488.629882812 551.875 513.629882812 551.875 528.004882812 541.25 c 0
 545.504882812 528.125 551.129882812 496.875 551.129882812 417.5 c 2
 551.129882812 343.75 l 1
 638.629882812 343.75 l 2
 719.879882812 343.75 726.754882812 343.125 738.629882812 330 c 0
 753.004882812 314.375 754.879882812 289.375 742.379882812 273.75 c 0
 728.629882812 255 702.379882812 250 625.504882812 250 c 2
 551.129882812 250 l 1
 551.129882812 179.375 l 2
 551.129882812 79.375 539.879882812 50.625 501.129882812 50.625 c 0
 462.379882812 50.625 451.129882812 79.375 451.129882812 179.375 c 2
 451.129882812 250 l 1
 376.754882812 250 l 2
 299.879882812 250 273.629882812 255 259.879882812 273.75 c 0
 247.379882812 289.375 249.254882812 314.375 263.629882812 330 c 0
 275.504882812 343.125 282.379882812 343.75 363.629882812 343.75 c 2
 451.129882812 343.75 l 1
 451.129882812 417.5 l 2
 451.129882812 496.875 456.754882812 528.125 474.254882812 541.25 c 0
EndSplineSet
Validated: 524321
EndChar

StartChar: uniF06C
Encoding: 61548 61548 90
Width: 1000
LayerCount: 2
Fore
SplineSet
129.254882812 727.5 m 0
 145.504882812 736.25 193.629882812 737.5 501.129882812 737.5 c 0
 897.379882812 737.5 876.754882812 740 916.754882812 691.25 c 2
 935.504882812 667.5 l 1
 935.504882812 300 l 1
 935.504882812 -67.5 l 1
 916.754882812 -91.25 l 2
 876.754882812 -140 897.379882812 -137.5 501.129882812 -137.5 c 0
 104.879882812 -137.5 125.504882812 -140 85.5048828125 -91.25 c 2
 66.7548828125 -67.5 l 1
 64.8798828125 286.25 l 2
 63.6298828125 516.875 65.5048828125 648.125 69.2548828125 662.5 c 0
 76.7548828125 686.875 99.8798828125 712.5 129.254882812 727.5 c 0
841.754882812 300 m 1
 841.754882812 640.625 l 1
 502.379882812 642.5 l 2
 234.254882812 643.75 162.379882812 642.5 160.504882812 636.25 c 0
 158.629882812 631.875 158.004882812 477.5 158.629882812 293.75 c 2
 160.504882812 -40.625 l 1
 501.129882812 -40.625 l 1
 841.754882812 -40.625 l 1
 841.754882812 300 l 1
263.629882812 330 m 0
 276.754882812 343.75 278.004882812 343.75 501.129882812 343.75 c 0
 724.254882812 343.75 725.504882812 343.75 738.629882812 330 c 0
 761.754882812 305 751.754882812 269.375 717.379882812 256.25 c 0
 694.254882812 247.5 308.004882812 247.5 284.879882812 256.25 c 0
 250.504882812 269.375 240.504882812 305 263.629882812 330 c 0
EndSplineSet
Validated: 524321
EndChar

StartChar: uniF06D
Encoding: 61549 61549 91
Width: 1000
LayerCount: 2
Fore
SplineSet
129.254882812 727.5 m 0
 145.504882812 736.25 193.629882812 737.5 501.129882812 737.5 c 0
 897.379882812 737.5 876.754882812 740 916.754882812 691.25 c 2
 935.504882812 667.5 l 1
 935.504882812 300 l 1
 935.504882812 -67.5 l 1
 916.754882812 -91.25 l 2
 876.754882812 -140 897.379882812 -137.5 501.129882812 -137.5 c 0
 104.879882812 -137.5 125.504882812 -140 85.5048828125 -91.25 c 2
 66.7548828125 -67.5 l 1
 64.8798828125 286.25 l 2
 63.6298828125 516.875 65.5048828125 648.125 69.2548828125 662.5 c 0
 76.7548828125 686.875 99.8798828125 712.5 129.254882812 727.5 c 0
841.754882812 300 m 1
 841.754882812 640.625 l 1
 502.379882812 642.5 l 2
 234.254882812 643.75 162.379882812 642.5 160.504882812 636.25 c 0
 158.629882812 631.875 158.004882812 477.5 158.629882812 293.75 c 2
 160.504882812 -40.625 l 1
 501.129882812 -40.625 l 1
 841.754882812 -40.625 l 1
 841.754882812 300 l 1
458.629882812 418.125 m 0
 491.754882812 428.125 543.004882812 421.875 569.879882812 403.75 c 0
 606.754882812 379.375 623.004882812 348.125 623.004882812 300 c 0
 623.004882812 251.25 606.754882812 220.625 568.004882812 195 c 0
 533.004882812 171.875 472.379882812 170.625 436.754882812 193.125 c 0
 389.254882812 222.5 367.379882812 280.625 381.754882812 336.25 c 0
 390.504882812 368.125 428.629882812 409.375 458.629882812 418.125 c 0
EndSplineSet
Validated: 524321
EndChar

StartChar: uniF06E
Encoding: 61550 61550 92
Width: 1000
LayerCount: 2
Fore
SplineSet
129.254882812 727.5 m 0
 145.504882812 736.25 193.629882812 737.5 501.129882812 737.5 c 0
 897.379882812 737.5 876.754882812 740 916.754882812 691.25 c 2
 935.504882812 667.5 l 1
 935.504882812 300 l 1
 935.504882812 -67.5 l 1
 916.754882812 -91.25 l 2
 876.754882812 -140 897.379882812 -137.5 501.129882812 -137.5 c 0
 104.879882812 -137.5 125.504882812 -140 85.5048828125 -91.25 c 2
 66.7548828125 -67.5 l 1
 64.8798828125 286.25 l 2
 63.6298828125 516.875 65.5048828125 648.125 69.2548828125 662.5 c 0
 76.7548828125 686.875 99.8798828125 712.5 129.254882812 727.5 c 0
841.754882812 300 m 1
 841.754882812 640.625 l 1
 502.379882812 642.5 l 2
 234.254882812 643.75 162.379882812 642.5 160.504882812 636.25 c 0
 158.629882812 631.875 158.004882812 477.5 158.629882812 293.75 c 2
 160.504882812 -40.625 l 1
 501.129882812 -40.625 l 1
 841.754882812 -40.625 l 1
 841.754882812 300 l 1
473.629882812 536.875 m 0
 506.754882812 563.125 519.254882812 555.625 646.754882812 426.25 c 0
 739.879882812 331.875 751.129882812 318.125 751.129882812 299.375 c 0
 751.129882812 281.25 739.254882812 266.875 636.754882812 164.375 c 0
 539.879882812 67.5 519.254882812 50 503.629882812 50 c 0
 466.754882812 50 442.379882812 84.375 458.004882812 114.375 c 0
 461.754882812 121.875 491.754882812 155.625 524.879882812 189.375 c 2
 585.504882812 250 l 1
 443.629882812 250 l 2
 360.504882812 250 294.879882812 252.5 284.879882812 256.25 c 0
 250.504882812 269.375 240.504882812 305 263.629882812 330 c 0
 276.129882812 343.75 279.879882812 343.75 433.629882812 343.75 c 2
 591.129882812 343.75 l 1
 524.254882812 411.875 l 2
 464.254882812 472.5 457.379882812 481.875 457.379882812 501.875 c 0
 457.379882812 518.75 461.754882812 527.5 473.629882812 536.875 c 0
EndSplineSet
Validated: 524321
EndChar

StartChar: uniF070
Encoding: 61552 61552 93
Width: 1000
LayerCount: 2
Fore
SplineSet
15.625 346.875 m 2
 30.625 362.5 l 1
 500 362.5 l 1
 969.375 362.5 l 1
 984.375 346.875 l 2
 1004.375 327.5 1004.375 303.75 984.375 284.375 c 2
 969.375 268.75 l 1
 500 268.75 l 1
 30.625 268.75 l 1
 15.625 284.375 l 2
 -4.375 303.75 -4.375 327.5 15.625 346.875 c 2
EndSplineSet
Validated: 524321
EndChar

StartChar: uniF071
Encoding: 61553 61553 94
Width: 1000
LayerCount: 2
Fore
SplineSet
496.286132812 611.875 m 0
 520.036132812 630.625 537.536132812 628.125 571.911132812 600.625 c 0
 618.786132812 563.125 827.536132812 348.125 832.536132812 332.5 c 0
 835.661132812 324.375 835.661132812 310.625 833.161132812 301.875 c 0
 828.161132812 281.875 582.536132812 31.875 551.911132812 15 c 0
 531.911132812 4.375 529.411132812 4.375 508.786132812 14.375 c 0
 481.911132812 26.875 474.411132812 49.375 489.411132812 72.5 c 0
 495.036132812 81.25 539.411132812 128.75 587.536132812 178.75 c 2
 675.661132812 268.75 l 1
 434.411132812 268.75 l 1
 193.786132812 268.75 l 1
 179.411132812 291.875 l 1
 165.036132812 314.375 l 1
 178.161132812 336.875 l 1
 191.286132812 359.375 l 1
 432.536132812 362.5 l 1
 673.786132812 365.625 l 1
 601.911132812 437.5 l 2
 518.786132812 520 480.036132812 567.5 480.036132812 586.25 c 0
 480.036132812 593.125 487.536132812 605 496.286132812 611.875 c 0
EndSplineSet
Validated: 524321
EndChar

StartChar: uniF075
Encoding: 61557 61557 95
Width: 1000
LayerCount: 2
Fore
SplineSet
424.05859375 784.375 m 0
 432.18359375 793.125 446.55859375 800 455.30859375 800 c 0
 464.05859375 800 478.43359375 793.125 486.55859375 784.375 c 0
 501.55859375 770 502.18359375 765.625 502.18359375 690.625 c 2
 502.18359375 612.5 l 1
 625.93359375 612.5 l 2
 733.43359375 612.5 752.18359375 610.625 774.05859375 600.625 c 0
 808.43359375 584.375 942.80859375 467.5 955.93359375 442.5 c 0
 969.05859375 417.5 969.05859375 370 955.93359375 345 c 0
 942.80859375 320 808.43359375 203.125 774.05859375 186.875 c 0
 752.18359375 176.875 733.43359375 175 625.93359375 175 c 2
 502.18359375 175 l 1
 502.18359375 3.125 l 1
 502.18359375 -169.375 l 1
 486.55859375 -184.375 l 2
 467.18359375 -204.375 443.43359375 -204.375 424.05859375 -184.375 c 2
 408.43359375 -169.375 l 1
 408.43359375 3.125 l 1
 408.43359375 175 l 1
 262.80859375 175 l 2
 99.68359375 175 91.55859375 176.875 55.30859375 221.25 c 2
 36.55859375 245 l 1
 34.68359375 386.25 l 2
 32.80859375 546.25 34.68359375 554.375 79.05859375 590 c 2
 103.43359375 609.375 l 1
 255.93359375 611.25 l 1
 408.43359375 613.125 l 1
 408.43359375 691.25 l 2
 408.43359375 765.625 409.05859375 770 424.05859375 784.375 c 0
802.80859375 461.25 m 2
 734.68359375 518.75 l 1
 434.05859375 518.75 l 2
 194.68359375 518.75 132.18359375 516.875 129.68359375 510.625 c 0
 128.43359375 506.25 127.80859375 450.625 128.43359375 387.5 c 2
 130.30859375 271.875 l 1
 432.18359375 270 l 1
 734.68359375 268.75 l 1
 802.80859375 326.25 l 2
 840.30859375 357.5 870.93359375 388.125 870.93359375 393.75 c 0
 870.93359375 399.375 840.30859375 430 802.80859375 461.25 c 2
EndSplineSet
Validated: 524321
EndChar

StartChar: uniF076
Encoding: 61558 61558 96
Width: 1000
LayerCount: 2
Fore
SplineSet
96.5693359375 790 m 0
 112.819335938 798.75 154.694335938 800 405.944335938 800 c 0
 732.194335938 800 719.694335938 801.875 759.069335938 753.75 c 2
 777.819335938 730 l 1
 779.694335938 463.125 l 2
 781.569335938 200 780.944335938 195.625 768.444335938 179.375 c 0
 751.569335938 158.125 719.694335938 156.25 702.194335938 175.625 c 0
 690.944335938 188.125 690.319335938 204.375 687.194335938 446.25 c 2
 684.069335938 703.125 l 1
 405.944335938 703.125 l 1
 127.819335938 703.125 l 1
 127.819335938 331.25 l 1
 127.819335938 -40.625 l 1
 244.694335938 -43.75 l 2
 376.569335938 -47.5 383.444335938 -49.375 383.444335938 -91.25 c 0
 383.444335938 -107.5 379.069335938 -117.5 368.444335938 -126.25 c 0
 354.694335938 -137.5 344.694335938 -138.125 227.194335938 -136.25 c 2
 100.944335938 -134.375 l 1
 77.1943359375 -115.625 l 2
 28.4443359375 -75.625 30.9443359375 -100 30.9443359375 330 c 0
 30.9443359375 741.25 30.9443359375 736.875 62.8193359375 766.875 c 0
 70.9443359375 774.375 86.5693359375 785 96.5693359375 790 c 0
234.069335938 534.375 m 2
 249.069335938 550 l 1
 405.944335938 550 l 1
 562.819335938 550 l 1
 577.819335938 534.375 l 2
 586.569335938 526.25 593.444335938 511.875 593.444335938 503.125 c 0
 593.444335938 494.375 586.569335938 480 577.819335938 471.875 c 2
 562.819335938 456.25 l 1
 405.944335938 456.25 l 1
 249.069335938 456.25 l 1
 234.069335938 471.875 l 2
 225.319335938 480 218.444335938 494.375 218.444335938 503.125 c 0
 218.444335938 511.875 225.319335938 526.25 234.069335938 534.375 c 2
234.069335938 346.875 m 0
 248.444335938 361.875 252.819335938 362.5 327.819335938 362.5 c 0
 402.819335938 362.5 407.194335938 361.875 421.569335938 346.875 c 0
 430.319335938 338.75 437.194335938 324.375 437.194335938 315.625 c 0
 437.194335938 306.875 430.319335938 292.5 421.569335938 284.375 c 0
 407.194335938 269.375 402.819335938 268.75 327.819335938 268.75 c 0
 252.819335938 268.75 248.444335938 269.375 234.069335938 284.375 c 0
 225.319335938 292.5 218.444335938 306.875 218.444335938 315.625 c 0
 218.444335938 324.375 225.319335938 338.75 234.069335938 346.875 c 0
840.944335938 114.375 m 0
 910.319335938 181.25 925.319335938 187.5 952.819335938 159.375 c 0
 985.319335938 126.875 982.819335938 122.5 814.069335938 -41.875 c 0
 670.944335938 -181.875 657.194335938 -193.75 636.569335938 -193.75 c 0
 616.569335938 -193.75 607.819335938 -186.875 540.944335938 -118.75 c 0
 470.319335938 -47.5 467.194335938 -43.125 470.944335938 -23.75 c 0
 475.944335938 1.875 485.319335938 11.25 510.944335938 16.25 c 0
 529.694335938 20 534.694335938 16.875 584.069335938 -31.875 c 2
 637.819335938 -83.75 l 1
 707.819335938 -15 l 2
 746.569335938 22.5 805.944335938 80.625 840.944335938 114.375 c 0
EndSplineSet
Validated: 524321
EndChar

StartChar: uniF077
Encoding: 61559 61559 97
Width: 1000
LayerCount: 2
Fore
SplineSet
920.3125 755.625 m 0x95
 945.3125 773.125 964.6875 771.875 982.8125 753.125 c 2
 998.4375 738.125 l 1
 998.4375 393.75 l 1
 998.4375 49.375 l 1
 982.8125 34.375 l 2
 962.1875 13.125 948.4375 15 900.3125 43.125 c 0
 849.0625 74.375 784.0625 101.875 713.4375 121.25 c 0
 652.1875 138.75 541.5625 156.25 495.3125 156.25 c 2
 465.3125 156.25 l 1
 469.6875 98.125 l 2
 472.1875 66.25 477.8125 20.625 482.8125 -3.125 c 0
 495.3125 -62.5 494.6875 -101.875 480.3125 -130 c 0
 453.4375 -182.5 416.5625 -200 335.9375 -200 c 0
 246.5625 -200 220.9375 -183.125 195.3125 -107.5 c 0
 175.3125 -48.75 161.5625 25 156.5625 100.625 c 2
 152.8125 162.5 l 1
 120.9375 180.625 l 2
 79.0625 204.375 45.3125 241.875 20.9375 293.125 c 0
 3.4375 330.625 1.5625 340 1.5625 394.375 c 0
 1.5625 450.625 2.8125 456.25 24.6875 501.25 c 0
 52.8125 558.125 89.0625 593.125 147.1875 620.625 c 2
 189.0625 640.625 l 1xad
 295.3125 639.375 l 2
 354.0625 638.75 439.6875 637.5 485.9375 636.25 c 0
 552.1875 635.625 585.3125 638.125 640.9375 648.75 c 0
 745.9375 670 855.9375 711.875 920.3125 755.625 c 0x95
904.6875 394.375 m 2
 904.6875 528.125 904.0625 637.5 903.4375 636.875 c 0
 836.5625 607.5 774.6875 584.375 727.8125 572.5 c 0
 661.5625 555 545.3125 537.5 498.4375 537.5 c 2
 467.1875 537.5 l 1
 467.1875 393.75 l 1
 467.1875 250 l 1xb3
 498.4375 250 l 2
 589.0625 250 748.4375 215.625 846.5625 175.625 c 2
 904.6875 151.25 l 1
 904.6875 394.375 l 2
373.4375 393.75 m 1
 373.4375 550 l 1
 297.1875 549.375 l 2
 205.3125 548.75 175.9375 540.625 139.0625 503.125 c 0
 77.8125 441.875 77.8125 345.625 139.0625 284.375 c 0
 175.9375 247.5 209.0625 237.5 299.6875 237.5 c 2
 373.4375 237.5 l 1xcb
 373.4375 393.75 l 1
375.3125 95.625 m 2
 371.5625 143.75 l 1xc5
 309.0625 143.75 l 1
 246.5625 143.75 l 1
 250.9375 95.625 l 2
 256.5625 30.625 265.3125 -17.5 280.3125 -66.25 c 2
 292.8125 -106.875 l 1
 340.3125 -105 l 2
 402.8125 -102.5 404.0625 -100.625 390.3125 -17.5 c 0
 384.0625 18.125 377.8125 68.75 375.3125 95.625 c 2
EndSplineSet
Validated: 524321
EndChar

StartChar: uniF078
Encoding: 61560 61560 98
Width: 1000
LayerCount: 2
Fore
SplineSet
337.615234375 596.875 m 0
 368.865234375 628.75 374.490234375 625 532.615234375 467.5 c 0
 668.240234375 332.5 678.240234375 320.625 678.240234375 300 c 0
 678.240234375 279.375 668.240234375 267.5 531.990234375 131.875 c 0
 388.865234375 -10.625 385.115234375 -14.375 364.490234375 -10 c 0
 338.865234375 -5 329.490234375 4.375 324.490234375 30 c 0
 320.115234375 50 323.865234375 54.375 444.490234375 175.625 c 2
 568.240234375 300 l 1
 445.115234375 423.75 l 2
 311.365234375 558.125 306.365234375 566.25 337.615234375 596.875 c 0
EndSplineSet
Validated: 524321
EndChar

StartChar: uniF07B
Encoding: 61563 61563 99
Width: 1000
LayerCount: 2
Fore
SplineSet
252.764648438 710 m 0
 267.139648438 716.25 324.639648438 718.125 499.639648438 718.75 c 0
 755.264648438 718.75 760.889648438 718.125 782.139648438 675 c 0
 792.764648438 655 793.389648438 622.5 793.389648438 280 c 0
 793.389648438 -88.75 793.389648438 -93.75 780.264648438 -106.875 c 0
 772.139648438 -115 763.389648438 -118.125 754.639648438 -115 c 0
 747.764648438 -113.125 690.889648438 -70 628.389648438 -20 c 0
 565.889648438 30 511.514648438 73.75 507.764648438 76.875 c 0
 502.139648438 81.25 464.014648438 54.375 379.014648438 -14.375 c 0
 312.139648438 -67.5 252.139648438 -113.125 244.639648438 -115 c 0
 235.889648438 -118.125 227.764648438 -115.625 218.389648438 -106.25 c 0
 205.889648438 -93.75 205.889648438 -90.625 207.139648438 290 c 0
 209.014648438 663.75 209.639648438 673.75 221.514648438 687.5 c 0
 228.389648438 695.625 242.764648438 705.625 252.764648438 710 c 0
EndSplineSet
Validated: 524321
EndChar

StartChar: uniF07C
Encoding: 61564 61564 100
Width: 1000
LayerCount: 2
Fore
SplineSet
503.19805386 771.640445091 m 0
 527.898273742 771.640445091 552.088530922 769.046226321 568.75252416 760.207804991 c 0
 594.330466895 747.306569961 609.974001187 715.94401028 617.812248911 678.059146247 c 0
 620.755484179 663.878103594 623.658339682 655.5810793 626.412428103 651.150218223 c 0
 629.635385932 645.965025806 632.995974762 643.807833521 644.386474233 639.766043387 c 0
 650.426524264 637.622799827 653.553300142 637.013888889 655.555555556 637.013888889 c 0
 659.212746681 637.013888889 666.850430151 639.904343891 689.74105524 653.463089091 c 0
 715.045631673 669.144747022 730.12243371 676.367978331 749.959620416 676.367979181 c 0
 754.37719631 676.367979181 758.805901989 676.045297613 763.502666297 675.53753931 c 0
 774.567417762 674.341349962 784.610963627 672.18086892 794.539430173 666.858754168 c 0
 806.858922599 660.254939564 817.643180148 650.162479458 833.730013501 633.730250662 c 0
 850.162382592 617.64328626 860.254908729 606.858983742 866.858754168 594.539430173 c 0
 872.18086892 584.610963627 874.341349962 574.567417762 875.53753931 563.502666297 c 0
 876.045297613 558.805901989 876.367979181 554.37719631 876.367979181 549.959620416 c 0
 876.367979181 530.122433426 869.144748031 515.045631502 853.463089611 489.7410561 c 0
 839.904344814 466.850429822 837.013889737 459.212746202 837.013888889 455.555555556 c 0
 837.013888889 453.551754917 837.863665127 450.102308239 839.859128444 444.11591829 c 0
 843.64163326 432.76840384 846.138038091 429.52784676 851.150218223 426.412428103 c 0
 855.5810793 423.658339682 863.854802396 420.760300877 878.035845048 417.81706561 c 0
 914.445964894 410.320864465 940.973405878 398.974118638 956.143116528 374.301289834 c 0
 967.99241055 355.028964237 971.25 330.938729434 971.25 300 c 0
 971.25 269.061270566 967.99241055 244.971035763 956.143116528 225.698710166 c 0
 940.973405878 201.025881362 914.469266092 189.683952233 878.059146247 182.187751089 c 0
 863.878103594 179.244515821 855.5810793 176.341660318 851.150218223 173.587571897 c 0
 845.965025806 170.364614068 843.807833521 167.004025238 839.766043387 155.613525767 c 0
 837.622799827 149.573475736 837.013888889 146.446699858 837.013888889 144.444444444 c 0
 837.013888889 140.787253319 839.904343891 133.149569849 853.463089091 110.25894476 c 0
 869.144747021 84.9543683269 876.367978331 69.8775662898 876.367979181 50.0403795838 c 0
 876.367979181 45.6228036901 876.045297613 41.1940980115 875.53753931 36.4973337034 c 0
 874.341349962 25.4325822381 872.18086892 15.3890363733 866.858754168 5.46056982696 c 0
 860.254939564 -6.85892259866 850.162479458 -17.6431801479 833.730250662 -33.7300135011 c 0
 817.64328626 -50.1623825924 806.858983742 -60.2549087293 794.539430173 -66.8587541681 c 0
 784.610963627 -72.1808689201 774.567417762 -74.3413499621 763.502666297 -75.5375393097 c 0
 758.805901989 -76.0452976133 754.37719631 -76.3679791814 749.959620416 -76.3679791814 c 0
 730.122433426 -76.3679791814 715.045631502 -69.1447480309 689.7410561 -53.4630896116 c 0
 666.850429822 -39.9043448138 659.212746202 -37.0138897372 655.555555556 -37.0138888889 c 0
 653.551754917 -37.0138888889 650.102308239 -37.8636651273 644.11591829 -39.8591284436 c 0
 632.76840384 -43.6416332601 629.52784676 -46.138038091 626.412428103 -51.1502182228 c 0
 623.658339682 -55.5810793002 620.760300877 -63.8548023959 617.81706561 -78.0358450482 c 0
 610.320864465 -114.445964894 598.974118638 -140.973405878 574.301289834 -156.143116528 c 0
 555.028964237 -167.99241055 530.938729434 -171.25 500 -171.25 c 0
 469.061270566 -171.25 444.971035763 -167.99241055 425.698710166 -156.143116528 c 0
 401.025881362 -140.973405878 389.683952233 -114.469266092 382.187751089 -78.0591462465 c 0
 379.244515821 -63.8781035942 376.341660318 -55.5810793002 373.587571897 -51.1502182228 c 0
 370.364614068 -45.9650258059 367.004025238 -43.8078335213 355.613525767 -39.7660433865 c 0
 349.573475736 -37.622799827 346.446699858 -37.0138888889 344.444444444 -37.0138888889 c 0
 340.787253319 -37.0138888889 333.149569849 -39.9043438913 310.25894476 -53.463089091 c 0
 284.954368327 -69.1447470216 269.87756629 -76.3679783314 250.040379584 -76.3679791814 c 0
 245.62280369 -76.3679791814 241.194098011 -76.0452976133 236.497333703 -75.5375393097 c 0
 225.432582238 -74.3413499621 215.389036373 -72.1808689201 205.460569827 -66.8587541681 c 0
 193.141077401 -60.2549395641 182.356819852 -50.1624794585 166.269986499 -33.7302506624 c 0
 149.837617408 -17.6432862598 139.745091271 -6.85898374198 133.141245832 5.46056982696 c 0
 127.81913108 15.3890363733 125.658650038 25.4325822381 124.46246069 36.4973337034 c 0
 123.954702387 41.1940980115 123.632020819 45.6228036901 123.632020819 50.0403795838 c 0
 123.632020819 69.8775665745 130.855251969 84.9543684978 146.536910389 110.2589439 c 0
 160.095655186 133.149570178 162.986110263 140.787253798 162.986111111 144.444444444 c 0
 162.986111111 146.448245083 162.136334873 149.897691761 160.140871556 155.88408171 c 0
 156.35836674 167.23159616 153.861961909 170.47215324 148.849781777 173.587571897 c 0
 144.4189207 176.341660318 136.145197604 179.239699123 121.964154952 182.18293439 c 0
 85.5569399094 189.678537487 58.9719704196 201.054085794 43.8181673535 225.97636511 c 0
 31.9941353774 245.422429327 28.75 269.776162953 28.75 301.25 c 0
 28.75 329.984342039 30.8125026669 351.619250392 39.5014843218 369.36502418 c 0
 50.7958453952 392.431844281 72.1064603739 403.714085231 100.391626978 411.339653139 c 0
 131.226525684 420.003140425 145.998828985 425.3666628 151.634063359 429.442052396 c 0
 155.754738756 432.422115703 156.820264375 434.766068832 160.233956613 444.386474233 c 0
 162.469478634 450.686581744 163.127733682 453.908694743 163.127733682 455.937774731 c 0
 163.127733682 459.501026907 160.427648622 467.012604872 146.617007375 489.611836003 c 0
 130.87984658 514.994353414 123.632020819 530.088689988 123.632020819 549.959620416 c 0
 123.632020819 554.37719631 123.954702387 558.805901989 124.46246069 563.502666297 c 0
 125.658650038 574.567417762 127.81913108 584.610963627 133.141245832 594.539430173 c 0
 139.745092509 606.858982431 149.837618574 617.6432849 166.269986268 633.730250432 c 0
 182.356821006 650.162478104 193.141078594 660.254938266 205.460569827 666.858754168 c 0
 215.389036373 672.18086892 225.432582238 674.341349962 236.497333703 675.53753931 c 0
 241.194098011 676.045297613 245.62280369 676.367979181 250.040379584 676.367979181 c 0
 269.911310012 676.367979181 284.923223712 669.170888569 310.305741123 653.433727774 c 0
 332.904972254 639.623086528 340.498973093 636.872266318 344.062225269 636.872266318 c 0
 346.088890119 636.872266318 349.778729679 637.879531148 355.99897989 639.896909594 c 0
 365.589096222 643.007217594 367.70180577 644.416613365 370.557947604 648.365936641 c 0
 374.630874634 653.997766733 379.990379012 668.755628988 388.644648617 699.552505759 c 0
 392.932499643 715.968783574 397.024219005 727.901288702 404.153717662 737.952618473 c 0
 422.423551484 763.70984796 459.685461021 771.640445091 503.19805386 771.640445091 c 0
489.28162222 677.887025913 m 0
 483.83702852 677.887025913 480.640954189 677.332469796 479.380942496 676.886886935 c 0
 478.183147541 676.463306021 478.187849748 676.869068701 476.705292117 673.981199659 c 0
 474.402654211 669.495898995 471.500103901 657.844358389 467.833813912 638.296683559 c 0
 464.718598882 622.720608411 456.385848516 604.647533722 447.425835864 593.243881255 c 0
 436.041107239 578.538606782 414.550253921 565.623639403 392.836272846 555.544422381 c 0
 375.432092 547.465732655 358.123147553 541.25 343.125 541.25 c 0
 332.404868484 541.25 321.135023318 545.022262155 307.599015294 550.693937223 c 0
 290.721228339 557.765839317 270.692078012 568.405090457 249.679986196 581.574059724 c 0
 248.462521456 582.30043062 247.488890671 582.817813217 246.795861348 583.162857509 c 0
 244.867748662 581.73065121 239.940411017 577.863664107 232.394778471 570.560696713 c 0
 226.047630432 564.208315114 220.138340549 557.70677472 216.745810031 553.642984101 c 1
 219.71398242 547.724760234 225.683230083 537.407169417 231.554001201 527.813470273 c 0
 247.788662121 501.283658527 256.806596335 480.388177437 256.806596335 457.232986221 c 0
 256.806596335 443.00867341 253.437247521 429.116053876 247.865188961 413.666255142 c 0
 240.763276671 393.544170321 231.8657701 377.264265879 218.846807679 364.228988969 c 0
 202.522807698 347.884532848 181.189838992 338.125928105 153.325873463 330.526664778 c 2
 124.375 322.836345297 l 1
 124.375 307.612146371 124.375 292.387947445 124.375 277.163748519 c 1
 153.230737756 269.498943178 l 2
 178.113302386 262.77392571 203.330914705 251.755988038 216.651039982 238.929200734 c 0
 226.745690327 229.208426328 235.18274654 214.48582094 242.481130248 198.528151902 c 0
 251.59642972 178.597858018 258.75 157.148200413 258.75 140 c 0
 258.75 129.562656848 254.45624867 119.284636178 248.574883882 105.975513275 c 0
 241.259218317 89.4206666293 230.577211205 69.3463220546 218.44920191 49.7189345302 c 0
 217.710602011 48.4832737521 217.18586031 47.496264376 216.837142491 46.7958613483 c 0
 218.26934879 44.8677486621 222.136335893 39.9404110179 229.439303286 32.3947784716 c 0
 235.791684886 26.0476304328 242.293225279 20.1383405488 246.357015899 16.745810031 c 1
 252.275239766 19.7139824203 262.592830583 25.6832300834 272.186529727 31.5540012013 c 0
 298.716341473 47.7886621207 319.611822563 56.8065963352 342.767013779 56.8065963352 c 0
 356.99132659 56.8065963352 370.883946124 53.4372475206 386.333744858 47.8651889608 c 0
 406.455829679 40.7632766713 422.735734121 31.8657700997 435.771011031 18.846807679 c 0
 452.115467152 2.52280769817 461.874071895 -18.8101610082 469.473335222 -46.6741265374 c 2
 477.163654703 -75.625 l 1
 492.387853629 -75.625 507.612052555 -75.625 522.836251481 -75.625 c 1
 530.501056822 -46.7692622436 l 2
 537.22607429 -21.8866976143 548.244011963 3.3309147052 561.070799266 16.6510399816 c 0
 570.791573672 26.7456903271 585.51417906 35.1827465403 601.471848098 42.4811302475 c 0
 621.402141982 51.59642972 642.851799587 58.75 660 58.75 c 0
 670.437343152 58.75 680.715363822 54.4562486699 694.024486725 48.5748838822 c 0
 710.579333371 41.2592183169 730.653677945 30.577211205 750.28106547 18.4492019097 c 0
 751.516726248 17.7106020114 752.503735624 17.1858603101 753.204138652 16.8371424914 c 0
 755.132251338 18.2693487902 760.059588982 22.1363358928 767.605221529 29.4393032864 c 0
 773.952369567 35.7916848862 779.861659451 42.2932252796 783.254189969 46.3570158993 c 1
 780.28601758 52.275239766 774.316769917 62.5928305834 768.445998799 72.1865297273 c 0
 752.211337879 98.7163414735 743.193403665 119.611822563 743.193403665 142.767013779 c 0
 743.193403665 156.99132659 746.562752479 170.883946124 752.134811039 186.333744858 c 0
 759.236723329 206.455829679 768.1342299 222.735734121 781.153192321 235.771011031 c 0
 797.477192302 252.115467152 818.810161008 261.874071895 846.674126537 269.473335222 c 2
 875.625 277.163654703 l 1
 875.625 292.387853629 875.625 307.612052555 875.625 322.836251481 c 1
 846.769262244 330.501056822 l 2
 818.905296714 338.100320149 797.477192302 347.884532848 781.153192321 364.228988969 c 0
 768.1342299 377.264265879 759.202496036 393.640100488 752.100583746 413.762185308 c 0
 746.528525187 429.211984042 743.193403665 443.00867341 743.193403665 457.232986221 c 0
 743.193403665 480.444657701 752.326304513 501.47153083 768.563293375 528.005146776 c 0
 774.738727179 537.449927888 780.304483264 547.478873162 783.273760229 553.489111251 c 1
 780.15479821 557.182668233 774.494418505 563.664826159 767.604889341 570.561025921 c 0
 760.259226557 577.672230587 755.343538175 581.805170275 753.274312462 583.237257598 c 0
 752.665301712 582.928639896 751.731343047 582.418214392 750.322900541 581.575871884 c 0
 729.309756999 568.406065833 709.279544638 557.766163802 692.400984706 550.693937223 c 0
 678.864976682 545.022262155 667.595131516 541.25 656.875 541.25 c 0
 643.052943092 541.25 626.682254692 547.155689851 609.602621177 554.606512365 c 0
 588.316701663 563.892285868 567.016409496 575.379524613 555.703807748 588.118587129 c 0
 550.548920856 593.818698517 547.141808239 600.856248306 543.290962193 609.626800046 c 0
 534.666183942 629.270274689 528.690421529 653.587291309 522.666820574 676.263338701 c 1
 512.081026626 676.862534584 499.94119366 677.887025913 489.28162222 677.887025913 c 0
498.766749475 481.539720246 m 0
 543.209626592 481.539720246 586.373727505 464.938628011 621.256743896 433.045584454 c 0
 660.927527137 397.478675342 680.703378653 348.545720442 680.703378653 299.788453599 c 0
 680.703378653 251.243542615 661.140114368 202.741400715 621.91829372 167.612291787 c 0
 585.865109994 135.076491839 542.506901986 118.92226718 499.379909531 118.92226718 c 0
 443.230783686 118.92226718 388.294168743 146.291427257 350.97509728 198.081159082 c 0
 329.212971852 228.083312585 319.248055937 262.79749213 319.248055937 297.257554407 c 0
 319.248055937 374.531136784 369.310448918 451.813300559 451.049126537 475.098335222 c 0
 466.821500867 479.399891857 482.833617078 481.539720246 498.766749475 481.539720246 c 0
500.293504511 387.884448626 m 0
 451.555339282 387.884448626 411.518022811 344.603847506 411.518022811 298.524960621 c 0
 411.518022811 278.210851993 419.08126106 257.12778269 438.104521875 238.104521875 c 0
 455.612203274 220.596840476 477.634593097 212.573363333 499.548922741 212.573363333 c 0
 538.074364482 212.573363333 573.503102486 236.666661754 584.920199074 277.768209474 c 0
 586.927100999 284.993056403 587.892985582 292.459941686 587.892985582 299.923084452 c 0
 587.892985582 332.032282519 569.89603419 363.386107932 543.846860828 376.617434084 c 0
 528.701717823 384.503662395 513.936523391 387.884448626 500.293504511 387.884448626 c 0
EndSplineSet
Validated: 524289
EndChar

StartChar: uniF07D
Encoding: 61565 61565 101
Width: 1000
LayerCount: 2
Fore
SplineSet
531.25 487.5 m 1x8e38
 468.75 487.5 l 1
 468.75 550 l 1
 531.25 550 l 1
 531.25 487.5 l 1x8e38
781.25 300 m 1xa618
 781.25 237.5 l 1
 718.75 237.5 l 1
 718.75 300 l 1
 781.25 300 l 1xa618
343.75 487.5 m 1x9698
 343.75 425 l 1
 281.25 425 l 1
 281.25 487.5 l 1
 343.75 487.5 l 1x9698
281.25 300 m 1xa718
 281.25 237.5 l 1
 218.75 237.5 l 1
 218.75 300 l 1
 281.25 300 l 1xa718
968.75 643.75 m 1
 593.75 295 l 1
 593.75 237.5 l 2xa658
 593.75 203.125 565.625 175 531.25 175 c 2
 468.75 175 l 2xc638
 434.375 175 406.25 203.125 406.25 237.5 c 2
 406.25 300 l 2xa658
 406.25 334.375 434.375 362.5 468.75 362.5 c 2
 468.75 362.5 527.5 363.75 531.25 362.5 c 2xc638
 937.5 675 l 1
 968.75 643.75 l 1
869.375 388.125 m 1
 931.875 450.625 l 1
 956.25 395 968.75 333.125 968.75 268.75 c 0
 968.75 10 758.75 -200 500 -200 c 0
 241.25 -200 31.25 10 31.25 268.75 c 0
 31.25 527.5 241.25 737.5 500.625 737.5 c 0
 598.125 737.5 688.75 706.875 763.125 656.25 c 1
 704.375 597.5 l 2
 644.375 635 575 656.25 500 656.25 c 0
 286.25 656.25 112.5 482.5 112.5 268.75 c 0
 112.5 55 286.875 -118.75 500.625 -118.75 c 0
 714.375 -118.75 888.125 55 888.125 268.75 c 0
 888.125 310 881.25 350 869.375 388.125 c 1
EndSplineSet
Validated: 524321
EndChar

StartChar: uniF07E
Encoding: 61566 61566 102
Width: 1000
LayerCount: 2
Fore
SplineSet
419.059570312 793.125 m 0
 465.309570312 801.25 576.559570312 796.875 619.059570312 785 c 0
 750.309570312 749.375 848.434570312 679.375 919.684570312 570.625 c 0
 974.684570312 486.25 996.559570312 409.375 996.559570312 300 c 0
 997.184570312 159.375 950.309570312 45 852.809570312 -52.5 c 0
 657.809570312 -247.5 342.184570312 -247.5 147.809570312 -52.5 c 0
 71.5595703125 23.75 26.5595703125 111.875 7.1845703125 220.625 c 0
 -2.1904296875 273.75 12.8095703125 300 52.8095703125 300 c 0
 76.5595703125 300 91.5595703125 275.625 102.809570312 221.875 c 0
 108.434570312 192.5 123.434570312 150 138.434570312 118.75 c 0
 185.309570312 23.75 284.684570312 -59.375 387.809570312 -90 c 0
 440.934570312 -106.25 526.559570312 -109.375 581.559570312 -97.5 c 0
 800.309570312 -51.25 942.809570312 166.25 897.184570312 384.375 c 0
 873.434570312 499.375 787.184570312 610 681.559570312 661.875 c 0
 523.434570312 739.375 348.434570312 712.5 221.559570312 592.5 c 0
 195.934570312 568.125 175.309570312 545.625 175.309570312 541.875 c 0
 175.309570312 538.125 194.059570312 516.25 216.559570312 492.5 c 0
 279.059570312 428.125 279.059570312 428.125 128.434570312 428.125 c 2
 3.4345703125 428.125 l 1
 3.4345703125 553.125 l 2
 3.4345703125 702.5 3.4345703125 703.125 65.3095703125 643.75 c 2
 105.309570312 605.625 l 1
 127.184570312 632.5 l 2
 190.309570312 708.75 309.059570312 773.75 419.059570312 793.125 c 0
453.434570312 534.375 m 0
 461.559570312 543.125 475.934570312 550 484.684570312 550 c 0
 493.434570312 550 507.809570312 543.125 515.934570312 534.375 c 0
 531.559570312 519.375 531.559570312 517.5 531.559570312 417.5 c 2
 531.559570312 315.625 l 1
 600.934570312 288.125 l 2
 677.184570312 258.125 691.559570312 245 684.684570312 212.5 c 0
 680.309570312 192.5 660.934570312 175 642.809570312 175 c 0
 620.934570312 175 456.559570312 245 447.184570312 258.125 c 0
 439.684570312 268.75 437.809570312 296.25 437.809570312 395.625 c 0
 437.809570312 518.75 437.809570312 519.375 453.434570312 534.375 c 0
EndSplineSet
Validated: 524321
EndChar

StartChar: uniF07F
Encoding: 61567 61567 103
Width: 1000
LayerCount: 2
Fore
SplineSet
622.379882812 728.125 m 0
 625.504882812 736.25 644.879882812 737.5 764.879882812 736.25 c 2
 904.254882812 734.375 l 1
 904.254882812 593.75 l 2
 904.254882812 425 905.504882812 426.25 838.004882812 496.25 c 0
 813.004882812 522.5 789.879882812 543.75 786.129882812 543.75 c 0
 782.379882812 543.75 724.254882812 488.75 656.129882812 421.25 c 0
 536.129882812 301.875 532.379882812 298.125 512.379882812 302.5 c 0
 486.754882812 307.5 477.379882812 316.875 472.379882812 342.5 c 0
 468.004882812 362.5 471.754882812 366.25 591.129882812 486.25 c 0
 702.379882812 598.75 724.879882812 625 708.004882812 625 c 0
 696.129882812 625 618.629882812 718.75 622.379882812 728.125 c 0
160.504882812 665 m 0
 175.504882812 673.125 203.629882812 675 309.254882812 675 c 0
 438.629882812 675 439.254882812 675 454.254882812 659.375 c 0
 473.004882812 641.25 474.254882812 619.375 458.004882812 599.375 c 0
 446.129882812 585 443.004882812 584.375 318.629882812 581.25 c 2
 191.754882812 578.125 l 1
 191.754882812 300 l 1
 191.754882812 21.875 l 1
 469.879882812 21.875 l 1
 748.004882812 21.875 l 1
 751.129882812 148.75 l 2
 754.254882812 273.125 754.879882812 276.25 769.254882812 288.125 c 0
 789.254882812 304.375 811.129882812 303.125 829.879882812 284.375 c 2
 845.504882812 268.75 l 1
 843.629882812 131.875 l 1
 841.754882812 -5 l 1
 823.004882812 -28.75 l 2
 783.629882812 -76.875 796.129882812 -75 469.879882812 -75 c 0
 143.629882812 -75 156.129882812 -76.875 116.754882812 -28.75 c 2
 98.0048828125 -5 l 1
 96.1298828125 286.25 l 2
 94.8798828125 474.375 96.7548828125 586.25 100.504882812 600 c 0
 108.004882812 624.375 131.129882812 650 160.504882812 665 c 0
EndSplineSet
Validated: 524321
EndChar

StartChar: uniF080
Encoding: 61568 61568 104
Width: 1000
LayerCount: 2
Fore
SplineSet
426.618164062 665.625 m 0
 445.993164062 679.375 466.618164062 676.875 484.118164062 659.375 c 2
 499.743164062 644.375 l 1
 499.743164062 300 l 1
 499.743164062 -44.375 l 1
 484.118164062 -59.375 l 2
 466.618164062 -76.875 445.993164062 -79.375 426.618164062 -65.625 c 0
 419.118164062 -60.625 369.118164062 -18.125 315.368164062 27.5 c 2
 217.868164062 111.25 l 1
 143.493164062 113.75 l 2
 72.2431640625 115.625 69.1181640625 116.25 45.9931640625 134.375 c 0
 3.4931640625 168.75 -0.2568359375 183.125 -0.2568359375 300 c 0
 -0.2568359375 416.875 3.4931640625 431.25 45.9931640625 465.625 c 0
 69.1181640625 483.75 72.2431640625 484.375 143.493164062 486.25 c 2
 217.868164062 488.75 l 1
 315.368164062 572.5 l 2
 369.118164062 618.125 419.118164062 660.625 426.618164062 665.625 c 0
405.993164062 299.375 m 2
 405.993164062 423.75 405.368164062 525 404.743164062 525 c 0
 403.493164062 524.375 381.618164062 506.25 355.993164062 483.125 c 0
 330.368164062 460.625 296.618164062 432.5 281.618164062 419.375 c 2
 254.118164062 396.875 l 1
 175.368164062 393.75 l 1
 96.6181640625 390.625 l 1
 96.6181640625 300 l 1
 96.6181640625 209.375 l 1
 174.743164062 206.25 l 2
 263.493164062 202.5 247.868164062 210.625 349.118164062 123.125 c 2
 405.993164062 74.375 l 1
 405.993164062 299.375 l 2
638.493164062 473.125 m 0
 664.743164062 501.25 682.868164062 493.75 750.368164062 426.875 c 2
 812.243164062 366.25 l 1
 874.743164062 427.5 l 2
 933.493164062 485.625 938.493164062 488.75 957.243164062 485 c 0
 982.868164062 480 992.243164062 470.625 997.243164062 445 c 0
 1000.99316406 426.25 997.868164062 421.25 939.743164062 362.5 c 2
 878.493164062 300 l 1
 939.118164062 238.125 l 2
 1005.36816406 171.25 1012.24316406 155 985.993164062 126.875 c 0
 959.743164062 98.75 941.618164062 106.25 874.118164062 173.125 c 2
 812.243164062 233.75 l 1
 750.368164062 173.125 l 2
 683.493164062 106.875 667.243164062 100 639.118164062 126.25 c 0
 610.993164062 152.5 618.493164062 170.625 685.368164062 238.125 c 2
 745.993164062 300 l 1
 685.368164062 361.875 l 2
 619.118164062 428.75 612.243164062 445 638.493164062 473.125 c 0
EndSplineSet
Validated: 524321
EndChar

StartChar: uniF081
Encoding: 61569 61569 105
Width: 1000
LayerCount: 2
Fore
SplineSet
234.465820312 565.625 m 0
 264.465820312 596.25 273.840820312 590.625 391.965820312 473.75 c 2
 500.090820312 366.25 l 1
 608.215820312 473.75 l 2
 698.215820312 563.125 719.465820312 581.25 734.465820312 581.25 c 0
 758.840820312 581.25 781.340820312 558.75 781.340820312 535 c 0
 781.340820312 519.375 765.090820312 500 673.840820312 408.125 c 2
 566.340820312 300 l 1
 673.840820312 191.875 l 2
 763.215820312 101.875 781.340820312 80.625 781.340820312 65.625 c 0
 781.340820312 41.25 758.840820312 18.75 735.090820312 18.75 c 0
 719.465820312 18.75 700.090820312 35 608.215820312 126.25 c 2
 500.090820312 233.75 l 1
 390.715820312 125.625 l 2
 285.090820312 20.625 281.340820312 17.5 261.340820312 21.25 c 0
 235.715820312 26.25 226.340820312 35.625 221.340820312 61.25 c 0
 217.590820312 81.25 220.715820312 85 325.715820312 190.625 c 2
 433.840820312 300 l 1
 326.340820312 408.125 l 2
 209.465820312 526.25 203.840820312 535.625 234.465820312 565.625 c 0
EndSplineSet
Validated: 524321
EndChar

